<?xml version="1.0" encoding="utf-8"?>
<!-- Generator: Adobe Illustrator 26.0.0, SVG Export Plug-In . SVG Version: 6.00 Build 0)  -->
<svg version="1.1" id="Layer_1" xmlns="http://www.w3.org/2000/svg" xmlns:xlink="http://www.w3.org/1999/xlink" x="0px" y="0px"
	 viewBox="0 0 800 800" style="enable-background:new 0 0 800 800;" xml:space="preserve">
<style type="text/css">
	.st0{fill:url(#SVGID_00000100384957846243952100000015273859347929034115_);}
	.st1{clip-path:url(#SVGID_00000018224518611469708080000006208987126836017561_);}
	.st2{fill:#54321D;}
	.st3{fill:#744224;}
	.st4{fill:#3C281A;}
	.st5{fill-rule:evenodd;clip-rule:evenodd;fill:#42A5F5;stroke:#000000;stroke-width:3;stroke-miterlimit:10;}
	.st6{fill:#C69C6D;stroke:#000000;stroke-miterlimit:10;}
	.st7{fill-rule:evenodd;clip-rule:evenodd;fill:#FFFFFF;}
	.st8{fill:none;stroke:url(#SVGID_00000124147372692536617750000012915477884249702812_);stroke-width:23;stroke-miterlimit:10;}
	.st9{clip-path:url(#SVGID_00000003807521211099962430000011820007168506432437_);}
	.st10{clip-path:url(#SVGID_00000173844372248111167790000002380787079512836779_);}
	.st11{fill:#306998;}
	.st12{clip-path:url(#SVGID_00000118362382024509582130000006600796137089802406_);}
	.st13{fill:#4B8BBE;}
	.st14{clip-path:url(#SVGID_00000163035881696728210960000009027814257866582447_);}
	.st15{clip-path:url(#SVGID_00000107558601911707763970000015416806495504068501_);}
	.st16{clip-path:url(#SVGID_00000135690312445560005720000005810161156362628531_);}
	.st17{clip-path:url(#SVGID_00000010297963466065242800000004800762867808840369_);}
	.st18{clip-path:url(#SVGID_00000175300363001385277450000013221299297796151974_);}
	.st19{clip-path:url(#SVGID_00000095306885149876578830000017254523160905664413_);}
	.st20{clip-path:url(#SVGID_00000150082604585289925560000004570955708012186046_);}
	.st21{clip-path:url(#SVGID_00000118380345836938615500000010990715908087642776_);}
	.st22{clip-path:url(#SVGID_00000137830491773402440750000005886045683942904961_);}
	.st23{clip-path:url(#SVGID_00000068667258323088662050000011409506476120792725_);}
	.st24{clip-path:url(#SVGID_00000128471885314292061640000009015970242594609288_);}
	.st25{clip-path:url(#SVGID_00000123441078374034880740000014407489058488414621_);}
	.st26{clip-path:url(#SVGID_00000045588693160086752820000013854950276596741545_);}
	.st27{clip-path:url(#SVGID_00000000935399728324870920000003714733479762030730_);}
	.st28{clip-path:url(#SVGID_00000054984137256571919100000009726003303781745316_);}
	.st29{fill:#FFD343;}
	.st30{clip-path:url(#SVGID_00000088125725194350585730000013444283460566706101_);}
	.st31{fill:#FFE873;}
	.st32{clip-path:url(#SVGID_00000010275945096850591590000014992381554536933261_);}
	.st33{clip-path:url(#SVGID_00000000904062287118969430000009506395017650478261_);}
	.st34{clip-path:url(#SVGID_00000009585453587970044400000009349363654172816565_);}
	.st35{clip-path:url(#SVGID_00000074430635590223658620000013837601142173226675_);}
	.st36{clip-path:url(#SVGID_00000111155774164915046330000009953882919809153200_);}
	.st37{clip-path:url(#SVGID_00000091008275703271465200000005680956084565105539_);}
	.st38{clip-path:url(#SVGID_00000047738935673974393680000013816060663261968791_);}
	.st39{clip-path:url(#SVGID_00000061447771130364992060000016183613590412696229_);}
	.st40{clip-path:url(#SVGID_00000160902608561047674850000009477047049421660094_);}
	.st41{clip-path:url(#SVGID_00000083084545807232962960000004339163639385206947_);}
	.st42{clip-path:url(#SVGID_00000078755640336103017140000017635046322372011138_);}
	.st43{clip-path:url(#SVGID_00000041291254926877645250000017397405581720279739_);}
	.st44{clip-path:url(#SVGID_00000023973746568847806200000000811819299571209140_);}
	.st45{fill:none;}
	.st46{clip-path:url(#SVGID_00000146481284994448590860000008737746330292898450_);}
	.st47{clip-path:url(#SVGID_00000057847388731577484620000003753441416834570654_);}
	.st48{clip-path:url(#SVGID_00000144298762963418409960000013634207051976262034_);}
	.st49{clip-path:url(#SVGID_00000130617867961677158160000009808067047452348308_);}
	.st50{clip-path:url(#SVGID_00000178173748806362386880000005066534160493802921_);}
	.st51{clip-path:url(#SVGID_00000144303991325278313110000004878860951875905664_);}
	.st52{clip-path:url(#SVGID_00000072280131141802579090000009434894225160160411_);}
	.st53{clip-path:url(#SVGID_00000104691847661805584980000006297835895106296250_);}
	.st54{clip-path:url(#SVGID_00000147202223615463654120000008933881627853354144_);}
	.st55{clip-path:url(#SVGID_00000037667845936968302120000011161957712428144552_);}
	.st56{clip-path:url(#SVGID_00000096737530404411871030000010574611734844420496_);}
	.st57{clip-path:url(#SVGID_00000151501771309907667570000015586183083641873086_);}
	.st58{clip-path:url(#SVGID_00000069377950921939774070000002895816244956895159_);}
	.st59{clip-path:url(#SVGID_00000068665431227161846670000004679071869654788516_);}
	.st60{clip-path:url(#SVGID_00000017501146266459343770000010500310812539459502_);}
	.st61{clip-path:url(#SVGID_00000107546833466971048660000003265796334402240896_);}
	.st62{clip-path:url(#SVGID_00000104678002686031982290000004110756388700326058_);}
	.st63{clip-path:url(#SVGID_00000120531921577139765130000012410486901976851329_);}
	.st64{clip-path:url(#SVGID_00000082361915693735816840000013841623158441512590_);}
	.st65{clip-path:url(#SVGID_00000096749993877450835180000003195397491332526997_);}
	.st66{clip-path:url(#SVGID_00000144329339092827428200000006547839027589632139_);}
	.st67{clip-path:url(#SVGID_00000000905247332845756270000014793063566706934663_);}
	.st68{clip-path:url(#SVGID_00000027576171714627718790000017741638295233022862_);}
	.st69{clip-path:url(#SVGID_00000106868023525800712620000013688728353803850157_);}
	.st70{clip-path:url(#SVGID_00000088096656630554510890000006203373725112563881_);}
	.st71{clip-path:url(#SVGID_00000044157738741687148740000008652887938808312718_);}
	.st72{clip-path:url(#SVGID_00000043429274998106017840000006725378702888592018_);}
	.st73{clip-path:url(#SVGID_00000034794065596615286620000018180602065097263027_);}
	.st74{clip-path:url(#SVGID_00000167359104629729430480000015973755856135058336_);}
</style>
<g>
	<g>
		
			<radialGradient id="SVGID_00000049220542864137988890000009446559476943921328_" cx="400.5" cy="400.2" r="388.4002" gradientTransform="matrix(1 0 0 -1 0 800)" gradientUnits="userSpaceOnUse">
			<stop  offset="0" style="stop-color:#C6C6C6"/>
			<stop  offset="1" style="stop-color:#000000"/>
		</radialGradient>
		
			<ellipse id="SVGID_1_" style="fill:url(#SVGID_00000049220542864137988890000009446559476943921328_);" cx="400.5" cy="399.8" rx="388" ry="388.8"/>
	</g>
	<g>
		<g>
			<g>
				<g>
					<g>
						<defs>
							<ellipse id="SVGID_00000026154803739038833450000017687499874663929764_" cx="400.5" cy="399.8" rx="388" ry="388.8"/>
						</defs>
						<clipPath id="SVGID_00000013878985538611747210000004544996940320349824_">
							<use xlink:href="#SVGID_00000026154803739038833450000017687499874663929764_"  style="overflow:visible;"/>
						</clipPath>
						<g style="clip-path:url(#SVGID_00000013878985538611747210000004544996940320349824_);">
							<g id="Layer_1_00000077292637141746161960000006462756637149015681_">
								<path class="st2" d="M799,0v800H-1L-2,0"/>
								<path class="st3" d="M799,176.3V800H-1l-1-641.1c55.4-43.2,141.2-80,209.6-47.5c48.2,22.8,186.1,38.6,299.7,14
									C596.1,106,691.2,87.4,799,176.3"/>
								<path class="st2" d="M799,391.1V800H-1l-1-444c39.3,50.3,119.8,96.3,267.7,32.2c83.3-36.1,184-34.6,331.8,30.4
									C660.4,446.3,757.8,432.6,799,391.1"/>
								<path class="st4" d="M799,621.3v170.9L-1,800l-1-168.2c73.9,242.1,131,39.9,265.2,107c42.9,21.4,102.7,41.4,244.2-10.5
									C590.4,697.8,740.6,866.7,799,621.3"/>
								<path class="st2" d="M60.7,210.4c3.2,0,5.9,5,5.9,11.1s-2.6,11.1-5.9,11.1c-3.2,0-5.9-5-5.9-11.1
									C54.8,215.4,57.5,210.4,60.7,210.4z M98.3,270.2c2.6,0,4.6,3.9,4.6,8.8s-2.1,8.8-4.6,8.8c-2.6,0-4.6-3.9-4.6-8.8
									C93.7,274.1,95.8,270.2,98.3,270.2z M143.1,325.3c0.7,0,1.2,1,1.2,2.3s-0.6,2.3-1.2,2.3s-1.2-1-1.2-2.3
									C141.9,326.4,142.4,325.3,143.1,325.3z M162.2,223.3c1,0,1.9,1.6,1.9,3.5s-0.8,3.5-1.9,3.5c-1,0-1.9-1.6-1.9-3.5
									C160.4,224.9,161.2,223.3,162.2,223.3z M204.8,171.7c2.7,0,4.9,4.2,4.9,9.4s-2.2,9.4-4.9,9.4s-4.9-4.2-4.9-9.4
									C199.9,175.9,202.1,171.7,204.8,171.7z M240,202.2c3.1,0,5.6,4.7,5.6,10.6c0,5.8-2.5,10.6-5.6,10.6s-5.6-4.7-5.6-10.6
									S236.9,202.2,240,202.2z M278.2,255c4.4,0,8,6.8,8,15.2c0,8.4-3.6,15.2-8,15.2s-8-6.8-8-15.2S273.8,255,278.2,255z
									 M228.6,324.1c-1.5,0-2.8,2.4-2.8,5.3s1.2,5.3,2.8,5.3c1.5,0,2.8-2.4,2.8-5.3C231.3,326.5,230.1,324.1,228.6,324.1z
									 M187.2,321.8c1.9,0,3.4,2.9,3.4,6.4c0,3.6-1.5,6.4-3.4,6.4s-3.4-2.9-3.4-6.4C183.8,324.7,185.3,321.8,187.2,321.8z
									 M190,257.3c5.8,0,10.5,8.9,10.5,19.9s-4.7,19.9-10.5,19.9s-10.5-8.9-10.5-19.9C179.5,266.2,184.2,257.3,190,257.3z
									 M145.9,144.8c2.6,0,4.6,3.9,4.6,8.8c0,4.9-2.1,8.8-4.6,8.8c-2.6,0-4.6-3.9-4.6-8.8C141.2,148.7,143.3,144.8,145.9,144.8z
									 M100.2,215.1c0.9,0,1.5,1.3,1.5,2.9c0,1.6-0.7,2.9-1.5,2.9c-0.9,0-1.5-1.3-1.5-2.9C98.7,216.4,99.3,215.1,100.2,215.1z
									 M75.2,330c2,0,3.7,3.1,3.7,7s-1.7,7-3.7,7s-3.7-3.1-3.7-7S73.2,330,75.2,330z M135.4,346.4c2.9,0,5.2,4.5,5.2,10
									s-2.3,10-5.2,10s-5.2-4.5-5.2-10C130.1,350.9,132.5,346.4,135.4,346.4z M312.8,324.1c3.8,0,6.8,5.8,6.8,12.9
									s-3,12.9-6.8,12.9c-3.7,0-6.8-5.8-6.8-12.9S309,324.1,312.8,324.1z M357.2,243.2c4.8,0,8.6,7.4,8.6,16.4
									c0,9.1-3.9,16.4-8.6,16.4c-4.8,0-8.6-7.3-8.6-16.4C348.6,250.6,352.4,243.2,357.2,243.2z M422.3,255c2.2,0,4,3.4,4,7.6
									s-1.8,7.6-4,7.6s-4-3.4-4-7.6S420.1,255,422.3,255z M443,323c3.1,0,5.6,4.7,5.6,10.6c0,5.8-2.5,10.6-5.6,10.6
									s-5.6-4.7-5.6-10.6S439.9,323,443,323z M504.7,303c1.4,0,2.5,2.1,2.5,4.7s-1.1,4.7-2.5,4.7s-2.5-2.1-2.5-4.7
									S503.3,303,504.7,303z M551,267.9c0.7,0,1.2,1,1.2,2.3s-0.6,2.3-1.2,2.3s-1.2-1-1.2-2.3C549.7,268.9,550.3,267.9,551,267.9z
									 M585.5,252.6c5.8,0,10.5,8.9,10.5,19.9s-4.7,19.9-10.5,19.9s-10.5-8.9-10.5-19.9S579.7,252.6,585.5,252.6z M592.3,327.7
									c3.7,0,6.8,5.8,6.8,12.9s-3,12.9-6.8,12.9c-3.7,0-6.8-5.8-6.8-12.9C585.5,333.4,588.6,327.7,592.3,327.7z M551.9,339.4
									c1.2,0,2.2,1.8,2.2,4.1c0,2.3-1,4.1-2.2,4.1s-2.2-1.8-2.2-4.1C549.7,341.2,550.7,339.4,551.9,339.4z M528.4,209.2
									c0.9,0,1.5,1.3,1.5,2.9c0,1.6-0.7,2.9-1.5,2.9c-0.9,0-1.5-1.3-1.5-2.9S527.6,209.2,528.4,209.2z M496.7,156.5
									c2,0,3.7,3.2,3.7,7c0,3.9-1.7,7-3.7,7s-3.7-3.2-3.7-7C493,159.6,494.6,156.5,496.7,156.5z M480.9,232.7
									c2.9,0,5.2,4.5,5.2,10s-2.3,10-5.2,10c-2.9,0-5.2-4.5-5.2-10S478,232.7,480.9,232.7z M427.6,164.7c2,0,3.7,3.1,3.7,7
									s-1.7,7-3.7,7s-3.7-3.1-3.7-7S425.5,164.7,427.6,164.7z M373.3,181.1c2.4,0,4.3,3.7,4.3,8.2s-1.9,8.2-4.3,8.2
									s-4.3-3.7-4.3-8.2C368.9,184.8,370.9,181.1,373.3,181.1z M325.1,185.8c3.1,0,5.6,4.7,5.6,10.6c0,5.8-2.5,10.6-5.6,10.6
									s-5.6-4.7-5.6-10.6C319.6,190.5,322.1,185.8,325.1,185.8z M323.9,274.9c3.7,0,6.8,5.8,6.8,12.9s-3,12.9-6.8,12.9
									c-3.7,0-6.8-5.8-6.8-12.9S320.1,274.9,323.9,274.9z M388.1,333.5c3.7,0,6.8,5.8,6.8,12.9s-3,12.9-6.8,12.9
									s-6.8-5.8-6.8-12.9C381.3,339.3,384.3,333.5,388.1,333.5z M595.5,375.7c1.1,0,2,1.7,2,3.8c0,2.1-0.9,3.8-2,3.8s-2-1.7-2-3.8
									C593.5,377.4,594.4,375.7,595.5,375.7z M632.3,355.8c0.9,0,1.7,1.4,1.7,3.2c0,1.8-0.8,3.2-1.7,3.2s-1.7-1.4-1.7-3.2
									C630.6,357.2,631.3,355.8,632.3,355.8z M654.2,291.3c2.1,0,3.9,3.3,3.9,7.3s-1.7,7.3-3.9,7.3c-2.1,0-3.9-3.3-3.9-7.3
									C650.3,294.6,652,291.3,654.2,291.3z M677.5,336.4c1.4,0,2.5,2.1,2.5,4.7s-1.1,4.7-2.5,4.7s-2.5-2.1-2.5-4.7
									S676.1,336.4,677.5,336.4z M688.9,377.5c2.4,0,4.3,3.7,4.3,8.2s-1.9,8.2-4.3,8.2c-2.4,0-4.3-3.7-4.3-8.2
									C684.6,381.2,686.5,377.5,688.9,377.5z M635.5,289c1.7,0,3.1,2.6,3.1,5.9c0,3.2-1.4,5.9-3.1,5.9c-1.7,0-3.1-2.6-3.1-5.9
									S633.8,289,635.5,289z M663.6,228.6c1.4,0,2.5,2.1,2.5,4.7c0,2.6-1.1,4.7-2.5,4.7s-2.5-2.1-2.5-4.7
									C661.1,230.7,662.2,228.6,663.6,228.6z M607.9,204c2.3,0,4.2,3.5,4.2,7.9s-1.9,7.9-4.2,7.9s-4.2-3.5-4.2-7.9
									S605.6,204,607.9,204z M715.7,281.9c1.9,0,3.4,2.9,3.4,6.4c0,3.6-1.5,6.4-3.4,6.4s-3.4-2.9-3.4-6.4S713.8,281.9,715.7,281.9
									z M740.1,342.9c1.4,0,2.5,2.1,2.5,4.7s-1.1,4.7-2.5,4.7s-2.5-2.1-2.5-4.7S738.7,342.9,740.1,342.9z M783.3,265.5
									c1.7,0,3.1,2.6,3.1,5.9c0,3.2-1.4,5.9-3.1,5.9c-1.7,0-3.1-2.6-3.1-5.9S781.6,265.5,783.3,265.5z M736.7,164.7
									c3.2,0,5.9,5,5.9,11.1c0,6.2-2.6,11.1-5.9,11.1c-3.2,0-5.9-5-5.9-11.1S733.5,164.7,736.7,164.7z M750.9,250.3
									c2.2,0,4,3.4,4,7.6c0,4.2-1.8,7.6-4,7.6s-4-3.4-4-7.6C746.9,253.7,748.7,250.3,750.9,250.3z M766.6,317.1
									c3.1,0,5.6,4.7,5.6,10.6c0,5.8-2.5,10.6-5.6,10.6s-5.6-4.7-5.6-10.6C761.1,321.8,763.6,317.1,766.6,317.1z M749.7,373.4
									c-1.9,0-3.4,2.9-3.4,6.5s1.5,6.4,3.4,6.4s3.4-2.9,3.4-6.4C753.1,376.3,751.5,373.4,749.7,373.4z M710.5,195.2
									c2.7,0,4.9,4.2,4.9,9.4s-2.2,9.4-4.9,9.4s-4.9-4.2-4.9-9.4C705.5,199.4,707.7,195.2,710.5,195.2z M678.4,165.9
									c2,0,3.7,3.2,3.7,7c0,3.9-1.7,7-3.7,7s-3.7-3.1-3.7-7S676.3,165.9,678.4,165.9z M623.8,148.3c2.9,0,5.2,4.5,5.2,10
									s-2.4,10-5.2,10c-2.9,0-5.2-4.5-5.2-10S620.9,148.3,623.8,148.3z M570.4,177.6c2.4,0,4.3,3.7,4.3,8.2s-1.9,8.2-4.3,8.2
									c-2.4,0-4.3-3.7-4.3-8.2C566.1,181.3,568,177.6,570.4,177.6z M23.4,191.6c1.4,0,2.5,2.1,2.5,4.7c0,2.6-1.1,4.7-2.5,4.7
									s-2.5-2.1-2.5-4.7C20.9,193.7,22,191.6,23.4,191.6"/>
								<path class="st4" d="M38.2,507c4.8,0,8.6,7.3,8.6,16.4c0,9.1-3.9,16.4-8.6,16.4s-8.6-7.3-8.6-16.4
									C29.5,514.4,33.4,507,38.2,507z M70,580.9c2.9,0,5.2,4.5,5.2,10s-2.3,10-5.2,10c-2.9,0-5.2-4.5-5.2-10
									C64.7,585.3,67.1,580.9,70,580.9z M89.7,645.4c3.2,0,5.9,5,5.9,11.1c0,6.2-2.6,11.1-5.9,11.1c-3.2,0-5.9-5-5.9-11.1
									C83.9,650.4,86.5,645.4,89.7,645.4z M34.2,673.5c1.5,0,2.8,2.4,2.8,5.3c0,2.9-1.2,5.3-2.8,5.3s-2.8-2.4-2.8-5.3
									C31.4,675.9,32.6,673.5,34.2,673.5z M41.3,599.6c2,0,3.7,3.2,3.7,7c0,3.9-1.7,7-3.7,7s-3.7-3.2-3.7-7S39.2,599.6,41.3,599.6
									z M65,672.3c4.9,0,8.9,7.6,8.9,17s-4,17-8.9,17s-8.9-7.6-8.9-17C56.1,679.9,60.1,672.3,65,672.3z M165,658.3
									c3.2,0,5.9,5,5.9,11.1c0,6.2-2.6,11.1-5.9,11.1c-3.2,0-5.9-5-5.9-11.1C159.1,663.2,161.8,658.3,165,658.3z M173,532.8
									c6.6,0,12,10.2,12,22.9c0,12.6-5.4,22.9-12,22.9s-12-10.2-12-22.9S166.4,532.8,173,532.8z M101.7,488.3
									c5.8,0,10.5,8.9,10.5,19.9c0,11-4.7,19.9-10.5,19.9s-10.5-8.9-10.5-19.9C91.3,497.2,96,488.3,101.7,488.3z M124.3,569.2
									c2.2,0,4,3.4,4,7.6c0,4.2-1.8,7.6-4,7.6s-4-3.4-4-7.6C120.3,572.6,122.1,569.2,124.3,569.2z M244.3,621.9
									c2.7,0,4.9,4.2,4.9,9.4s-2.2,9.4-4.9,9.4s-4.9-4.2-4.9-9.4C239.4,626.1,241.6,621.9,244.3,621.9z M323.3,534
									c4.4,0,8,6.8,8,15.2s-3.6,15.2-8,15.2s-8-6.8-8-15.2C315.2,540.8,318.8,534,323.3,534z M275.1,458.9c4.4,0,8,6.8,8,15.2
									c0,8.4-3.6,15.2-8,15.2s-8-6.8-8-15.2C267.1,465.8,270.7,458.9,275.1,458.9z M234.7,516.4c2.9,0,5.2,4.5,5.2,10
									s-2.3,10-5.2,10s-5.2-4.5-5.2-10S231.8,516.4,234.7,516.4z M294,592.6c4.9,0,8.9,7.6,8.9,17s-4,17-8.9,17s-8.9-7.6-8.9-17
									C285,600.2,289,592.6,294,592.6z M317.7,681.7c5.5,0,9.9,8.4,9.9,18.8c0,10.4-4.4,18.8-9.9,18.8s-9.9-8.4-9.9-18.8
									C307.8,690.1,312.3,681.7,317.7,681.7z M407.2,646.5c9.9,0,17.9,15.2,17.9,34s-8,34-17.9,34s-17.9-15.2-17.9-34
									C389.3,661.8,397.3,646.5,407.2,646.5z M441.7,546.9c4.8,0,8.6,7.3,8.6,16.4c0,9.1-3.9,16.4-8.6,16.4
									c-4.8,0-8.6-7.3-8.6-16.4S437,546.9,441.7,546.9z M441.7,451.9c7.8,0,14.2,12.1,14.2,27s-6.4,27-14.2,27
									c-7.8,0-14.2-12.1-14.2-27C427.6,464,433.9,451.9,441.7,451.9z M381.3,461.3c4.1,0,7.4,6.3,7.4,14.1
									c0,7.8-3.3,14.1-7.4,14.1s-7.4-6.3-7.4-14.1C373.9,467.6,377.2,461.3,381.3,461.3z M386.8,546.9c3.7,0,6.8,5.8,6.8,12.9
									c0,7.1-3,12.9-6.8,12.9s-6.8-5.8-6.8-12.9S383.1,546.9,386.8,546.9z M474.1,594.9c6.3,0,11.4,9.7,11.4,21.7
									s-5.1,21.7-11.4,21.7s-11.4-9.7-11.4-21.7C462.7,604.7,467.8,594.9,474.1,594.9z M533.1,637.2c11.2,0,20.4,17.3,20.4,38.7
									s-9.1,38.7-20.4,38.7c-11.2,0-20.4-17.3-20.4-38.7C512.7,654.5,521.8,637.2,533.1,637.2z M550.7,536.3
									c8,0,14.5,12.3,14.5,27.6c0,15.2-6.5,27.6-14.5,27.6s-14.5-12.3-14.5-27.6C536.2,548.7,542.7,536.3,550.7,536.3z
									 M486.8,456.6c3.7,0,6.8,5.8,6.8,12.9s-3,12.9-6.8,12.9c-3.7,0-6.8-5.8-6.8-12.9S483,456.6,486.8,456.6z M558.7,470.7
									c4.9,0,8.9,7.6,8.9,17s-4,17-8.9,17s-8.9-7.6-8.9-17C549.7,478.3,553.7,470.7,558.7,470.7z M615.8,532.8
									c2.4,0,4.3,3.7,4.3,8.2s-1.9,8.2-4.3,8.2c-2.4,0-4.3-3.7-4.3-8.2C611.4,536.5,613.4,532.8,615.8,532.8z M649.1,598.5
									c6.1,0,11.1,9.5,11.1,21.1c0,11.7-5,21.1-11.1,21.1s-11.1-9.5-11.1-21.1C638,607.9,642.9,598.5,649.1,598.5z M605,682.9
									c3.9,0,7.1,6,7.1,13.5c0,7.4-3.2,13.5-7.1,13.5c-3.9,0-7.1-6-7.1-13.5S601,682.9,605,682.9z M688.6,677
									c1.7,0,3.1,2.6,3.1,5.9s-1.4,5.9-3.1,5.9c-1.7,0-3.1-2.6-3.1-5.9S686.9,677,688.6,677z M654.6,702.8c2,0,3.7,3.1,3.7,7
									s-1.7,7-3.7,7s-3.7-3.1-3.7-7C650.9,706,652.6,702.8,654.6,702.8z M601.9,602c2.6,0,4.6,3.9,4.6,8.8c0,4.9-2.1,8.8-4.6,8.8
									c-2.6,0-4.6-3.9-4.6-8.8C597.3,605.9,599.3,602,601.9,602z M662.7,531.6c2.7,0,4.9,4.2,4.9,9.4s-2.2,9.4-4.9,9.4
									s-4.9-4.2-4.9-9.4C657.7,535.8,659.9,531.6,662.7,531.6z M707.4,530.5c3.2,0,5.9,5,5.9,11.1s-2.6,11.1-5.9,11.1
									c-3.2,0-5.9-5-5.9-11.1S704.2,530.5,707.4,530.5z M727.5,606.7c2.7,0,4.9,4.2,4.9,9.4s-2.2,9.4-4.9,9.4s-4.9-4.2-4.9-9.4
									C722.5,610.9,724.7,606.7,727.5,606.7z M724.7,680.5c3.6,0,6.5,5.5,6.5,12.3s-2.9,12.3-6.5,12.3s-6.5-5.5-6.5-12.3
									S721.1,680.5,724.7,680.5z M761.7,585.6c2.9,0,5.2,4.5,5.2,10s-2.3,10-5.2,10s-5.2-4.5-5.2-10
									C756.5,590,758.8,585.6,761.7,585.6z M762.6,489.4c2,0,3.7,3.1,3.7,7s-1.7,7-3.7,7s-3.7-3.2-3.7-7S760.6,489.4,762.6,489.4z
									 M777.4,439c4.8,0,8.6,7.4,8.6,16.4c0,9.1-3.9,16.4-8.6,16.4c-4.8,0-8.6-7.4-8.6-16.4C768.8,446.4,772.7,439,777.4,439z
									 M765.7,534c-1.4,0-2.5,2.1-2.5,4.7c0,2.6,1.1,4.7,2.5,4.7s2.5-2.1,2.5-4.7S767.1,534,765.7,534z M706.2,473
									c2.9,0,5.2,4.5,5.2,10s-2.3,10-5.2,10s-5.2-4.5-5.2-10C700.9,477.5,703.3,473,706.2,473z M732.4,539.8
									c2.7,0,4.9,4.2,4.9,9.4s-2.2,9.4-4.9,9.4s-4.9-4.2-4.9-9.4S729.7,539.8,732.4,539.8z M23.1,441.4c4.3,0,7.7,6.6,7.7,14.7
									s-3.5,14.7-7.7,14.7s-7.7-6.6-7.7-14.7C15.4,447.9,18.8,441.4,23.1,441.4"/>
							</g>
							<path class="st5" d="M398.9,265.2c15.7,67.3,35,70.5,67.3,121c8.3,13.1,14.7,27.2,14.7,43.3c0,22.4-7.8,41.2-24,57.4
								c-16.2,15.7-35.5,24-57.9,24c-22.4,0-41.7-7.8-57.4-24c-16.2-15.7-24-35-24-57.4c0-16.2,6.2-30.2,14.7-43.3
								C364.5,335.7,383.9,332,398.9,265.2L398.9,265.2L398.9,265.2z"/>
							<path class="st6" d="M141.1,399.5"/>
							<path class="st6" d="M87,410"/>
							<path class="st6" d="M89.6,407.4"/>
							<path class="st6" d="M91,383.6"/>
							<path class="st7" d="M347.8,408.2c4.8-0.5,8.3,3.2,8.8,7.3c1.1,11,3.7,21.4,7.8,29.7c4.8,8.3,11,15.7,20.9,21.4
								c4.2,2.1,5.3,7.3,3.2,11.5c-2.1,4.2-7.3,5.3-11.5,3.2c-12.5-7.3-20.9-16.6-27.2-28.1c-5.7-11-8.8-23.5-9.9-36
								C340.1,412.4,343.1,408.2,347.8,408.2z"/>
						</g>
					</g>
				</g>
			</g>
		</g>
	</g>
	<g>
		
			<linearGradient id="SVGID_00000155126777241451586820000001223042111102231441_" gradientUnits="userSpaceOnUse" x1="1" y1="400.2" x2="800" y2="400.2" gradientTransform="matrix(1 0 0 -1 0 800)">
			<stop  offset="0" style="stop-color:#B3B3B3"/>
			<stop  offset="1" style="stop-color:#000000"/>
		</linearGradient>
		
			<ellipse id="SVGID_00000143618782934479339320000001048376687515247535_" style="fill:none;stroke:url(#SVGID_00000155126777241451586820000001223042111102231441_);stroke-width:23;stroke-miterlimit:10;" cx="400.5" cy="399.8" rx="388" ry="388.8"/>
	</g>
	<g id="blue_snake">
		<g>
			<g>
				<g>
					<g>
						<defs>
							<path id="SVGID_00000111172554853639385350000004889264274655980442_" d="M668.6,648.9c-61.9,67.8-232.6,12.7-381.3-123.1
								S68.2,225,130.1,157.2s232.6-12.7,381.3,123.1S730.5,581.1,668.6,648.9z M478.7,316C351.5,199.8,213.9,143.4,171.3,190
								s26.1,178.5,153.3,294.7s264.9,172.6,307.4,126C674.6,564.1,605.9,432.1,478.7,316z"/>
						</defs>
						<clipPath id="SVGID_00000174581135019393976850000007077382042124670902_">
							<use xlink:href="#SVGID_00000111172554853639385350000004889264274655980442_"  style="overflow:visible;"/>
						</clipPath>
						<g style="clip-path:url(#SVGID_00000174581135019393976850000007077382042124670902_);">
							<g>
								<g>
									<g>
										<g>
											<defs>
												<path id="SVGID_00000176761804639965613870000010061755494890349471_" d="M668.6,648.9
													c-61.9,67.8-232.6,12.7-381.3-123.1S68.2,225,130.1,157.2s232.6-12.7,381.3,123.1S730.5,581.1,668.6,648.9z M478.7,316
													C351.5,199.8,213.9,143.4,171.3,190s26.1,178.5,153.3,294.7s264.9,172.6,307.4,126C674.6,564.1,605.9,432.1,478.7,316z"
													/>
											</defs>
											<clipPath id="SVGID_00000163036995986241892030000015747868271960031661_">
												<use xlink:href="#SVGID_00000176761804639965613870000010061755494890349471_"  style="overflow:visible;"/>
											</clipPath>
											<g style="clip-path:url(#SVGID_00000163036995986241892030000015747868271960031661_);">
												<path class="st11" d="M588.9,722.1c-48.4,0-102.7-11.7-157-33.8c-56.2-22.8-112.6-57-163.2-98.8
													C184,519.7,121,434.3,91,348.8C76.4,307.3,70.5,268,73.3,232.2c2.9-37.1,15.2-69,36.5-94.7
													c33.7-40.8,86.8-62.4,153.7-62.4c48.4,0,102.7,11.7,157,33.8c56.2,22.8,112.6,57,163.2,98.8
													c84.5,69.8,147.6,155.3,177.6,240.7c14.6,41.5,20.5,80.8,17.7,116.6c-2.9,37.1-15.2,69-36.5,94.7
													C708.9,700.5,655.8,722.1,588.9,722.1z"/>
												<path class="st11" d="M263.5,75.6c48.3,0,102.6,11.7,156.8,33.8c27.7,11.3,55.4,25.2,82.4,41.5
													c27.8,16.7,54.9,36,80.7,57.2c42.7,35.2,80,74.5,110.7,116.6c29.7,40.7,52.2,82.4,66.7,123.9s20.5,80.6,17.6,116.4
													c-2.9,37-15.2,68.8-36.3,94.5c-16.9,20.5-39,36.3-65.6,46.8c-25.7,10.2-55.3,15.4-87.8,15.4
													c-48.3,0-102.6-11.7-156.8-33.7c-27.7-11.3-55.4-25.2-82.4-41.5c-27.8-16.7-54.9-36-80.7-57.2
													c-42.7-35.2-80-74.5-110.7-116.6c-29.7-40.7-52.2-82.4-66.7-123.9C76.9,307.2,71,268,73.8,232.2
													c2.9-37,15.2-68.8,36.3-94.5c16.9-20.5,39-36.3,65.6-46.8C201.4,80.7,231,75.6,263.5,75.6L263.5,75.6 M263.5,74.6
													c-64.4,0-119.3,20.3-154.1,62.5C22.2,242.8,93.3,445.5,268.3,589.9c105,86.7,223.7,132.7,320.6,132.7
													c64.4,0,119.3-20.3,154.1-62.5c87.2-105.7,16.1-308.4-158.9-452.8C479,120.5,360.4,74.6,263.5,74.6L263.5,74.6z"/>
											</g>
										</g>
									</g>
								</g>
							</g>
						</g>
					</g>
				</g>
			</g>
		</g>
		<g>
			<g>
				<g>
					<g>
						<defs>
							<path id="SVGID_00000043428755195856432030000012337079725742465172_" d="M668.6,648.9c-61.9,67.8-232.6,12.7-381.3-123.1
								S68.2,225,130.1,157.2s232.6-12.7,381.3,123.1S730.5,581.1,668.6,648.9z M478.7,316C351.5,199.8,213.9,143.4,171.3,190
								s26.1,178.5,153.3,294.7s264.9,172.6,307.4,126C674.6,564.1,605.9,432.1,478.7,316z"/>
						</defs>
						<clipPath id="SVGID_00000011720835075449501950000012405560096326027681_">
							<use xlink:href="#SVGID_00000043428755195856432030000012337079725742465172_"  style="overflow:visible;"/>
						</clipPath>
						<g style="clip-path:url(#SVGID_00000011720835075449501950000012405560096326027681_);">
							
								<ellipse transform="matrix(0.6365 -0.7712 0.7712 0.6365 -39.5757 338.5255)" class="st13" cx="339.4" cy="211.3" rx="21.4" ry="30.7"/>
						</g>
					</g>
				</g>
			</g>
		</g>
		<g>
			<g>
				<g>
					<g>
						<defs>
							<path id="SVGID_00000077323545918594482800000000176630957432251287_" d="M668.6,648.9c-61.9,67.8-232.6,12.7-381.3-123.1
								S68.2,225,130.1,157.2s232.6-12.7,381.3,123.1S730.5,581.1,668.6,648.9z M478.7,316C351.5,199.8,213.9,143.4,171.3,190
								s26.1,178.5,153.3,294.7s264.9,172.6,307.4,126C674.6,564.1,605.9,432.1,478.7,316z"/>
						</defs>
						<clipPath id="SVGID_00000181773246482357835440000002942087454154255508_">
							<use xlink:href="#SVGID_00000077323545918594482800000000176630957432251287_"  style="overflow:visible;"/>
						</clipPath>
						<g style="clip-path:url(#SVGID_00000181773246482357835440000002942087454154255508_);">
							
								<ellipse transform="matrix(0.9369 -0.3496 0.3496 0.9369 -83.4643 214.9808)" class="st13" cx="553.8" cy="338.7" rx="14.5" ry="19"/>
						</g>
					</g>
				</g>
			</g>
		</g>
		<g>
			<g>
				<g>
					<g>
						<defs>
							<path id="SVGID_00000075860838849855816890000016516046777900673701_" d="M668.6,648.9c-61.9,67.8-232.6,12.7-381.3-123.1
								S68.2,225,130.1,157.2s232.6-12.7,381.3,123.1S730.5,581.1,668.6,648.9z M478.7,316C351.5,199.8,213.9,143.4,171.3,190
								s26.1,178.5,153.3,294.7s264.9,172.6,307.4,126C674.6,564.1,605.9,432.1,478.7,316z"/>
						</defs>
						<clipPath id="SVGID_00000077300145271152683130000007769089034796467613_">
							<use xlink:href="#SVGID_00000075860838849855816890000016516046777900673701_"  style="overflow:visible;"/>
						</clipPath>
						<g style="clip-path:url(#SVGID_00000077300145271152683130000007769089034796467613_);">
							
								<ellipse transform="matrix(0.9369 -0.3496 0.3496 0.9369 -125.9834 246.0112)" class="st13" cx="618.5" cy="472" rx="14.5" ry="20.5"/>
						</g>
					</g>
				</g>
			</g>
		</g>
		<g>
			<g>
				<g>
					<g>
						<defs>
							<path id="SVGID_00000060722364728112050430000012964871467088600201_" d="M668.6,648.9c-61.9,67.8-232.6,12.7-381.3-123.1
								S68.2,225,130.1,157.2s232.6-12.7,381.3,123.1S730.5,581.1,668.6,648.9z M478.7,316C351.5,199.8,213.9,143.4,171.3,190
								s26.1,178.5,153.3,294.7s264.9,172.6,307.4,126C674.6,564.1,605.9,432.1,478.7,316z"/>
						</defs>
						<clipPath id="SVGID_00000049210093388189723170000009636443543863240869_">
							<use xlink:href="#SVGID_00000060722364728112050430000012964871467088600201_"  style="overflow:visible;"/>
						</clipPath>
						<g style="clip-path:url(#SVGID_00000049210093388189723170000009636443543863240869_);">
							
								<ellipse transform="matrix(8.703028e-03 -1 1 8.703028e-03 202.6175 645.4211)" class="st13" cx="426.8" cy="220.5" rx="20.2" ry="23"/>
						</g>
					</g>
				</g>
			</g>
		</g>
		<g>
			<g>
				<g>
					<g>
						<defs>
							<path id="SVGID_00000080173318596816153620000011183853593412319387_" d="M668.6,648.9c-61.9,67.8-232.6,12.7-381.3-123.1
								S68.2,225,130.1,157.2s232.6-12.7,381.3,123.1S730.5,581.1,668.6,648.9z M478.7,316C351.5,199.8,213.9,143.4,171.3,190
								s26.1,178.5,153.3,294.7s264.9,172.6,307.4,126C674.6,564.1,605.9,432.1,478.7,316z"/>
						</defs>
						<clipPath id="SVGID_00000108993660654451387320000013326883385655089567_">
							<use xlink:href="#SVGID_00000080173318596816153620000011183853593412319387_"  style="overflow:visible;"/>
						</clipPath>
						<g style="clip-path:url(#SVGID_00000108993660654451387320000013326883385655089567_);">
							
								<ellipse transform="matrix(0.9369 -0.3496 0.3496 0.9369 -79.3909 187.749)" class="st13" cx="480.4" cy="313.8" rx="19.5" ry="26"/>
						</g>
					</g>
				</g>
			</g>
		</g>
		<g>
			<g>
				<g>
					<g>
						<defs>
							<path id="SVGID_00000003098928143220331150000014623662658003282308_" d="M668.6,648.9c-61.9,67.8-232.6,12.7-381.3-123.1
								S68.2,225,130.1,157.2s232.6-12.7,381.3,123.1S730.5,581.1,668.6,648.9z M478.7,316C351.5,199.8,213.9,143.4,171.3,190
								s26.1,178.5,153.3,294.7s264.9,172.6,307.4,126C674.6,564.1,605.9,432.1,478.7,316z"/>
						</defs>
						<clipPath id="SVGID_00000026884393316819234370000002752449881728558217_">
							<use xlink:href="#SVGID_00000003098928143220331150000014623662658003282308_"  style="overflow:visible;"/>
						</clipPath>
						<g style="clip-path:url(#SVGID_00000026884393316819234370000002752449881728558217_);">
							
								<ellipse transform="matrix(0.9369 -0.3496 0.3496 0.9369 -146.332 270.8742)" class="st13" cx="677.2" cy="540.8" rx="14.5" ry="21.5"/>
						</g>
					</g>
				</g>
			</g>
		</g>
		<g>
			<g>
				<g>
					<g>
						<defs>
							<path id="SVGID_00000165915309026254346760000016717774374664167835_" d="M668.6,648.9c-61.9,67.8-232.6,12.7-381.3-123.1
								S68.2,225,130.1,157.2s232.6-12.7,381.3,123.1S730.5,581.1,668.6,648.9z M478.7,316C351.5,199.8,213.9,143.4,171.3,190
								s26.1,178.5,153.3,294.7s264.9,172.6,307.4,126C674.6,564.1,605.9,432.1,478.7,316z"/>
						</defs>
						<clipPath id="SVGID_00000037693042718028301070000003961359974730169782_">
							<use xlink:href="#SVGID_00000165915309026254346760000016717774374664167835_"  style="overflow:visible;"/>
						</clipPath>
						<g style="clip-path:url(#SVGID_00000037693042718028301070000003961359974730169782_);">
							
								<ellipse transform="matrix(0.9369 -0.3496 0.3496 0.9369 -178.7629 254.9962)" class="st13" cx="617" cy="622.7" rx="32.4" ry="19.2"/>
						</g>
					</g>
				</g>
			</g>
		</g>
		<g>
			<g>
				<g>
					<g>
						<defs>
							<path id="SVGID_00000163069153519951934080000002092901724544586157_" d="M668.6,648.9c-61.9,67.8-232.6,12.7-381.3-123.1
								S68.2,225,130.1,157.2s232.6-12.7,381.3,123.1S730.5,581.1,668.6,648.9z M478.7,316C351.5,199.8,213.9,143.4,171.3,190
								s26.1,178.5,153.3,294.7s264.9,172.6,307.4,126C674.6,564.1,605.9,432.1,478.7,316z"/>
						</defs>
						<clipPath id="SVGID_00000015333587019850978540000004376961621295234452_">
							<use xlink:href="#SVGID_00000163069153519951934080000002092901724544586157_"  style="overflow:visible;"/>
						</clipPath>
						<g style="clip-path:url(#SVGID_00000015333587019850978540000004376961621295234452_);">
							
								<ellipse transform="matrix(0.9369 -0.3496 0.3496 0.9369 -197.7193 222.5714)" class="st13" cx="517.7" cy="659" rx="27.7" ry="25.5"/>
						</g>
					</g>
				</g>
			</g>
		</g>
		<g>
			<g>
				<g>
					<g>
						<defs>
							<path id="SVGID_00000174592524048226358940000002070813283455321236_" d="M668.6,648.9c-61.9,67.8-232.6,12.7-381.3-123.1
								S68.2,225,130.1,157.2s232.6-12.7,381.3,123.1S730.5,581.1,668.6,648.9z M478.7,316C351.5,199.8,213.9,143.4,171.3,190
								s26.1,178.5,153.3,294.7s264.9,172.6,307.4,126C674.6,564.1,605.9,432.1,478.7,316z"/>
						</defs>
						<clipPath id="SVGID_00000106855324803421460810000004751711770075311751_">
							<use xlink:href="#SVGID_00000174592524048226358940000002070813283455321236_"  style="overflow:visible;"/>
						</clipPath>
						<g style="clip-path:url(#SVGID_00000106855324803421460810000004751711770075311751_);">
							
								<ellipse transform="matrix(0.9369 -0.3496 0.3496 0.9369 -174.0694 187.7991)" class="st13" cx="433.2" cy="576.1" rx="27.7" ry="25.5"/>
						</g>
					</g>
				</g>
			</g>
		</g>
		<g>
			<g>
				<g>
					<g>
						<defs>
							<path id="SVGID_00000168078869135003758820000006014964651008626074_" d="M668.6,648.9c-61.9,67.8-232.6,12.7-381.3-123.1
								S68.2,225,130.1,157.2s232.6-12.7,381.3,123.1S730.5,581.1,668.6,648.9z M478.7,316C351.5,199.8,213.9,143.4,171.3,190
								s26.1,178.5,153.3,294.7s264.9,172.6,307.4,126C674.6,564.1,605.9,432.1,478.7,316z"/>
						</defs>
						<clipPath id="SVGID_00000049205292353250137630000003785839526233896356_">
							<use xlink:href="#SVGID_00000168078869135003758820000006014964651008626074_"  style="overflow:visible;"/>
						</clipPath>
						<g style="clip-path:url(#SVGID_00000049205292353250137630000003785839526233896356_);">
							
								<ellipse transform="matrix(0.6818 -0.7316 0.7316 0.6818 -308.3419 419.3164)" class="st13" cx="327.8" cy="564.1" rx="26" ry="41.3"/>
						</g>
					</g>
				</g>
			</g>
		</g>
		<g>
			<g>
				<g>
					<g>
						<defs>
							<path id="SVGID_00000107570632393482840360000017765103458609559477_" d="M668.6,648.9c-61.9,67.8-232.6,12.7-381.3-123.1
								S68.2,225,130.1,157.2s232.6-12.7,381.3,123.1S730.5,581.1,668.6,648.9z M478.7,316C351.5,199.8,213.9,143.4,171.3,190
								s26.1,178.5,153.3,294.7s264.9,172.6,307.4,126C674.6,564.1,605.9,432.1,478.7,316z"/>
						</defs>
						<clipPath id="SVGID_00000057860354505615564590000013579652566216524422_">
							<use xlink:href="#SVGID_00000107570632393482840360000017765103458609559477_"  style="overflow:visible;"/>
						</clipPath>
						<g style="clip-path:url(#SVGID_00000057860354505615564590000013579652566216524422_);">
							
								<ellipse transform="matrix(0.9369 -0.3496 0.3496 0.9369 -131.7889 117.2473)" class="st13" cx="258.9" cy="423.7" rx="27.7" ry="39.8"/>
						</g>
					</g>
				</g>
			</g>
		</g>
		<g>
			<g>
				<g>
					<g>
						<defs>
							<path id="SVGID_00000065768000647485864120000014376709739864995507_" d="M668.6,648.9c-61.9,67.8-232.6,12.7-381.3-123.1
								S68.2,225,130.1,157.2s232.6-12.7,381.3,123.1S730.5,581.1,668.6,648.9z M478.7,316C351.5,199.8,213.9,143.4,171.3,190
								s26.1,178.5,153.3,294.7s264.9,172.6,307.4,126C674.6,564.1,605.9,432.1,478.7,316z"/>
						</defs>
						<clipPath id="SVGID_00000086650673705757786470000004453324839741277608_">
							<use xlink:href="#SVGID_00000065768000647485864120000014376709739864995507_"  style="overflow:visible;"/>
						</clipPath>
						<g style="clip-path:url(#SVGID_00000086650673705757786470000004453324839741277608_);">
							
								<ellipse transform="matrix(0.9369 -0.3496 0.3496 0.9369 -107.3521 68.4349)" class="st13" cx="135.9" cy="331.6" rx="27.7" ry="25.5"/>
						</g>
					</g>
				</g>
			</g>
		</g>
		<g>
			<g>
				<g>
					<g>
						<defs>
							<path id="SVGID_00000011735150919846311930000002164518267468548760_" d="M668.6,648.9c-61.9,67.8-232.6,12.7-381.3-123.1
								S68.2,225,130.1,157.2s232.6-12.7,381.3,123.1S730.5,581.1,668.6,648.9z M478.7,316C351.5,199.8,213.9,143.4,171.3,190
								s26.1,178.5,153.3,294.7s264.9,172.6,307.4,126C674.6,564.1,605.9,432.1,478.7,316z"/>
						</defs>
						<clipPath id="SVGID_00000016046194589119547120000010086015221408182947_">
							<use xlink:href="#SVGID_00000011735150919846311930000002164518267468548760_"  style="overflow:visible;"/>
						</clipPath>
						<g style="clip-path:url(#SVGID_00000016046194589119547120000010086015221408182947_);">
							
								<ellipse transform="matrix(0.9369 -0.3496 0.3496 0.9369 -61.8412 65.7798)" class="st13" cx="151.3" cy="204.2" rx="27.7" ry="25.5"/>
						</g>
					</g>
				</g>
			</g>
		</g>
		<g>
			<g>
				<g>
					<g>
						<defs>
							<path id="SVGID_00000116932450358147336470000010011753596161565594_" d="M668.6,648.9c-61.9,67.8-232.6,12.7-381.3-123.1
								S68.2,225,130.1,157.2s232.6-12.7,381.3,123.1S730.5,581.1,668.6,648.9z M478.7,316C351.5,199.8,213.9,143.4,171.3,190
								s26.1,178.5,153.3,294.7s264.9,172.6,307.4,126C674.6,564.1,605.9,432.1,478.7,316z"/>
						</defs>
						<clipPath id="SVGID_00000016757827163356967100000001544630238670677378_">
							<use xlink:href="#SVGID_00000116932450358147336470000010011753596161565594_"  style="overflow:visible;"/>
						</clipPath>
						<g style="clip-path:url(#SVGID_00000016757827163356967100000001544630238670677378_);">
							
								<ellipse transform="matrix(0.9369 -0.3496 0.3496 0.9369 -31.6967 87.9905)" class="st13" cx="227.9" cy="131.8" rx="27.7" ry="25.5"/>
						</g>
					</g>
				</g>
			</g>
		</g>
	</g>
	<g id="yellow_snake">
		<g>
			<g>
				<g>
					<g>
						<defs>
							<path id="SVGID_00000087402557074311927230000016365397902252121022_" d="M648.7,133.4c67.1,62.6,10.2,232.7-127.2,380
								S218.4,729.2,151.3,666.6s-10.2-232.7,127.2-380S581.6,70.8,648.7,133.4z M313.8,319.7c-117.6,125.9-175.4,262.9-129.3,306
								s178.8-24.2,296.3-150.1s175.4-263,129.3-306C564,126.5,431.3,193.8,313.8,319.7z"/>
						</defs>
						<clipPath id="SVGID_00000088820420041577633370000011856534178009889941_">
							<use xlink:href="#SVGID_00000087402557074311927230000016365397902252121022_"  style="overflow:visible;"/>
						</clipPath>
						<g style="clip-path:url(#SVGID_00000088820420041577633370000011856534178009889941_);">
							<g>
								<g>
									<g>
										<g>
											<defs>
												<path id="SVGID_00000112604447640830129690000010960583774011011715_" d="M648.7,133.4c67.1,62.6,10.2,232.7-127.2,380
													S218.4,729.2,151.3,666.6s-10.2-232.7,127.2-380S581.6,70.8,648.7,133.4z M313.8,319.7
													c-117.6,125.9-175.4,262.9-129.3,306s178.8-24.2,296.3-150.1s175.4-263,129.3-306C564,126.5,431.3,193.8,313.8,319.7z"
													/>
											</defs>
											<clipPath id="SVGID_00000050630471611748441570000004418389776196333982_">
												<use xlink:href="#SVGID_00000112604447640830129690000010960583774011011715_"  style="overflow:visible;"/>
											</clipPath>
											<g style="clip-path:url(#SVGID_00000050630471611748441570000004418389776196333982_);">
												<path class="st29" d="M721.1,213.9c-0.5,48.4-12.8,102.6-35.5,156.6c-23.4,56-58.2,112-100.5,162.1
													c-70.7,83.9-156.8,146-242.6,175.1c-41.7,14.2-81,19.6-116.8,16.5c-37.1-3.3-68.8-15.9-94.3-37.5
													C91,652.6,69.9,599.2,70.6,532.3c0.5-48.4,12.8-102.6,35.5-156.6c23.4-56,58.2-112,100.5-162.1
													c70.7-83.7,156.9-145.9,242.6-175c41.7-14.2,81-19.6,116.8-16.5c37.1,3.3,68.8,15.9,94.3,37.5
													C700.7,93.6,721.8,147,721.1,213.9z"/>
												<path class="st29" d="M71.1,532.3c0.5-48.3,12.8-102.5,35.5-156.4c11.6-27.6,25.8-55.1,42.4-82
													c17-27.6,36.6-54.5,58.1-80.1c35.7-42.3,75.4-79.2,117.8-109.4c41-29.3,83-51.3,124.6-65.4S530.2,19.4,566,22.7
													c37,3.3,68.6,15.9,94.1,37.3c20.3,17.1,35.9,39.4,46.1,66.1c9.9,25.8,14.8,55.5,14.5,88
													c-0.5,48.3-12.8,102.5-35.4,156.4c-11.6,27.6-25.8,55.1-42.4,82c-17,27.6-36.6,54.5-58.1,80.1
													C549.1,574.9,509.4,611.8,467,642c-41,29.3-83,51.3-124.6,65.4c-41.8,14.1-81,19.5-116.8,16.4
													c-37-3.3-68.6-15.9-94.1-37.3c-20.3-17.1-35.9-39.4-46.1-66.1C75.6,594.5,70.8,564.8,71.1,532.3L71.1,532.3 M70.1,532.3
													c-0.7,64.4,19,119.5,60.8,154.8c104.8,88.3,308.2,19.4,454.5-154C673.3,429,720.5,310.8,721.6,213.9
													c0.7-64.4-19-119.5-60.8-154.8C556-29.2,352.6,39.7,206.3,213.1C118.3,317.3,71.2,435.4,70.1,532.3L70.1,532.3z"/>
											</g>
										</g>
									</g>
								</g>
							</g>
						</g>
					</g>
				</g>
			</g>
		</g>
		<g>
			<g>
				<g>
					<g>
						<defs>
							<path id="SVGID_00000111159314692375616210000006732806129895308174_" d="M648.7,133.4c67.1,62.6,10.2,232.7-127.2,380
								S218.4,729.2,151.3,666.6s-10.2-232.7,127.2-380S581.6,70.8,648.7,133.4z M313.8,319.7c-117.6,125.9-175.4,262.9-129.3,306
								s178.8-24.2,296.3-150.1s175.4-263,129.3-306C564,126.5,431.3,193.8,313.8,319.7z"/>
						</defs>
						<clipPath id="SVGID_00000042721930048217119270000004133474769132846266_">
							<use xlink:href="#SVGID_00000111159314692375616210000006732806129895308174_"  style="overflow:visible;"/>
						</clipPath>
						<g style="clip-path:url(#SVGID_00000042721930048217119270000004133474769132846266_);">
							
								<ellipse transform="matrix(0.6448 -0.7644 0.7644 0.6448 -276.2555 321.2435)" class="st31" cx="207.5" cy="457.8" rx="30.7" ry="21.4"/>
						</g>
					</g>
				</g>
			</g>
		</g>
		<g>
			<g>
				<g>
					<g>
						<defs>
							<path id="SVGID_00000050626815281539769830000006415660550034714525_" d="M648.7,133.4c67.1,62.6,10.2,232.7-127.2,380
								S218.4,729.2,151.3,666.6s-10.2-232.7,127.2-380S581.6,70.8,648.7,133.4z M313.8,319.7c-117.6,125.9-175.4,262.9-129.3,306
								s178.8-24.2,296.3-150.1s175.4-263,129.3-306C564,126.5,431.3,193.8,313.8,319.7z"/>
						</defs>
						<clipPath id="SVGID_00000153684519643132098840000008752044661618244247_">
							<use xlink:href="#SVGID_00000050626815281539769830000006415660550034714525_"  style="overflow:visible;"/>
						</clipPath>
						<g style="clip-path:url(#SVGID_00000153684519643132098840000008752044661618244247_);">
							
								<ellipse transform="matrix(0.9406 -0.3396 0.3396 0.9406 -63.1228 129.1008)" class="st31" cx="337.3" cy="244.9" rx="19" ry="14.5"/>
						</g>
					</g>
				</g>
			</g>
		</g>
		<g>
			<g>
				<g>
					<g>
						<defs>
							<path id="SVGID_00000173849239711037046230000012210671752846774663_" d="M648.7,133.4c67.1,62.6,10.2,232.7-127.2,380
								S218.4,729.2,151.3,666.6s-10.2-232.7,127.2-380S581.6,70.8,648.7,133.4z M313.8,319.7c-117.6,125.9-175.4,262.9-129.3,306
								s178.8-24.2,296.3-150.1s175.4-263,129.3-306C564,126.5,431.3,193.8,313.8,319.7z"/>
						</defs>
						<clipPath id="SVGID_00000082329200391492030490000011316166863503018891_">
							<use xlink:href="#SVGID_00000173849239711037046230000012210671752846774663_"  style="overflow:visible;"/>
						</clipPath>
						<g style="clip-path:url(#SVGID_00000082329200391492030490000011316166863503018891_);">
							
								<ellipse transform="matrix(0.9406 -0.3396 0.3396 0.9406 -33.663 170.8455)" class="st31" cx="471.3" cy="181.6" rx="20.5" ry="14.5"/>
						</g>
					</g>
				</g>
			</g>
		</g>
		<g>
			<g>
				<g>
					<g>
						<defs>
							<path id="SVGID_00000011018178997281932530000002628018718834543799_" d="M648.7,133.4c67.1,62.6,10.2,232.7-127.2,380
								S218.4,729.2,151.3,666.6s-10.2-232.7,127.2-380S581.6,70.8,648.7,133.4z M313.8,319.7c-117.6,125.9-175.4,262.9-129.3,306
								s178.8-24.2,296.3-150.1s175.4-263,129.3-306C564,126.5,431.3,193.8,313.8,319.7z"/>
						</defs>
						<clipPath id="SVGID_00000090978549938243460590000002864417058564465805_">
							<use xlink:href="#SVGID_00000011018178997281932530000002628018718834543799_"  style="overflow:visible;"/>
						</clipPath>
						<g style="clip-path:url(#SVGID_00000090978549938243460590000002864417058564465805_);">
							
								<ellipse transform="matrix(1.940068e-02 -0.9998 0.9998 1.940068e-02 -157.1232 581.4319)" class="st31" cx="217.9" cy="370.8" rx="23" ry="20.2"/>
						</g>
					</g>
				</g>
			</g>
		</g>
		<g>
			<g>
				<g>
					<g>
						<defs>
							<path id="SVGID_00000064328615878146446030000016150367278257061547_" d="M648.7,133.4c67.1,62.6,10.2,232.7-127.2,380
								S218.4,729.2,151.3,666.6s-10.2-232.7,127.2-380S581.6,70.8,648.7,133.4z M313.8,319.7c-117.6,125.9-175.4,262.9-129.3,306
								s178.8-24.2,296.3-150.1s175.4-263,129.3-306C564,126.5,431.3,193.8,313.8,319.7z"/>
						</defs>
						<clipPath id="SVGID_00000019673219754958636120000011794016220919273616_">
							<use xlink:href="#SVGID_00000064328615878146446030000016150367278257061547_"  style="overflow:visible;"/>
						</clipPath>
						<g style="clip-path:url(#SVGID_00000019673219754958636120000011794016220919273616_);">
							
								<ellipse transform="matrix(0.9406 -0.3396 0.3396 0.9406 -89.4692 124.7511)" class="st31" cx="311.7" cy="318" rx="26" ry="19.5"/>
						</g>
					</g>
				</g>
			</g>
		</g>
		<g>
			<g>
				<g>
					<g>
						<defs>
							<path id="SVGID_00000052091551140332229280000017336590965633031556_" d="M648.7,133.4c67.1,62.6,10.2,232.7-127.2,380
								S218.4,729.2,151.3,666.6s-10.2-232.7,127.2-380S581.6,70.8,648.7,133.4z M313.8,319.7c-117.6,125.9-175.4,262.9-129.3,306
								s178.8-24.2,296.3-150.1s175.4-263,129.3-306C564,126.5,431.3,193.8,313.8,319.7z"/>
						</defs>
						<clipPath id="SVGID_00000145037825513755161280000010246580269998636471_">
							<use xlink:href="#SVGID_00000052091551140332229280000017336590965633031556_"  style="overflow:visible;"/>
						</clipPath>
						<g style="clip-path:url(#SVGID_00000145037825513755161280000010246580269998636471_);">
							
								<ellipse transform="matrix(0.9406 -0.3396 0.3396 0.9406 -9.8363 191.0008)" class="st31" cx="540.8" cy="123.6" rx="21.5" ry="14.5"/>
						</g>
					</g>
				</g>
			</g>
		</g>
		<g>
			<g>
				<g>
					<g>
						<defs>
							<path id="SVGID_00000143607184675073069930000017090795934243161733_" d="M648.7,133.4c67.1,62.6,10.2,232.7-127.2,380
								S218.4,729.2,151.3,666.6s-10.2-232.7,127.2-380S581.6,70.8,648.7,133.4z M313.8,319.7c-117.6,125.9-175.4,262.9-129.3,306
								s178.8-24.2,296.3-150.1s175.4-263,129.3-306C564,126.5,431.3,193.8,313.8,319.7z"/>
						</defs>
						<clipPath id="SVGID_00000095311089136693210510000017171042600771458743_">
							<use xlink:href="#SVGID_00000143607184675073069930000017090795934243161733_"  style="overflow:visible;"/>
						</clipPath>
						<g style="clip-path:url(#SVGID_00000095311089136693210510000017171042600771458743_);">
							
								<ellipse transform="matrix(0.9406 -0.3396 0.3396 0.9406 -25.7601 222.2074)" class="st31" cx="622" cy="184.7" rx="19.2" ry="32.4"/>
						</g>
					</g>
				</g>
			</g>
		</g>
		<g>
			<g>
				<g>
					<g>
						<defs>
							<path id="SVGID_00000132790628684899378360000013392016808582472108_" d="M648.7,133.4c67.1,62.6,10.2,232.7-127.2,380
								S218.4,729.2,151.3,666.6s-10.2-232.7,127.2-380S581.6,70.8,648.7,133.4z M313.8,319.7c-117.6,125.9-175.4,262.9-129.3,306
								s178.8-24.2,296.3-150.1s175.4-263,129.3-306C564,126.5,431.3,193.8,313.8,319.7z"/>
						</defs>
						<clipPath id="SVGID_00000039134744077240504530000011868096473913698952_">
							<use xlink:href="#SVGID_00000132790628684899378360000013392016808582472108_"  style="overflow:visible;"/>
						</clipPath>
						<g style="clip-path:url(#SVGID_00000039134744077240504530000011868096473913698952_);">
							
								<ellipse transform="matrix(0.9406 -0.3396 0.3396 0.9406 -57.5263 240.0863)" class="st31" cx="657.2" cy="284.4" rx="25.5" ry="27.7"/>
						</g>
					</g>
				</g>
			</g>
		</g>
		<g>
			<g>
				<g>
					<g>
						<defs>
							<path id="SVGID_00000049914333144386413560000005896266517781799061_" d="M648.7,133.4c67.1,62.6,10.2,232.7-127.2,380
								S218.4,729.2,151.3,666.6s-10.2-232.7,127.2-380S581.6,70.8,648.7,133.4z M313.8,319.7c-117.6,125.9-175.4,262.9-129.3,306
								s178.8-24.2,296.3-150.1s175.4-263,129.3-306C564,126.5,431.3,193.8,313.8,319.7z"/>
						</defs>
						<clipPath id="SVGID_00000154415676713240073050000009721564625594159495_">
							<use xlink:href="#SVGID_00000049914333144386413560000005896266517781799061_"  style="overflow:visible;"/>
						</clipPath>
						<g style="clip-path:url(#SVGID_00000154415676713240073050000009721564625594159495_);">
							
								<ellipse transform="matrix(0.9406 -0.3396 0.3396 0.9406 -90.8968 216.596)" class="st31" cx="573.4" cy="368" rx="25.5" ry="27.7"/>
						</g>
					</g>
				</g>
			</g>
		</g>
		<g>
			<g>
				<g>
					<g>
						<defs>
							<path id="SVGID_00000153705336457019197250000013181668178942262175_" d="M648.7,133.4c67.1,62.6,10.2,232.7-127.2,380
								S218.4,729.2,151.3,666.6s-10.2-232.7,127.2-380S581.6,70.8,648.7,133.4z M313.8,319.7c-117.6,125.9-175.4,262.9-129.3,306
								s178.8-24.2,296.3-150.1s175.4-263,129.3-306C564,126.5,431.3,193.8,313.8,319.7z"/>
						</defs>
						<clipPath id="SVGID_00000079475447726175080460000001225042237803450264_">
							<use xlink:href="#SVGID_00000153705336457019197250000013181668178942262175_"  style="overflow:visible;"/>
						</clipPath>
						<g style="clip-path:url(#SVGID_00000079475447726175080460000001225042237803450264_);">
							
								<ellipse transform="matrix(0.6896 -0.7242 0.7242 0.6896 -169.0354 552.7802)" class="st31" cx="560.3" cy="473.6" rx="41.3" ry="26"/>
						</g>
					</g>
				</g>
			</g>
		</g>
		<g>
			<g>
				<g>
					<g>
						<defs>
							<path id="SVGID_00000170978800041181951340000004088328063771353224_" d="M648.7,133.4c67.1,62.6,10.2,232.7-127.2,380
								S218.4,729.2,151.3,666.6s-10.2-232.7,127.2-380S581.6,70.8,648.7,133.4z M313.8,319.7c-117.6,125.9-175.4,262.9-129.3,306
								s178.8-24.2,296.3-150.1s175.4-263,129.3-306C564,126.5,431.3,193.8,313.8,319.7z"/>
						</defs>
						<clipPath id="SVGID_00000003791699513042368220000016204365578327157126_">
							<use xlink:href="#SVGID_00000170978800041181951340000004088328063771353224_"  style="overflow:visible;"/>
						</clipPath>
						<g style="clip-path:url(#SVGID_00000003791699513042368220000016204365578327157126_);">
							
								<ellipse transform="matrix(0.9406 -0.3396 0.3396 0.9406 -158.7095 174.4926)" class="st31" cx="419.2" cy="540.7" rx="39.8" ry="27.7"/>
						</g>
					</g>
				</g>
			</g>
		</g>
		<g>
			<g>
				<g>
					<g>
						<defs>
							<path id="SVGID_00000156547255830028547620000009839356669463071364_" d="M648.7,133.4c67.1,62.6,10.2,232.7-127.2,380
								S218.4,729.2,151.3,666.6s-10.2-232.7,127.2-380S581.6,70.8,648.7,133.4z M313.8,319.7c-117.6,125.9-175.4,262.9-129.3,306
								s178.8-24.2,296.3-150.1s175.4-263,129.3-306C564,126.5,431.3,193.8,313.8,319.7z"/>
						</defs>
						<clipPath id="SVGID_00000174595611276730320160000003384747180782121403_">
							<use xlink:href="#SVGID_00000156547255830028547620000009839356669463071364_"  style="overflow:visible;"/>
						</clipPath>
						<g style="clip-path:url(#SVGID_00000174595611276730320160000003384747180782121403_);">
							
								<ellipse transform="matrix(0.9406 -0.3396 0.3396 0.9406 -205.6968 149.9905)" class="st31" cx="325.7" cy="662.7" rx="25.5" ry="27.7"/>
						</g>
					</g>
				</g>
			</g>
		</g>
		<g>
			<g>
				<g>
					<g>
						<defs>
							<path id="SVGID_00000110467945119969135980000011918987170927986830_" d="M648.7,133.4c67.1,62.6,10.2,232.7-127.2,380
								S218.4,729.2,151.3,666.6s-10.2-232.7,127.2-380S581.6,70.8,648.7,133.4z M313.8,319.7c-117.6,125.9-175.4,262.9-129.3,306
								s178.8-24.2,296.3-150.1s175.4-263,129.3-306C564,126.5,431.3,193.8,313.8,319.7z"/>
						</defs>
						<clipPath id="SVGID_00000131332262815873737220000004867246946844698781_">
							<use xlink:href="#SVGID_00000110467945119969135980000011918987170927986830_"  style="overflow:visible;"/>
						</clipPath>
						<g style="clip-path:url(#SVGID_00000131332262815873737220000004867246946844698781_);">
							
								<ellipse transform="matrix(0.9406 -0.3396 0.3396 0.9406 -207.5509 105.795)" class="st31" cx="198.5" cy="645.9" rx="25.5" ry="27.7"/>
						</g>
					</g>
				</g>
			</g>
		</g>
		<g>
			<g>
				<g>
					<g>
						<defs>
							<path id="SVGID_00000017504198279704772270000009512291523940151965_" d="M648.7,133.4c67.1,62.6,10.2,232.7-127.2,380
								S218.4,729.2,151.3,666.6s-10.2-232.7,127.2-380S581.6,70.8,648.7,133.4z M313.8,319.7c-117.6,125.9-175.4,262.9-129.3,306
								s178.8-24.2,296.3-150.1s175.4-263,129.3-306C564,126.5,431.3,193.8,313.8,319.7z"/>
						</defs>
						<clipPath id="SVGID_00000117649962965434857970000002396579477460123522_">
							<use xlink:href="#SVGID_00000017504198279704772270000009512291523940151965_"  style="overflow:visible;"/>
						</clipPath>
						<g style="clip-path:url(#SVGID_00000117649962965434857970000002396579477460123522_);">
							
								<ellipse transform="matrix(0.9406 -0.3396 0.3396 0.9406 -185.5545 76.8857)" class="st31" cx="126.9" cy="568.6" rx="25.5" ry="27.7"/>
						</g>
					</g>
				</g>
			</g>
		</g>
		<g>
			<path id="SVGID_00000113347834597533046630000015558874869071291301_" class="st45" d="M648.7,133.4
				c67.1,62.6,10.2,232.7-127.2,380S218.4,729.2,151.3,666.6s-10.2-232.7,127.2-380S581.6,70.8,648.7,133.4z M313.8,319.7
				c-117.6,125.9-175.4,262.9-129.3,306s178.8-24.2,296.3-150.1s175.4-263,129.3-306C564,126.5,431.3,193.8,313.8,319.7z"/>
		</g>
	</g>
</g>
<g>
	<g>
		<g>
			<g>
				<defs>
					<ellipse id="SVGID_00000010292925945862869770000012211692833464126118_" cx="556" cy="626" rx="313" ry="115"/>
				</defs>
				<clipPath id="SVGID_00000129903119831931483810000004878270423944300978_">
					<use xlink:href="#SVGID_00000010292925945862869770000012211692833464126118_"  style="overflow:visible;"/>
				</clipPath>
				<g id="blue_snake_front" style="clip-path:url(#SVGID_00000129903119831931483810000004878270423944300978_);">
					<g>
						<g>
							<g>
								<g>
									<defs>
										<path id="SVGID_00000149367280430746178490000017938375267636904607_" d="M670.9,650.8c-61.9,67.8-232.6,12.7-381.3-123.1
											S70.5,226.9,132.4,159.1S365,146.4,513.7,282.2S732.8,583,670.9,650.8z M481,317.9c-127.2-116.2-264.8-172.6-307.4-126
											s26.1,178.5,153.3,294.7s264.9,172.6,307.4,126C676.9,566,608.2,434,481,317.9z"/>
									</defs>
									<clipPath id="SVGID_00000049937084939396308810000005147535375045689218_">
										<use xlink:href="#SVGID_00000149367280430746178490000017938375267636904607_"  style="overflow:visible;"/>
									</clipPath>
									<g style="clip-path:url(#SVGID_00000049937084939396308810000005147535375045689218_);">
										<g>
											<g>
												<g>
													<g>
														<path id="SVGID_00000098936088111485864500000012983887306626462906_" class="st11" d="M670.9,650.8
															c-61.9,67.8-232.6,12.7-381.3-123.1S70.5,226.9,132.4,159.1S365,146.4,513.7,282.2S732.8,583,670.9,650.8z M481,317.9
															c-127.2-116.2-264.8-172.6-307.4-126s26.1,178.5,153.3,294.7s264.9,172.6,307.4,126C676.9,566,608.2,434,481,317.9z"
															/>
													</g>
													<g>
														<defs>
															<path id="SVGID_00000182519749827014632780000016732034392082958752_" d="M670.9,650.8
																c-61.9,67.8-232.6,12.7-381.3-123.1S70.5,226.9,132.4,159.1S365,146.4,513.7,282.2S732.8,583,670.9,650.8z
																 M481,317.9c-127.2-116.2-264.8-172.6-307.4-126s26.1,178.5,153.3,294.7s264.9,172.6,307.4,126
																C676.9,566,608.2,434,481,317.9z"/>
														</defs>
														<clipPath id="SVGID_00000088837701751131459610000000574253837987775632_">
															<use xlink:href="#SVGID_00000182519749827014632780000016732034392082958752_"  style="overflow:visible;"/>
														</clipPath>
														<g style="clip-path:url(#SVGID_00000088837701751131459610000000574253837987775632_);">
															<path class="st11" d="M591.2,724c-48.4,0-102.7-11.7-157-33.8c-56.2-22.8-112.6-57-163.2-98.8
																c-84.7-69.8-147.7-155.2-177.7-240.7c-14.6-41.5-20.5-80.8-17.7-116.6c2.9-37.1,15.2-69,36.5-94.7
																C145.8,98.6,198.9,77,265.8,77c48.4,0,102.7,11.7,157,33.8c56.2,22.8,112.6,57,163.2,98.8
																c84.5,69.8,147.6,155.3,177.6,240.7c14.6,41.5,20.5,80.8,17.7,116.6c-2.9,37.1-15.2,69-36.5,94.7
																C711.2,702.4,658.1,724,591.2,724z"/>
															<path class="st11" d="M265.8,77.5c48.3,0,102.6,11.7,156.8,33.8c27.7,11.3,55.4,25.2,82.4,41.5
																c27.8,16.7,54.9,36,80.7,57.2c42.7,35.2,80,74.5,110.7,116.6c29.7,40.7,52.2,82.4,66.7,123.9s20.5,80.6,17.6,116.4
																c-2.9,37-15.2,68.8-36.3,94.5c-16.9,20.5-39,36.3-65.6,46.8c-25.7,10.2-55.3,15.4-87.8,15.4
																c-48.3,0-102.6-11.7-156.8-33.7c-27.7-11.3-55.4-25.2-82.4-41.5c-27.8-16.7-54.9-36-80.7-57.2
																c-42.7-35.2-80-74.5-110.7-116.6c-29.7-40.7-52.2-82.4-66.7-123.9c-14.5-41.6-20.4-80.8-17.6-116.6
																c2.9-37,15.2-68.8,36.3-94.5c16.9-20.5,39-36.3,65.6-46.8C203.7,82.6,233.3,77.5,265.8,77.5L265.8,77.5 M265.8,76.5
																c-64.4,0-119.3,20.3-154.1,62.5C24.5,244.7,95.6,447.4,270.6,591.8c105,86.7,223.7,132.7,320.6,132.7
																c64.4,0,119.3-20.3,154.1-62.5c87.2-105.7,16.1-308.4-158.9-452.8C481.3,122.4,362.7,76.5,265.8,76.5L265.8,76.5z"/>
														</g>
													</g>
												</g>
											</g>
										</g>
									</g>
								</g>
							</g>
						</g>
					</g>
					<g>
						<g>
							<g>
								<g>
									<ellipse transform="matrix(0.6365 -0.7712 0.7712 0.6365 -40.205 340.9898)" cx="341.7" cy="213.2" rx="21.4" ry="30.7"/>
								</g>
							</g>
						</g>
					</g>
					<g>
						<g>
							<g>
								<g>
									<ellipse transform="matrix(0.9369 -0.3496 0.3496 0.9369 -83.9835 215.9047)" cx="556.1" cy="340.6" rx="14.5" ry="19"/>
								</g>
							</g>
						</g>
					</g>
					<g>
						<g>
							<g>
								<g>
									
										<ellipse transform="matrix(0.9369 -0.3496 0.3496 0.9369 -126.5025 246.9352)" cx="620.8" cy="473.9" rx="14.5" ry="20.5"/>
								</g>
							</g>
						</g>
					</g>
					<g>
						<g>
							<g>
								<g>
									<ellipse transform="matrix(8.703028e-03 -1 1 8.703028e-03 202.9978 649.6048)" cx="429.1" cy="222.4" rx="20.2" ry="23"/>
								</g>
							</g>
						</g>
					</g>
					<g>
						<g>
							<g>
								<g>
									<ellipse transform="matrix(0.9369 -0.3496 0.3496 0.9369 -79.91 188.673)" cx="482.7" cy="315.7" rx="19.5" ry="26"/>
								</g>
							</g>
						</g>
					</g>
					<g>
						<g>
							<g>
								<g>
									<defs>
										<path id="SVGID_00000126313879774805723120000013853339476688086462_" d="M670.9,650.8c-61.9,67.8-232.6,12.7-381.3-123.1
											S70.5,226.9,132.4,159.1S365,146.4,513.7,282.2S732.8,583,670.9,650.8z M481,317.9c-127.2-116.2-264.8-172.6-307.4-126
											s26.1,178.5,153.3,294.7s264.9,172.6,307.4,126C676.9,566,608.2,434,481,317.9z"/>
									</defs>
									<clipPath id="SVGID_00000005234576434939002060000016892249327666144136_">
										<use xlink:href="#SVGID_00000126313879774805723120000013853339476688086462_"  style="overflow:visible;"/>
									</clipPath>
									<g style="clip-path:url(#SVGID_00000005234576434939002060000016892249327666144136_);">
										
											<ellipse transform="matrix(0.9369 -0.3496 0.3496 0.9369 -146.8511 271.7982)" class="st13" cx="679.5" cy="542.7" rx="14.5" ry="21.5"/>
									</g>
								</g>
							</g>
						</g>
					</g>
					<g>
						<g>
							<g>
								<g>
									<defs>
										<path id="SVGID_00000038399681887957669410000009951697882807179440_" d="M670.9,650.8c-61.9,67.8-232.6,12.7-381.3-123.1
											S70.5,226.9,132.4,159.1S365,146.4,513.7,282.2S732.8,583,670.9,650.8z M481,317.9c-127.2-116.2-264.8-172.6-307.4-126
											s26.1,178.5,153.3,294.7s264.9,172.6,307.4,126C676.9,566,608.2,434,481,317.9z"/>
									</defs>
									<clipPath id="SVGID_00000163036333943451225100000003486075923698746757_">
										<use xlink:href="#SVGID_00000038399681887957669410000009951697882807179440_"  style="overflow:visible;"/>
									</clipPath>
									<g style="clip-path:url(#SVGID_00000163036333943451225100000003486075923698746757_);">
										
											<ellipse transform="matrix(0.9369 -0.3496 0.3496 0.9369 -179.282 255.9202)" class="st13" cx="619.3" cy="624.6" rx="32.4" ry="19.2"/>
									</g>
								</g>
							</g>
						</g>
					</g>
					<g>
						<g>
							<g>
								<g>
									<defs>
										<path id="SVGID_00000034807328907576098930000001396447355084237494_" d="M670.9,650.8c-61.9,67.8-232.6,12.7-381.3-123.1
											S70.5,226.9,132.4,159.1S365,146.4,513.7,282.2S732.8,583,670.9,650.8z M481,317.9c-127.2-116.2-264.8-172.6-307.4-126
											s26.1,178.5,153.3,294.7s264.9,172.6,307.4,126C676.9,566,608.2,434,481,317.9z"/>
									</defs>
									<clipPath id="SVGID_00000125593970074450307850000010751514147946514075_">
										<use xlink:href="#SVGID_00000034807328907576098930000001396447355084237494_"  style="overflow:visible;"/>
									</clipPath>
									<g style="clip-path:url(#SVGID_00000125593970074450307850000010751514147946514075_);">
										
											<ellipse transform="matrix(0.9369 -0.3496 0.3496 0.9369 -198.2384 223.4953)" class="st13" cx="520" cy="660.9" rx="27.7" ry="25.5"/>
									</g>
								</g>
							</g>
						</g>
					</g>
					<g>
						<g>
							<g>
								<g>
									<defs>
										<path id="SVGID_00000168798187388683672000000011659571841223330989_" d="M670.9,650.8c-61.9,67.8-232.6,12.7-381.3-123.1
											S70.5,226.9,132.4,159.1S365,146.4,513.7,282.2S732.8,583,670.9,650.8z M481,317.9c-127.2-116.2-264.8-172.6-307.4-126
											s26.1,178.5,153.3,294.7s264.9,172.6,307.4,126C676.9,566,608.2,434,481,317.9z"/>
									</defs>
									<clipPath id="SVGID_00000170973934805867111470000004448357593840911784_">
										<use xlink:href="#SVGID_00000168798187388683672000000011659571841223330989_"  style="overflow:visible;"/>
									</clipPath>
									<g style="clip-path:url(#SVGID_00000170973934805867111470000004448357593840911784_);">
										
											<ellipse transform="matrix(0.9369 -0.3496 0.3496 0.9369 -174.5885 188.7231)" class="st13" cx="435.5" cy="578" rx="27.7" ry="25.5"/>
									</g>
								</g>
							</g>
						</g>
					</g>
					<g>
						<g>
							<g>
								<g>
									<defs>
										<path id="SVGID_00000031887994781289312940000016724157041471589003_" d="M670.9,650.8c-61.9,67.8-232.6,12.7-381.3-123.1
											S70.5,226.9,132.4,159.1S365,146.4,513.7,282.2S732.8,583,670.9,650.8z M481,317.9c-127.2-116.2-264.8-172.6-307.4-126
											s26.1,178.5,153.3,294.7s264.9,172.6,307.4,126C676.9,566,608.2,434,481,317.9z"/>
									</defs>
									<clipPath id="SVGID_00000068675111969165761450000015303315694070039977_">
										<use xlink:href="#SVGID_00000031887994781289312940000016724157041471589003_"  style="overflow:visible;"/>
									</clipPath>
									<g style="clip-path:url(#SVGID_00000068675111969165761450000015303315694070039977_);">
										
											<ellipse transform="matrix(0.6818 -0.7316 0.7316 0.6818 -309.0001 421.6038)" class="st13" cx="330.1" cy="566" rx="26" ry="41.3"/>
									</g>
								</g>
							</g>
						</g>
					</g>
					<g>
						<g>
							<g>
								<g>
									<defs>
										<path id="SVGID_00000004505369484560652690000017002571333736658820_" d="M670.9,650.8c-61.9,67.8-232.6,12.7-381.3-123.1
											S70.5,226.9,132.4,159.1S365,146.4,513.7,282.2S732.8,583,670.9,650.8z M481,317.9c-127.2-116.2-264.8-172.6-307.4-126
											s26.1,178.5,153.3,294.7s264.9,172.6,307.4,126C676.9,566,608.2,434,481,317.9z"/>
									</defs>
									<clipPath id="SVGID_00000035506298119319058340000006898813805960677004_">
										<use xlink:href="#SVGID_00000004505369484560652690000017002571333736658820_"  style="overflow:visible;"/>
									</clipPath>
									<g style="clip-path:url(#SVGID_00000035506298119319058340000006898813805960677004_);">
										
											<ellipse transform="matrix(0.9369 -0.3496 0.3496 0.9369 -132.308 118.1713)" cx="261.2" cy="425.6" rx="27.7" ry="39.8"/>
									</g>
								</g>
							</g>
						</g>
					</g>
					<g>
						<g>
							<g>
								<g>
									<defs>
										<path id="SVGID_00000176025674951622916560000017255765110373702536_" d="M670.9,650.8c-61.9,67.8-232.6,12.7-381.3-123.1
											S70.5,226.9,132.4,159.1S365,146.4,513.7,282.2S732.8,583,670.9,650.8z M481,317.9c-127.2-116.2-264.8-172.6-307.4-126
											s26.1,178.5,153.3,294.7s264.9,172.6,307.4,126C676.9,566,608.2,434,481,317.9z"/>
									</defs>
									<clipPath id="SVGID_00000140727182227615441630000001680538564592939694_">
										<use xlink:href="#SVGID_00000176025674951622916560000017255765110373702536_"  style="overflow:visible;"/>
									</clipPath>
									<g style="clip-path:url(#SVGID_00000140727182227615441630000001680538564592939694_);">
										
											<ellipse transform="matrix(0.9369 -0.3496 0.3496 0.9369 -107.8711 69.3589)" cx="138.2" cy="333.5" rx="27.7" ry="25.5"/>
									</g>
								</g>
							</g>
						</g>
					</g>
					<g>
						<g>
							<g>
								<g>
									<defs>
										<path id="SVGID_00000008127652094638204170000003515280179183495843_" d="M670.9,650.8c-61.9,67.8-232.6,12.7-381.3-123.1
											S70.5,226.9,132.4,159.1S365,146.4,513.7,282.2S732.8,583,670.9,650.8z M481,317.9c-127.2-116.2-264.8-172.6-307.4-126
											s26.1,178.5,153.3,294.7s264.9,172.6,307.4,126C676.9,566,608.2,434,481,317.9z"/>
									</defs>
									<clipPath id="SVGID_00000163066274999020506230000013447705306891138224_">
										<use xlink:href="#SVGID_00000008127652094638204170000003515280179183495843_"  style="overflow:visible;"/>
									</clipPath>
									<g style="clip-path:url(#SVGID_00000163066274999020506230000013447705306891138224_);">
										<ellipse transform="matrix(0.9369 -0.3496 0.3496 0.9369 -62.3603 66.7037)" cx="153.6" cy="206.1" rx="27.7" ry="25.5"/>
									</g>
								</g>
							</g>
						</g>
					</g>
					<g>
						<g>
							<g>
								<g>
									<defs>
										<path id="SVGID_00000166664623666117821500000001005863106606254516_" d="M670.9,650.8c-61.9,67.8-232.6,12.7-381.3-123.1
											S70.5,226.9,132.4,159.1S365,146.4,513.7,282.2S732.8,583,670.9,650.8z M481,317.9c-127.2-116.2-264.8-172.6-307.4-126
											s26.1,178.5,153.3,294.7s264.9,172.6,307.4,126C676.9,566,608.2,434,481,317.9z"/>
									</defs>
									<clipPath id="SVGID_00000179609490950394055780000013472550028848660650_">
										<use xlink:href="#SVGID_00000166664623666117821500000001005863106606254516_"  style="overflow:visible;"/>
									</clipPath>
									<g style="clip-path:url(#SVGID_00000179609490950394055780000013472550028848660650_);">
										<ellipse transform="matrix(0.9369 -0.3496 0.3496 0.9369 -32.2158 88.9144)" cx="230.2" cy="133.7" rx="27.7" ry="25.5"/>
									</g>
								</g>
							</g>
						</g>
					</g>
					<g>
						<path id="SVGID_00000101812676505235619800000012651192975914865338_" class="st45" d="M670.9,650.8
							c-61.9,67.8-232.6,12.7-381.3-123.1S70.5,226.9,132.4,159.1S365,146.4,513.7,282.2S732.8,583,670.9,650.8z M481,317.9
							c-127.2-116.2-264.8-172.6-307.4-126s26.1,178.5,153.3,294.7s264.9,172.6,307.4,126C676.9,566,608.2,434,481,317.9z"/>
					</g>
				</g>
			</g>
		</g>
	</g>
</g>
<g>
	<g>
		<g>
			<g>
				<defs>
					<ellipse id="SVGID_00000166669179215497519250000001821807434387361445_" cx="295" cy="168.5" rx="208" ry="180.5"/>
				</defs>
				<clipPath id="SVGID_00000014617912056998084140000011794335952446739628_">
					<use xlink:href="#SVGID_00000166669179215497519250000001821807434387361445_"  style="overflow:visible;"/>
				</clipPath>
				
					<g id="blue_snake_00000122718883766080795380000008962609305384770988_" style="clip-path:url(#SVGID_00000014617912056998084140000011794335952446739628_);">
					<g>
						<g>
							<g>
								<g>
									<defs>
										<path id="SVGID_00000147930843165026364150000005930166463814774433_" d="M667.7,649.8c-61.9,67.8-232.6,12.7-381.3-123.1
											S67.3,225.9,129.2,158.1s232.6-12.7,381.3,123.1S729.6,582,667.7,649.8z M477.8,316.9C350.6,200.7,213,144.3,170.4,190.9
											s26.1,178.5,153.3,294.7s264.9,172.6,307.4,126C673.7,565,605,433,477.8,316.9z"/>
									</defs>
									<clipPath id="SVGID_00000017487503966751888030000007169610020523589292_">
										<use xlink:href="#SVGID_00000147930843165026364150000005930166463814774433_"  style="overflow:visible;"/>
									</clipPath>
									<g style="clip-path:url(#SVGID_00000017487503966751888030000007169610020523589292_);">
										<g>
											<g>
												<g>
													<g>
														<defs>
															<path id="SVGID_00000110451587428252619910000003244405031938185125_" d="M667.7,649.8
																c-61.9,67.8-232.6,12.7-381.3-123.1S67.3,225.9,129.2,158.1s232.6-12.7,381.3,123.1S729.6,582,667.7,649.8z
																 M477.8,316.9C350.6,200.7,213,144.3,170.4,190.9s26.1,178.5,153.3,294.7s264.9,172.6,307.4,126
																C673.7,565,605,433,477.8,316.9z"/>
														</defs>
														<clipPath id="SVGID_00000081642939050095582760000011770456509565736606_">
															<use xlink:href="#SVGID_00000110451587428252619910000003244405031938185125_"  style="overflow:visible;"/>
														</clipPath>
														<g style="clip-path:url(#SVGID_00000081642939050095582760000011770456509565736606_);">
															<path class="st11" d="M588,723c-48.4,0-102.7-11.7-157-33.8c-56.2-22.8-112.6-57-163.2-98.8
																c-84.7-69.8-147.7-155.2-177.7-240.7c-14.6-41.5-20.5-80.8-17.7-116.6c2.9-37.1,15.2-69,36.5-94.7
																C142.6,97.6,195.7,76,262.6,76c48.4,0,102.7,11.7,157,33.8c56.2,22.8,112.6,57,163.2,98.8
																c84.5,69.8,147.6,155.3,177.6,240.7c14.6,41.5,20.5,80.8,17.7,116.6c-2.9,37.1-15.2,69-36.5,94.7
																C708,701.4,654.9,723,588,723z"/>
															<path class="st11" d="M262.6,76.5c48.3,0,102.6,11.7,156.8,33.8c27.7,11.3,55.4,25.2,82.4,41.5
																c27.8,16.7,54.9,36,80.7,57.2c42.7,35.2,80,74.5,110.7,116.6c29.7,40.7,52.2,82.4,66.7,123.9s20.5,80.6,17.6,116.4
																c-2.9,37-15.2,68.8-36.3,94.5c-16.9,20.5-39,36.3-65.6,46.8c-25.7,10.2-55.3,15.4-87.8,15.4
																c-48.3,0-102.6-11.7-156.8-33.7c-27.7-11.3-55.4-25.2-82.4-41.5c-27.8-16.7-54.9-36-80.7-57.2
																c-42.7-35.2-80-74.5-110.7-116.6c-29.7-40.7-52.2-82.4-66.7-123.9C76,308.1,70.1,268.9,72.9,233.1
																c2.9-37,15.2-68.8,36.3-94.5c16.9-20.5,39-36.3,65.6-46.8C200.5,81.6,230.1,76.5,262.6,76.5L262.6,76.5 M262.6,75.5
																c-64.4,0-119.3,20.3-154.1,62.5C21.3,243.7,92.4,446.4,267.4,590.8c105,86.7,223.7,132.7,320.6,132.7
																c64.4,0,119.3-20.3,154.1-62.5c87.2-105.7,16.1-308.4-158.9-452.8C478.1,121.4,359.5,75.5,262.6,75.5L262.6,75.5z"/>
														</g>
													</g>
												</g>
											</g>
										</g>
									</g>
								</g>
							</g>
						</g>
					</g>
					<g>
						<g>
							<g>
								<g>
									<defs>
										<path id="SVGID_00000160906303463775592290000002202044654240145067_" d="M667.7,649.8c-61.9,67.8-232.6,12.7-381.3-123.1
											S67.3,225.9,129.2,158.1s232.6-12.7,381.3,123.1S729.6,582,667.7,649.8z M477.8,316.9C350.6,200.7,213,144.3,170.4,190.9
											s26.1,178.5,153.3,294.7s264.9,172.6,307.4,126C673.7,565,605,433,477.8,316.9z"/>
									</defs>
									<clipPath id="SVGID_00000120528030039751635770000002918060299153494945_">
										<use xlink:href="#SVGID_00000160906303463775592290000002202044654240145067_"  style="overflow:visible;"/>
									</clipPath>
									<g style="clip-path:url(#SVGID_00000120528030039751635770000002918060299153494945_);">
										
											<ellipse transform="matrix(0.6365 -0.7712 0.7712 0.6365 -40.5448 338.1996)" class="st13" cx="338.5" cy="212.1" rx="21.4" ry="30.7"/>
									</g>
								</g>
							</g>
						</g>
					</g>
					<g>
						<g>
							<g>
								<g>
									<defs>
										<path id="SVGID_00000014622308556712919120000012728869844850750373_" d="M667.7,649.8c-61.9,67.8-232.6,12.7-381.3-123.1
											S67.3,225.9,129.2,158.1s232.6-12.7,381.3,123.1S729.6,582,667.7,649.8z M477.8,316.9C350.6,200.7,213,144.3,170.4,190.9
											s26.1,178.5,153.3,294.7s264.9,172.6,307.4,126C673.7,565,605,433,477.8,316.9z"/>
									</defs>
									<clipPath id="SVGID_00000009582737400247329060000014941704311468411544_">
										<use xlink:href="#SVGID_00000014622308556712919120000012728869844850750373_"  style="overflow:visible;"/>
									</clipPath>
									<g style="clip-path:url(#SVGID_00000009582737400247329060000014941704311468411544_);">
										<ellipse transform="matrix(0.9369 -0.3496 0.3496 0.9369 -83.8351 214.7232)" cx="552.9" cy="339.6" rx="14.5" ry="19"/>
									</g>
								</g>
							</g>
						</g>
					</g>
					<g>
						<g>
							<g>
								<g>
									<defs>
										<path id="SVGID_00000132050637195272268250000000383936342562767016_" d="M667.7,649.8c-61.9,67.8-232.6,12.7-381.3-123.1
											S67.3,225.9,129.2,158.1s232.6-12.7,381.3,123.1S729.6,582,667.7,649.8z M477.8,316.9C350.6,200.7,213,144.3,170.4,190.9
											s26.1,178.5,153.3,294.7s264.9,172.6,307.4,126C673.7,565,605,433,477.8,316.9z"/>
									</defs>
									<clipPath id="SVGID_00000091706402600774467450000001216913488055289487_">
										<use xlink:href="#SVGID_00000132050637195272268250000000383936342562767016_"  style="overflow:visible;"/>
									</clipPath>
									<g style="clip-path:url(#SVGID_00000091706402600774467450000001216913488055289487_);">
										
											<ellipse transform="matrix(0.9369 -0.3496 0.3496 0.9369 -126.3541 245.7536)" cx="617.6" cy="472.9" rx="14.5" ry="20.5"/>
									</g>
								</g>
							</g>
						</g>
					</g>
					<g>
						<g>
							<g>
								<g>
									<defs>
										<path id="SVGID_00000116210260957547279830000014416981825396115349_" d="M667.7,649.8c-61.9,67.8-232.6,12.7-381.3-123.1
											S67.3,225.9,129.2,158.1s232.6-12.7,381.3,123.1S729.6,582,667.7,649.8z M477.8,316.9C350.6,200.7,213,144.3,170.4,190.9
											s26.1,178.5,153.3,294.7s264.9,172.6,307.4,126C673.7,565,605,433,477.8,316.9z"/>
									</defs>
									<clipPath id="SVGID_00000100384079972070855550000006254881348174467220_">
										<use xlink:href="#SVGID_00000116210260957547279830000014416981825396115349_"  style="overflow:visible;"/>
									</clipPath>
									<g style="clip-path:url(#SVGID_00000100384079972070855550000006254881348174467220_);">
										
											<ellipse transform="matrix(8.703028e-03 -1 1 8.703028e-03 200.8293 645.3474)" class="st13" cx="425.9" cy="221.4" rx="20.2" ry="23"/>
									</g>
								</g>
							</g>
						</g>
					</g>
					<g>
						<g>
							<g>
								<g>
									<defs>
										<path id="SVGID_00000173156339521431364560000005518109034426026411_" d="M667.7,649.8c-61.9,67.8-232.6,12.7-381.3-123.1
											S67.3,225.9,129.2,158.1s232.6-12.7,381.3,123.1S729.6,582,667.7,649.8z M477.8,316.9C350.6,200.7,213,144.3,170.4,190.9
											s26.1,178.5,153.3,294.7s264.9,172.6,307.4,126C673.7,565,605,433,477.8,316.9z"/>
									</defs>
									<clipPath id="SVGID_00000181770432798765329300000018321923994659345808_">
										<use xlink:href="#SVGID_00000173156339521431364560000005518109034426026411_"  style="overflow:visible;"/>
									</clipPath>
									<g style="clip-path:url(#SVGID_00000181770432798765329300000018321923994659345808_);">
										<ellipse transform="matrix(0.9369 -0.3496 0.3496 0.9369 -79.7616 187.4915)" cx="479.5" cy="314.7" rx="19.5" ry="26"/>
									</g>
								</g>
							</g>
						</g>
					</g>
					<g>
						<g>
							<g>
								<g>
									<defs>
										<path id="SVGID_00000121983702109328453040000014508157229481241511_" d="M667.7,649.8c-61.9,67.8-232.6,12.7-381.3-123.1
											S67.3,225.9,129.2,158.1s232.6-12.7,381.3,123.1S729.6,582,667.7,649.8z M477.8,316.9C350.6,200.7,213,144.3,170.4,190.9
											s26.1,178.5,153.3,294.7s264.9,172.6,307.4,126C673.7,565,605,433,477.8,316.9z"/>
									</defs>
									<clipPath id="SVGID_00000114045544853890765880000009204282685603899035_">
										<use xlink:href="#SVGID_00000121983702109328453040000014508157229481241511_"  style="overflow:visible;"/>
									</clipPath>
									<g style="clip-path:url(#SVGID_00000114045544853890765880000009204282685603899035_);">
										
											<ellipse transform="matrix(0.9369 -0.3496 0.3496 0.9369 -146.7027 270.6166)" cx="676.3" cy="541.7" rx="14.5" ry="21.5"/>
									</g>
								</g>
							</g>
						</g>
					</g>
					<g>
						<g>
							<g>
								<g>
									<defs>
										<path id="SVGID_00000140731970363068908720000016677186300180222390_" d="M667.7,649.8c-61.9,67.8-232.6,12.7-381.3-123.1
											S67.3,225.9,129.2,158.1s232.6-12.7,381.3,123.1S729.6,582,667.7,649.8z M477.8,316.9C350.6,200.7,213,144.3,170.4,190.9
											s26.1,178.5,153.3,294.7s264.9,172.6,307.4,126C673.7,565,605,433,477.8,316.9z"/>
									</defs>
									<clipPath id="SVGID_00000037688809964640046430000013683515478386630825_">
										<use xlink:href="#SVGID_00000140731970363068908720000016677186300180222390_"  style="overflow:visible;"/>
									</clipPath>
									<g style="clip-path:url(#SVGID_00000037688809964640046430000013683515478386630825_);">
										
											<ellipse transform="matrix(0.9369 -0.3496 0.3496 0.9369 -179.1336 254.7386)" cx="616.1" cy="623.6" rx="32.4" ry="19.2"/>
									</g>
								</g>
							</g>
						</g>
					</g>
					<g>
						<g>
							<g>
								<g>
									<defs>
										<path id="SVGID_00000000187559811007049680000012590499612455063448_" d="M667.7,649.8c-61.9,67.8-232.6,12.7-381.3-123.1
											S67.3,225.9,129.2,158.1s232.6-12.7,381.3,123.1S729.6,582,667.7,649.8z M477.8,316.9C350.6,200.7,213,144.3,170.4,190.9
											s26.1,178.5,153.3,294.7s264.9,172.6,307.4,126C673.7,565,605,433,477.8,316.9z"/>
									</defs>
									<clipPath id="SVGID_00000052098871630799191890000001786275737906026403_">
										<use xlink:href="#SVGID_00000000187559811007049680000012590499612455063448_"  style="overflow:visible;"/>
									</clipPath>
									<g style="clip-path:url(#SVGID_00000052098871630799191890000001786275737906026403_);">
										<ellipse transform="matrix(0.9369 -0.3496 0.3496 0.9369 -198.09 222.3137)" cx="516.8" cy="659.9" rx="27.7" ry="25.5"/>
									</g>
								</g>
							</g>
						</g>
					</g>
					<g>
						<g>
							<g>
								<g>
									<defs>
										<path id="SVGID_00000060744142149685478910000015837060055768196760_" d="M667.7,649.8c-61.9,67.8-232.6,12.7-381.3-123.1
											S67.3,225.9,129.2,158.1s232.6-12.7,381.3,123.1S729.6,582,667.7,649.8z M477.8,316.9C350.6,200.7,213,144.3,170.4,190.9
											s26.1,178.5,153.3,294.7s264.9,172.6,307.4,126C673.7,565,605,433,477.8,316.9z"/>
									</defs>
									<clipPath id="SVGID_00000096041461080892547570000006351223869743999621_">
										<use xlink:href="#SVGID_00000060744142149685478910000015837060055768196760_"  style="overflow:visible;"/>
									</clipPath>
									<g style="clip-path:url(#SVGID_00000096041461080892547570000006351223869743999621_);">
										<ellipse transform="matrix(0.9369 -0.3496 0.3496 0.9369 -174.4401 187.5415)" cx="432.3" cy="577" rx="27.7" ry="25.5"/>
									</g>
								</g>
							</g>
						</g>
					</g>
					<g>
						<g>
							<g>
								<g>
									<defs>
										<path id="SVGID_00000037653953802836297780000012748591304678095524_" d="M667.7,649.8c-61.9,67.8-232.6,12.7-381.3-123.1
											S67.3,225.9,129.2,158.1s232.6-12.7,381.3,123.1S729.6,582,667.7,649.8z M477.8,316.9C350.6,200.7,213,144.3,170.4,190.9
											s26.1,178.5,153.3,294.7s264.9,172.6,307.4,126C673.7,565,605,433,477.8,316.9z"/>
									</defs>
									<clipPath id="SVGID_00000006709869030692706850000000861641360014226073_">
										<use xlink:href="#SVGID_00000037653953802836297780000012748591304678095524_"  style="overflow:visible;"/>
									</clipPath>
									<g style="clip-path:url(#SVGID_00000006709869030692706850000000861641360014226073_);">
										<ellipse transform="matrix(0.6818 -0.7316 0.7316 0.6818 -309.3458 418.907)" cx="326.8" cy="565" rx="26" ry="41.3"/>
									</g>
								</g>
							</g>
						</g>
					</g>
					<g>
						<g>
							<g>
								<g>
									<defs>
										<path id="SVGID_00000132058084083261968030000015154617683647752100_" d="M667.7,649.8c-61.9,67.8-232.6,12.7-381.3-123.1
											S67.3,225.9,129.2,158.1s232.6-12.7,381.3,123.1S729.6,582,667.7,649.8z M477.8,316.9C350.6,200.7,213,144.3,170.4,190.9
											s26.1,178.5,153.3,294.7s264.9,172.6,307.4,126C673.7,565,605,433,477.8,316.9z"/>
									</defs>
									<clipPath id="SVGID_00000011754148955555092120000014326570510866280836_">
										<use xlink:href="#SVGID_00000132058084083261968030000015154617683647752100_"  style="overflow:visible;"/>
									</clipPath>
									<g style="clip-path:url(#SVGID_00000011754148955555092120000014326570510866280836_);">
										<ellipse transform="matrix(0.9369 -0.3496 0.3496 0.9369 -132.1596 116.9897)" cx="258" cy="424.6" rx="27.7" ry="39.8"/>
									</g>
								</g>
							</g>
						</g>
					</g>
					<g>
						<g>
							<g>
								<g>
									<defs>
										<path id="SVGID_00000027581883192387598560000002176865590018211475_" d="M667.7,649.8c-61.9,67.8-232.6,12.7-381.3-123.1
											S67.3,225.9,129.2,158.1s232.6-12.7,381.3,123.1S729.6,582,667.7,649.8z M477.8,316.9C350.6,200.7,213,144.3,170.4,190.9
											s26.1,178.5,153.3,294.7s264.9,172.6,307.4,126C673.7,565,605,433,477.8,316.9z"/>
									</defs>
									<clipPath id="SVGID_00000031918959070179865360000008511841673531744944_">
										<use xlink:href="#SVGID_00000027581883192387598560000002176865590018211475_"  style="overflow:visible;"/>
									</clipPath>
									<g style="clip-path:url(#SVGID_00000031918959070179865360000008511841673531744944_);">
										<ellipse transform="matrix(0.9369 -0.3496 0.3496 0.9369 -107.7227 68.1773)" cx="135" cy="332.5" rx="27.7" ry="25.5"/>
									</g>
								</g>
							</g>
						</g>
					</g>
					<g>
						<g>
							<g>
								<g>
									<defs>
										<path id="SVGID_00000038381793323706700910000010295044805582384807_" d="M667.7,649.8c-61.9,67.8-232.6,12.7-381.3-123.1
											S67.3,225.9,129.2,158.1s232.6-12.7,381.3,123.1S729.6,582,667.7,649.8z M477.8,316.9C350.6,200.7,213,144.3,170.4,190.9
											s26.1,178.5,153.3,294.7s264.9,172.6,307.4,126C673.7,565,605,433,477.8,316.9z"/>
									</defs>
									<clipPath id="SVGID_00000131331181654809250950000010306620999597264783_">
										<use xlink:href="#SVGID_00000038381793323706700910000010295044805582384807_"  style="overflow:visible;"/>
									</clipPath>
									<g style="clip-path:url(#SVGID_00000131331181654809250950000010306620999597264783_);">
										
											<ellipse transform="matrix(0.9369 -0.3496 0.3496 0.9369 -62.2119 65.5222)" class="st13" cx="150.4" cy="205.1" rx="27.7" ry="25.5"/>
									</g>
								</g>
							</g>
						</g>
					</g>
					<g>
						<g>
							<g>
								<g>
									<defs>
										<path id="SVGID_00000096020677476041207190000016288712609697747117_" d="M667.7,649.8c-61.9,67.8-232.6,12.7-381.3-123.1
											S67.3,225.9,129.2,158.1s232.6-12.7,381.3,123.1S729.6,582,667.7,649.8z M477.8,316.9C350.6,200.7,213,144.3,170.4,190.9
											s26.1,178.5,153.3,294.7s264.9,172.6,307.4,126C673.7,565,605,433,477.8,316.9z"/>
									</defs>
									<clipPath id="SVGID_00000171001305320977326670000011096424002517449109_">
										<use xlink:href="#SVGID_00000096020677476041207190000016288712609697747117_"  style="overflow:visible;"/>
									</clipPath>
									<g style="clip-path:url(#SVGID_00000171001305320977326670000011096424002517449109_);">
										
											<ellipse transform="matrix(0.9369 -0.3496 0.3496 0.9369 -32.0674 87.7329)" class="st13" cx="227" cy="132.7" rx="27.7" ry="25.5"/>
									</g>
								</g>
							</g>
						</g>
					</g>
					<g>
						<path id="SVGID_00000047771311924789868550000009746029588139863228_" class="st45" d="M667.7,649.8
							c-61.9,67.8-232.6,12.7-381.3-123.1S67.3,225.9,129.2,158.1s232.6-12.7,381.3,123.1S729.6,582,667.7,649.8z M477.8,316.9
							C350.6,200.7,213,144.3,170.4,190.9s26.1,178.5,153.3,294.7s264.9,172.6,307.4,126C673.7,565,605,433,477.8,316.9z"/>
					</g>
				</g>
			</g>
		</g>
	</g>
</g>
</svg>
