<?xml version="1.0" encoding="UTF-8" standalone="no"?>
<!DOCTYPE svg PUBLIC "-//W3C//DTD SVG 1.1//EN"
 "http://www.w3.org/Graphics/SVG/1.1/DTD/svg11.dtd">
<!-- Generated by graphviz version 8.0.5 (0)
 -->
<!-- Title: G Pages: 1 -->
<svg width="922pt" height="108pt"
 viewBox="0.00 0.00 922.25 108.00" xmlns="http://www.w3.org/2000/svg" xmlns:xlink="http://www.w3.org/1999/xlink">
<g id="graph0" class="graph" transform="scale(1 1) rotate(0) translate(4 104)">
<title>G</title>
<polygon fill="white" stroke="none" points="-4,4 -4,-104 918.25,-104 918.25,4 -4,4"/>
<!-- Incoming Neutron\nFlux Correction -->
<g id="node1" class="node">
<title>Incoming Neutron\nFlux Correction</title>
<polygon fill="none" stroke="black" points="116.5,-41 4,-41 0,-37 0,0 112.5,0 116.5,-4 116.5,-41"/>
<polyline fill="none" stroke="black" points="112.5,-37 0,-37"/>
<polyline fill="none" stroke="black" points="112.5,-37 112.5,0"/>
<polyline fill="none" stroke="black" points="112.5,-37 116.5,-41"/>
<text text-anchor="middle" x="58.25" y="-23.7" font-family="Times New Roman,serif" font-size="14.00">Incoming Neutron</text>
<text text-anchor="middle" x="58.25" y="-7.2" font-family="Times New Roman,serif" font-size="14.00">Flux Correction</text>
</g>
<!-- get_incoming_neutron_flux() -->
<g id="node2" class="node">
<title>get_incoming_neutron_flux()</title>
<polygon fill="none" stroke="black" points="329,-95.5 152.5,-95.5 152.5,-59.5 329,-59.5 329,-95.5"/>
<text text-anchor="middle" x="240.75" y="-72.45" font-family="Times New Roman,serif" font-size="14.00">get_incoming_neutron_flux()</text>
</g>
<!-- Incoming Neutron\nFlux Correction&#45;&gt;get_incoming_neutron_flux() -->
<g id="edge1" class="edge">
<title>Incoming Neutron\nFlux Correction&#45;&gt;get_incoming_neutron_flux()</title>
<path fill="none" stroke="black" d="M116.92,-39.16C128.68,-42.94 140.99,-46.87 152.5,-50.5 158.08,-52.26 163.86,-54.07 169.67,-55.89"/>
<polygon fill="black" stroke="black" points="168.53,-59.51 179.12,-59.14 170.61,-52.83 168.53,-59.51"/>
</g>
<!-- Atmospheric\nCorrection -->
<g id="node3" class="node">
<title>Atmospheric\nCorrection</title>
<polygon fill="none" stroke="black" points="284,-41 201.5,-41 197.5,-37 197.5,0 280,0 284,-4 284,-41"/>
<polyline fill="none" stroke="black" points="280,-37 197.5,-37"/>
<polyline fill="none" stroke="black" points="280,-37 280,0"/>
<polyline fill="none" stroke="black" points="280,-37 284,-41"/>
<text text-anchor="middle" x="240.75" y="-23.7" font-family="Times New Roman,serif" font-size="14.00">Atmospheric</text>
<text text-anchor="middle" x="240.75" y="-7.2" font-family="Times New Roman,serif" font-size="14.00">Correction</text>
</g>
<!-- Incoming Neutron\nFlux Correction&#45;&gt;Atmospheric\nCorrection -->
<g id="edge6" class="edge">
<title>Incoming Neutron\nFlux Correction&#45;&gt;Atmospheric\nCorrection</title>
<path fill="none" stroke="black" d="M116.86,-20.5C139.19,-20.5 164.6,-20.5 186.5,-20.5"/>
<polygon fill="black" stroke="black" points="186.26,-24 196.26,-20.5 186.26,-17 186.26,-24"/>
</g>
<!-- atm_correction() -->
<g id="node4" class="node">
<title>atm_correction()</title>
<polygon fill="none" stroke="black" points="472.5,-95.5 365,-95.5 365,-59.5 472.5,-59.5 472.5,-95.5"/>
<text text-anchor="middle" x="418.75" y="-72.45" font-family="Times New Roman,serif" font-size="14.00">atm_correction()</text>
</g>
<!-- Atmospheric\nCorrection&#45;&gt;atm_correction() -->
<g id="edge2" class="edge">
<title>Atmospheric\nCorrection&#45;&gt;atm_correction()</title>
<path fill="none" stroke="black" d="M284.35,-34.3C305.26,-41.07 330.88,-49.37 354.06,-56.87"/>
<polygon fill="black" stroke="black" points="352.92,-60.51 363.51,-60.26 355.07,-53.85 352.92,-60.51"/>
</g>
<!-- Biomass\nCorrection -->
<g id="node5" class="node">
<title>Biomass\nCorrection</title>
<polygon fill="none" stroke="black" points="455.62,-41 385.88,-41 381.88,-37 381.88,0 451.62,0 455.62,-4 455.62,-41"/>
<polyline fill="none" stroke="black" points="451.62,-37 381.88,-37"/>
<polyline fill="none" stroke="black" points="451.62,-37 451.62,0"/>
<polyline fill="none" stroke="black" points="451.62,-37 455.62,-41"/>
<text text-anchor="middle" x="418.75" y="-23.7" font-family="Times New Roman,serif" font-size="14.00">Biomass</text>
<text text-anchor="middle" x="418.75" y="-7.2" font-family="Times New Roman,serif" font-size="14.00">Correction</text>
</g>
<!-- Atmospheric\nCorrection&#45;&gt;Biomass\nCorrection -->
<g id="edge7" class="edge">
<title>Atmospheric\nCorrection&#45;&gt;Biomass\nCorrection</title>
<path fill="none" stroke="black" stroke-dasharray="5,2" d="M284.35,-20.5C310.46,-20.5 343.91,-20.5 370.79,-20.5"/>
<polygon fill="black" stroke="black" points="370.48,-24 380.48,-20.5 370.48,-17 370.48,-24"/>
</g>
<!-- biomass_to_bwe()\nbwe_correction() -->
<g id="node6" class="node">
<title>biomass_to_bwe()\nbwe_correction()</title>
<polygon fill="none" stroke="black" points="625,-100 508.5,-100 508.5,-59 625,-59 625,-100"/>
<text text-anchor="middle" x="566.75" y="-82.7" font-family="Times New Roman,serif" font-size="14.00">biomass_to_bwe()</text>
<text text-anchor="middle" x="566.75" y="-66.2" font-family="Times New Roman,serif" font-size="14.00">bwe_correction()</text>
</g>
<!-- Biomass\nCorrection&#45;&gt;biomass_to_bwe()\nbwe_correction() -->
<g id="edge3" class="edge">
<title>Biomass\nCorrection&#45;&gt;biomass_to_bwe()\nbwe_correction()</title>
<path fill="none" stroke="black" d="M455.84,-35.08C470.32,-40.93 487.42,-47.85 503.77,-54.45"/>
<polygon fill="black" stroke="black" points="502.24,-58.01 512.82,-58.51 504.86,-51.52 502.24,-58.01"/>
</g>
<!-- Road\nCorrection -->
<g id="node7" class="node">
<title>Road\nCorrection</title>
<polygon fill="none" stroke="black" points="603.62,-41 533.88,-41 529.88,-37 529.88,0 599.62,0 603.62,-4 603.62,-41"/>
<polyline fill="none" stroke="black" points="599.62,-37 529.88,-37"/>
<polyline fill="none" stroke="black" points="599.62,-37 599.62,0"/>
<polyline fill="none" stroke="black" points="599.62,-37 603.62,-41"/>
<text text-anchor="middle" x="566.75" y="-23.7" font-family="Times New Roman,serif" font-size="14.00">Road</text>
<text text-anchor="middle" x="566.75" y="-7.2" font-family="Times New Roman,serif" font-size="14.00">Correction</text>
</g>
<!-- Biomass\nCorrection&#45;&gt;Road\nCorrection -->
<g id="edge8" class="edge">
<title>Biomass\nCorrection&#45;&gt;Road\nCorrection</title>
<path fill="none" stroke="black" stroke-dasharray="5,2" d="M455.84,-20.5C474.79,-20.5 498.25,-20.5 518.62,-20.5"/>
<polygon fill="black" stroke="black" points="518.57,-24 528.57,-20.5 518.57,-17 518.57,-24"/>
</g>
<!-- road_correction() -->
<g id="node8" class="node">
<title>road_correction()</title>
<polygon fill="none" stroke="black" points="771.5,-95.5 661,-95.5 661,-59.5 771.5,-59.5 771.5,-95.5"/>
<text text-anchor="middle" x="716.25" y="-72.45" font-family="Times New Roman,serif" font-size="14.00">road_correction()</text>
</g>
<!-- Road\nCorrection&#45;&gt;road_correction() -->
<g id="edge4" class="edge">
<title>Road\nCorrection&#45;&gt;road_correction()</title>
<path fill="none" stroke="black" d="M603.83,-34.44C619.95,-40.67 639.35,-48.17 657.41,-55.15"/>
<polygon fill="black" stroke="black" points="655.97,-58.73 666.56,-59.07 658.49,-52.2 655.97,-58.73"/>
</g>
<!-- Soil Mositure\nEstimation -->
<g id="node9" class="node">
<title>Soil Mositure\nEstimation</title>
<polygon fill="none" stroke="black" points="761.75,-41 674.75,-41 670.75,-37 670.75,0 757.75,0 761.75,-4 761.75,-41"/>
<polyline fill="none" stroke="black" points="757.75,-37 670.75,-37"/>
<polyline fill="none" stroke="black" points="757.75,-37 757.75,0"/>
<polyline fill="none" stroke="black" points="757.75,-37 761.75,-41"/>
<text text-anchor="middle" x="716.25" y="-23.7" font-family="Times New Roman,serif" font-size="14.00">Soil Mositure</text>
<text text-anchor="middle" x="716.25" y="-7.2" font-family="Times New Roman,serif" font-size="14.00">Estimation</text>
</g>
<!-- Road\nCorrection&#45;&gt;Soil Mositure\nEstimation -->
<g id="edge9" class="edge">
<title>Road\nCorrection&#45;&gt;Soil Mositure\nEstimation</title>
<path fill="none" stroke="black" d="M603.83,-20.5C620.59,-20.5 640.89,-20.5 659.54,-20.5"/>
<polygon fill="black" stroke="black" points="659.3,-24 669.3,-20.5 659.3,-17 659.3,-24"/>
</g>
<!-- counts_to_vwc() -->
<g id="node10" class="node">
<title>counts_to_vwc()</title>
<polygon fill="none" stroke="black" points="914.25,-38.5 807.5,-38.5 807.5,-2.5 914.25,-2.5 914.25,-38.5"/>
<text text-anchor="middle" x="860.88" y="-15.45" font-family="Times New Roman,serif" font-size="14.00">counts_to_vwc()</text>
</g>
<!-- Soil Mositure\nEstimation&#45;&gt;counts_to_vwc() -->
<g id="edge5" class="edge">
<title>Soil Mositure\nEstimation&#45;&gt;counts_to_vwc()</title>
<path fill="none" stroke="black" d="M761.99,-20.5C772.82,-20.5 784.61,-20.5 796.13,-20.5"/>
<polygon fill="black" stroke="black" points="796.06,-24 806.06,-20.5 796.06,-17 796.06,-24"/>
</g>
</g>
</svg>
