<?xml version="1.0" encoding="utf-8"?>
<!-- Generator: Adobe Illustrator 26.0.0, SVG Export Plug-In . SVG Version: 6.00 Build 0)  -->
<svg version="1.1" id="Layer_1" xmlns="http://www.w3.org/2000/svg" xmlns:xlink="http://www.w3.org/1999/xlink" x="0px" y="0px"
	 viewBox="0 0 800 800" style="enable-background:new 0 0 800 800;" xml:space="preserve">
<style type="text/css">
	.st0{clip-path:url(#SVGID_00000037670288811354030870000015846204548695425438_);}
	.st1{clip-path:url(#SVGID_00000027575501563185641790000004162836195925475226_);}
	.st2{fill:#306998;}
	.st3{clip-path:url(#SVGID_00000176764093009032744000000005823596818680343940_);}
	.st4{fill:#4B8BBE;}
	.st5{clip-path:url(#SVGID_00000164498115101873720330000016384991326588140674_);}
	.st6{clip-path:url(#SVGID_00000181088090206867668340000010657714324991190414_);}
	.st7{clip-path:url(#SVGID_00000073708757499976668590000006444419541617436061_);}
	.st8{clip-path:url(#SVGID_00000129907680096941984820000017343657796214601908_);}
	.st9{clip-path:url(#SVGID_00000053527899118859845960000001685312791071915415_);}
	.st10{clip-path:url(#SVGID_00000165210127466384896780000002626861706200721806_);}
	.st11{clip-path:url(#SVGID_00000025422789143812538340000004814586439274395828_);}
	.st12{clip-path:url(#SVGID_00000127727663405738941320000005562227490187059856_);}
	.st13{clip-path:url(#SVGID_00000047752868333228662310000002347494660074826667_);}
	.st14{clip-path:url(#SVGID_00000141423527378203178580000001100872445413176215_);}
	.st15{clip-path:url(#SVGID_00000002368407047307810580000013600658584311278508_);}
	.st16{clip-path:url(#SVGID_00000056417526683666074760000016495321948318548877_);}
	.st17{clip-path:url(#SVGID_00000046316794407318610420000015900260995821570694_);}
	.st18{clip-path:url(#SVGID_00000054251460285624166420000014121579679282663353_);}
	.st19{clip-path:url(#SVGID_00000175305694843491281050000013666345713331236011_);}
	.st20{fill:#FFD343;}
	.st21{clip-path:url(#SVGID_00000023961426918373483740000010475379870329786509_);}
	.st22{fill:#FFE873;}
	.st23{clip-path:url(#SVGID_00000091703173052873908560000011654344148229944505_);}
	.st24{clip-path:url(#SVGID_00000052811595119313607830000010508396351583567781_);}
	.st25{clip-path:url(#SVGID_00000123435800975162442910000004987108539829451944_);}
	.st26{clip-path:url(#SVGID_00000033327632858527907440000009477012768592920251_);}
	.st27{clip-path:url(#SVGID_00000139270062591074387910000006934554005124141214_);}
	.st28{clip-path:url(#SVGID_00000048467753518444669680000007744805885416634760_);}
	.st29{clip-path:url(#SVGID_00000051357125765058502310000004763479220242536082_);}
	.st30{clip-path:url(#SVGID_00000101093115009408210520000016002881046692105345_);}
	.st31{clip-path:url(#SVGID_00000085937822594687983280000004285130126819180216_);}
	.st32{clip-path:url(#SVGID_00000029004884345754012160000011474693038264917939_);}
	.st33{clip-path:url(#SVGID_00000041994871292558139130000002699673210565257637_);}
	.st34{clip-path:url(#SVGID_00000013871429923376890490000000943781603653040818_);}
	.st35{clip-path:url(#SVGID_00000091010190485140429380000011440175840429229989_);}
	.st36{fill:none;}
	.st37{fill:#C69C6D;stroke:#000000;stroke-width:0.25;stroke-miterlimit:10;}
	.st38{fill-rule:evenodd;clip-rule:evenodd;fill:#42A5F5;stroke:#000000;stroke-width:12;stroke-miterlimit:10;}
	.st39{fill-rule:evenodd;clip-rule:evenodd;fill:#FFFFFF;}
</style>
<g>
	<g id="blue_snake">
		<g>
			<g>
				<g>
					<g>
						<defs>
							<path id="SVGID_1_" d="M769.2,741.9c-84.9,93-318.9,17.4-522.8-168.8S-54.1,160.7,30.8,67.7s318.9-17.4,522.8,168.8
								S854.1,649,769.2,741.9z M508.8,285.5C334.4,126.1,145.7,48.8,87.3,112.7s35.8,244.8,210.2,404.1S660.7,753.5,719,689.6
								C777.4,625.7,683.2,444.7,508.8,285.5z"/>
						</defs>
						<clipPath id="SVGID_00000053518939226587132800000008775487457402629269_">
							<use xlink:href="#SVGID_1_"  style="overflow:visible;"/>
						</clipPath>
						<g style="clip-path:url(#SVGID_00000053518939226587132800000008775487457402629269_);">
							<g>
								<g>
									<g>
										<g>
											<defs>
												<path id="SVGID_00000012434803424641722010000002493104224047512712_" d="M769.2,741.9c-84.9,93-318.9,17.4-522.8-168.8
													S-54.1,160.7,30.8,67.7s318.9-17.4,522.8,168.8S854.1,649,769.2,741.9z M508.8,285.5C334.4,126.1,145.7,48.8,87.3,112.7
													s35.8,244.8,210.2,404.1S660.7,753.5,719,689.6C777.4,625.7,683.2,444.7,508.8,285.5z"/>
											</defs>
											<clipPath id="SVGID_00000158750138620982699760000000047113848570746523_">
												<use xlink:href="#SVGID_00000012434803424641722010000002493104224047512712_"  style="overflow:visible;"/>
											</clipPath>
											<g style="clip-path:url(#SVGID_00000158750138620982699760000000047113848570746523_);">
												<path class="st2" d="M659.9,842.3c-66.4,0-140.8-16-215.3-46.3c-77.1-31.3-154.4-78.2-223.8-135.5
													c-116.1-95.7-202.5-212.8-243.7-330c-20-56.9-28.1-110.8-24.3-159.9c4-50.9,20.8-94.6,50-129.9
													c46.2-55.9,119-85.6,210.8-85.6c66.4,0,140.8,16,215.3,46.3C506.1,32.8,583.4,79.7,652.8,137
													c115.9,95.7,202.4,212.9,243.5,330c20,56.9,28.1,110.8,24.3,159.9c-4,50.9-20.8,94.6-50,129.9
													C824.5,812.7,751.6,842.3,659.9,842.3z"/>
												<path class="st2" d="M213.7-44.2c66.2,0,140.7,16,215,46.3c38,15.5,76,34.6,113,56.9c38.1,22.9,75.3,49.4,110.7,78.4
													c58.5,48.3,109.7,102.2,151.8,159.9c40.7,55.8,71.6,113,91.5,169.9s28.1,110.5,24.1,159.6c-4,50.7-20.8,94.3-49.8,129.6
													c-23.2,28.1-53.5,49.8-90,64.2c-35.2,14-75.8,21.1-120.4,21.1c-66.2,0-140.7-16-215-46.2c-38-15.5-76-34.6-113-56.9
													c-38.1-22.9-75.3-49.4-110.7-78.4C162.4,611.9,111.2,558,69.1,500.3c-40.7-55.8-71.6-113-91.5-169.9
													c-19.9-57-28-110.8-24.1-159.9c4-50.7,20.8-94.3,49.8-129.6c23.2-28.1,53.5-49.8,90-64.2
													C128.6-37.2,169.2-44.2,213.7-44.2L213.7-44.2 M213.7-45.5c-88.3,0-163.6,27.8-211.3,85.7
													C-117.1,185.1-19.7,463,220.3,661c144,118.9,306.7,182,439.6,182c88.3,0,163.6-27.8,211.3-85.7
													c119.6-144.9,22.1-422.9-217.9-620.9C509.2,17.4,346.6-45.5,213.7-45.5L213.7-45.5z"/>
											</g>
										</g>
									</g>
								</g>
							</g>
						</g>
					</g>
				</g>
			</g>
		</g>
		<g>
			<g>
				<g>
					<g>
						<defs>
							<path id="SVGID_00000093857310216734619520000014416019767175082914_" d="M769.2,741.9c-84.9,93-318.9,17.4-522.8-168.8
								S-54.1,160.7,30.8,67.7s318.9-17.4,522.8,168.8S854.1,649,769.2,741.9z M508.8,285.5C334.4,126.1,145.7,48.8,87.3,112.7
								s35.8,244.8,210.2,404.1S660.7,753.5,719,689.6C777.4,625.7,683.2,444.7,508.8,285.5z"/>
						</defs>
						<clipPath id="SVGID_00000139292310350230322130000004084686097306298545_">
							<use xlink:href="#SVGID_00000093857310216734619520000014416019767175082914_"  style="overflow:visible;"/>
						</clipPath>
						<g style="clip-path:url(#SVGID_00000139292310350230322130000004084686097306298545_);">
							
								<ellipse transform="matrix(0.6365 -0.7712 0.7712 0.6365 6.1892 296.6876)" class="st4" cx="317.9" cy="141.8" rx="29.3" ry="42.1"/>
						</g>
					</g>
				</g>
			</g>
		</g>
		<g>
			<g>
				<g>
					<g>
						<defs>
							<path id="SVGID_00000042004896153439122110000013982207567000738187_" d="M769.2,741.9c-84.9,93-318.9,17.4-522.8-168.8
								S-54.1,160.7,30.8,67.7s318.9-17.4,522.8,168.8S854.1,649,769.2,741.9z M508.8,285.5C334.4,126.1,145.7,48.8,87.3,112.7
								s35.8,244.8,210.2,404.1S660.7,753.5,719,689.6C777.4,625.7,683.2,444.7,508.8,285.5z"/>
						</defs>
						<clipPath id="SVGID_00000070096238502609758800000012278169591953852067_">
							<use xlink:href="#SVGID_00000042004896153439122110000013982207567000738187_"  style="overflow:visible;"/>
						</clipPath>
						<g style="clip-path:url(#SVGID_00000070096238502609758800000012278169591953852067_);">
							
								<ellipse transform="matrix(0.9369 -0.3496 0.3496 0.9369 -72.0757 233.8631)" class="st4" cx="611.8" cy="316.6" rx="19.9" ry="26.1"/>
						</g>
					</g>
				</g>
			</g>
		</g>
		<g>
			<g>
				<g>
					<g>
						<defs>
							<path id="SVGID_00000068649077174036119030000018179559187021389501_" d="M769.2,741.9c-84.9,93-318.9,17.4-522.8-168.8
								S-54.1,160.7,30.8,67.7s318.9-17.4,522.8,168.8S854.1,649,769.2,741.9z M508.8,285.5C334.4,126.1,145.7,48.8,87.3,112.7
								s35.8,244.8,210.2,404.1S660.7,753.5,719,689.6C777.4,625.7,683.2,444.7,508.8,285.5z"/>
						</defs>
						<clipPath id="SVGID_00000168813715171808711940000003452698540927958144_">
							<use xlink:href="#SVGID_00000068649077174036119030000018179559187021389501_"  style="overflow:visible;"/>
						</clipPath>
						<g style="clip-path:url(#SVGID_00000168813715171808711940000003452698540927958144_);">
							
								<ellipse transform="matrix(0.9369 -0.3496 0.3496 0.9369 -130.3866 276.4106)" class="st4" cx="700.5" cy="499.4" rx="19.9" ry="28.1"/>
						</g>
					</g>
				</g>
			</g>
		</g>
		<g>
			<g>
				<g>
					<g>
						<defs>
							<path id="SVGID_00000153672741570115028750000003620538969961517742_" d="M769.2,741.9c-84.9,93-318.9,17.4-522.8-168.8
								S-54.1,160.7,30.8,67.7s318.9-17.4,522.8,168.8S854.1,649,769.2,741.9z M508.8,285.5C334.4,126.1,145.7,48.8,87.3,112.7
								s35.8,244.8,210.2,404.1S660.7,753.5,719,689.6C777.4,625.7,683.2,444.7,508.8,285.5z"/>
						</defs>
						<clipPath id="SVGID_00000067945387086039977040000002988917823684738984_">
							<use xlink:href="#SVGID_00000153672741570115028750000003620538969961517742_"  style="overflow:visible;"/>
						</clipPath>
						<g style="clip-path:url(#SVGID_00000067945387086039977040000002988917823684738984_);">
							
								<ellipse transform="matrix(8.703028e-03 -1 1 8.703028e-03 279.2477 590.8559)" class="st4" cx="437.6" cy="154.6" rx="27.7" ry="31.5"/>
						</g>
					</g>
				</g>
			</g>
		</g>
		<g>
			<g>
				<g>
					<g>
						<defs>
							<path id="SVGID_00000145039002097737765160000015163532840043533466_" d="M769.2,741.9c-84.9,93-318.9,17.4-522.8-168.8
								S-54.1,160.7,30.8,67.7s318.9-17.4,522.8,168.8S854.1,649,769.2,741.9z M508.8,285.5C334.4,126.1,145.7,48.8,87.3,112.7
								s35.8,244.8,210.2,404.1S660.7,753.5,719,689.6C777.4,625.7,683.2,444.7,508.8,285.5z"/>
						</defs>
						<clipPath id="SVGID_00000030455141812188863170000001643090497438773929_">
							<use xlink:href="#SVGID_00000145039002097737765160000015163532840043533466_"  style="overflow:visible;"/>
						</clipPath>
						<g style="clip-path:url(#SVGID_00000030455141812188863170000001643090497438773929_);">
							
								<ellipse transform="matrix(0.9369 -0.3496 0.3496 0.9369 -66.4826 196.4959)" class="st4" cx="511.1" cy="282.4" rx="26.7" ry="35.7"/>
						</g>
					</g>
				</g>
			</g>
		</g>
		<g>
			<g>
				<g>
					<g>
						<defs>
							<path id="SVGID_00000141447081893757105770000012004301384945097623_" d="M769.2,741.9c-84.9,93-318.9,17.4-522.8-168.8
								S-54.1,160.7,30.8,67.7s318.9-17.4,522.8,168.8S854.1,649,769.2,741.9z M508.8,285.5C334.4,126.1,145.7,48.8,87.3,112.7
								s35.8,244.8,210.2,404.1S660.7,753.5,719,689.6C777.4,625.7,683.2,444.7,508.8,285.5z"/>
						</defs>
						<clipPath id="SVGID_00000155844423737004823340000008207400544974723726_">
							<use xlink:href="#SVGID_00000141447081893757105770000012004301384945097623_"  style="overflow:visible;"/>
						</clipPath>
						<g style="clip-path:url(#SVGID_00000155844423737004823340000008207400544974723726_);">
							
								<ellipse transform="matrix(0.9369 -0.3496 0.3496 0.9369 -158.2747 310.499)" class="st4" cx="781" cy="593.7" rx="19.9" ry="29.5"/>
						</g>
					</g>
				</g>
			</g>
		</g>
		<g>
			<g>
				<g>
					<g>
						<defs>
							<path id="SVGID_00000125602001535371404150000002521646256136464019_" d="M769.2,741.9c-84.9,93-318.9,17.4-522.8-168.8
								S-54.1,160.7,30.8,67.7s318.9-17.4,522.8,168.8S854.1,649,769.2,741.9z M508.8,285.5C334.4,126.1,145.7,48.8,87.3,112.7
								s35.8,244.8,210.2,404.1S660.7,753.5,719,689.6C777.4,625.7,683.2,444.7,508.8,285.5z"/>
						</defs>
						<clipPath id="SVGID_00000008831027715745864000000016171450037756353923_">
							<use xlink:href="#SVGID_00000125602001535371404150000002521646256136464019_"  style="overflow:visible;"/>
						</clipPath>
						<g style="clip-path:url(#SVGID_00000008831027715745864000000016171450037756353923_);">
							
								<ellipse transform="matrix(0.9369 -0.3496 0.3496 0.9369 -202.7534 288.7106)" class="st4" cx="698.4" cy="706" rx="44.4" ry="26.3"/>
						</g>
					</g>
				</g>
			</g>
		</g>
		<g>
			<g>
				<g>
					<g>
						<defs>
							<path id="SVGID_00000094586222549642250040000002989752012153234598_" d="M769.2,741.9c-84.9,93-318.9,17.4-522.8-168.8
								S-54.1,160.7,30.8,67.7s318.9-17.4,522.8,168.8S854.1,649,769.2,741.9z M508.8,285.5C334.4,126.1,145.7,48.8,87.3,112.7
								s35.8,244.8,210.2,404.1S660.7,753.5,719,689.6C777.4,625.7,683.2,444.7,508.8,285.5z"/>
						</defs>
						<clipPath id="SVGID_00000156560853591901501180000002015255987557903238_">
							<use xlink:href="#SVGID_00000094586222549642250040000002989752012153234598_"  style="overflow:visible;"/>
						</clipPath>
						<g style="clip-path:url(#SVGID_00000156560853591901501180000002015255987557903238_);">
							
								<ellipse transform="matrix(0.9369 -0.3496 0.3496 0.9369 -228.7434 244.2727)" class="st4" cx="562.3" cy="755.8" rx="38" ry="35"/>
						</g>
					</g>
				</g>
			</g>
		</g>
		<g>
			<g>
				<g>
					<g>
						<defs>
							<path id="SVGID_00000102516415743222703910000012434377029398276020_" d="M769.2,741.9c-84.9,93-318.9,17.4-522.8-168.8
								S-54.1,160.7,30.8,67.7s318.9-17.4,522.8,168.8S854.1,649,769.2,741.9z M508.8,285.5C334.4,126.1,145.7,48.8,87.3,112.7
								s35.8,244.8,210.2,404.1S660.7,753.5,719,689.6C777.4,625.7,683.2,444.7,508.8,285.5z"/>
						</defs>
						<clipPath id="SVGID_00000012449825789442055500000016404666012715312827_">
							<use xlink:href="#SVGID_00000102516415743222703910000012434377029398276020_"  style="overflow:visible;"/>
						</clipPath>
						<g style="clip-path:url(#SVGID_00000012449825789442055500000016404666012715312827_);">
							
								<ellipse transform="matrix(0.9369 -0.3496 0.3496 0.9369 -196.3124 196.5777)" class="st4" cx="446.4" cy="642.1" rx="38" ry="35"/>
						</g>
					</g>
				</g>
			</g>
		</g>
		<g>
			<g>
				<g>
					<g>
						<defs>
							<path id="SVGID_00000155836481190223447290000015768877507257425852_" d="M769.2,741.9c-84.9,93-318.9,17.4-522.8-168.8
								S-54.1,160.7,30.8,67.7s318.9-17.4,522.8,168.8S854.1,649,769.2,741.9z M508.8,285.5C334.4,126.1,145.7,48.8,87.3,112.7
								s35.8,244.8,210.2,404.1S660.7,753.5,719,689.6C777.4,625.7,683.2,444.7,508.8,285.5z"/>
						</defs>
						<clipPath id="SVGID_00000060747288976977484040000006896151595297240706_">
							<use xlink:href="#SVGID_00000155836481190223447290000015768877507257425852_"  style="overflow:visible;"/>
						</clipPath>
						<g style="clip-path:url(#SVGID_00000060747288976977484040000006896151595297240706_);">
							
								<ellipse transform="matrix(0.6818 -0.7316 0.7316 0.6818 -361.6967 419.9508)" class="st4" cx="301.9" cy="625.7" rx="35.7" ry="56.6"/>
						</g>
					</g>
				</g>
			</g>
		</g>
		<g>
			<g>
				<g>
					<g>
						<defs>
							<path id="SVGID_00000030488678463616927270000011424550303483133111_" d="M769.2,741.9c-84.9,93-318.9,17.4-522.8-168.8
								S-54.1,160.7,30.8,67.7s318.9-17.4,522.8,168.8S854.1,649,769.2,741.9z M508.8,285.5C334.4,126.1,145.7,48.8,87.3,112.7
								s35.8,244.8,210.2,404.1S660.7,753.5,719,689.6C777.4,625.7,683.2,444.7,508.8,285.5z"/>
						</defs>
						<clipPath id="SVGID_00000005983564514426052900000005853477739603138998_">
							<use xlink:href="#SVGID_00000030488678463616927270000011424550303483133111_"  style="overflow:visible;"/>
						</clipPath>
						<g style="clip-path:url(#SVGID_00000005983564514426052900000005853477739603138998_);">
							
								<ellipse transform="matrix(0.9369 -0.3496 0.3496 0.9369 -138.3287 99.8316)" class="st4" cx="207.4" cy="433.1" rx="38" ry="54.6"/>
						</g>
					</g>
				</g>
			</g>
		</g>
		<g>
			<g>
				<g>
					<g>
						<defs>
							<path id="SVGID_00000061440739389671960760000003532459984228191122_" d="M769.2,741.9c-84.9,93-318.9,17.4-522.8-168.8
								S-54.1,160.7,30.8,67.7s318.9-17.4,522.8,168.8S854.1,649,769.2,741.9z M508.8,285.5C334.4,126.1,145.7,48.8,87.3,112.7
								s35.8,244.8,210.2,404.1S660.7,753.5,719,689.6C777.4,625.7,683.2,444.7,508.8,285.5z"/>
						</defs>
						<clipPath id="SVGID_00000079450814767792652400000003549572844426662316_">
							<use xlink:href="#SVGID_00000061440739389671960760000003532459984228191122_"  style="overflow:visible;"/>
						</clipPath>
						<g style="clip-path:url(#SVGID_00000079450814767792652400000003549572844426662316_);">
							
								<ellipse transform="matrix(0.9369 -0.3496 0.3496 0.9369 -104.8374 32.9335)" class="st4" cx="38.8" cy="306.9" rx="38" ry="35"/>
						</g>
					</g>
				</g>
			</g>
		</g>
		<g>
			<g>
				<g>
					<g>
						<defs>
							<path id="SVGID_00000013883917891839126180000014737938693888924039_" d="M769.2,741.9c-84.9,93-318.9,17.4-522.8-168.8
								S-54.1,160.7,30.8,67.7s318.9-17.4,522.8,168.8S854.1,649,769.2,741.9z M508.8,285.5C334.4,126.1,145.7,48.8,87.3,112.7
								s35.8,244.8,210.2,404.1S660.7,753.5,719,689.6C777.4,625.7,683.2,444.7,508.8,285.5z"/>
						</defs>
						<clipPath id="SVGID_00000060742044155644158980000011183319929234370964_">
							<use xlink:href="#SVGID_00000013883917891839126180000014737938693888924039_"  style="overflow:visible;"/>
						</clipPath>
						<g style="clip-path:url(#SVGID_00000060742044155644158980000011183319929234370964_);">
							
								<ellipse transform="matrix(0.9369 -0.3496 0.3496 0.9369 -42.4331 29.286)" class="st4" cx="59.9" cy="132.2" rx="38" ry="35"/>
						</g>
					</g>
				</g>
			</g>
		</g>
		<g>
			<g>
				<g>
					<g>
						<defs>
							<path id="SVGID_00000089575223920943629470000006876428102342068393_" d="M769.2,741.9c-84.9,93-318.9,17.4-522.8-168.8
								S-54.1,160.7,30.8,67.7s318.9-17.4,522.8,168.8S854.1,649,769.2,741.9z M508.8,285.5C334.4,126.1,145.7,48.8,87.3,112.7
								s35.8,244.8,210.2,404.1S660.7,753.5,719,689.6C777.4,625.7,683.2,444.7,508.8,285.5z"/>
						</defs>
						<clipPath id="SVGID_00000057831657017154481110000016776035686545647777_">
							<use xlink:href="#SVGID_00000089575223920943629470000006876428102342068393_"  style="overflow:visible;"/>
						</clipPath>
						<g style="clip-path:url(#SVGID_00000057831657017154481110000016776035686545647777_);">
							
								<ellipse transform="matrix(0.9369 -0.3496 0.3496 0.9369 -1.0974 59.7263)" class="st4" cx="164.9" cy="32.9" rx="38" ry="35"/>
						</g>
					</g>
				</g>
			</g>
		</g>
	</g>
	<g id="yellow_snake">
		<g>
			<g>
				<g>
					<g>
						<defs>
							<path id="SVGID_00000047060520344476695940000014653661964749385657_" d="M741.9,35.1c92,85.8,14,319.1-174.4,521.1
								S151.9,852,59.9,766.2s-14-319.1,174.4-521.1S649.9-50.8,741.9,35.1z M282.7,290.5C121.4,463.2,42.2,651,105.4,710.1
								s245.2-33.2,406.3-205.8S752.2,143.7,689,84.7C625.8,25.6,443.8,117.9,282.7,290.5z"/>
						</defs>
						<clipPath id="SVGID_00000142882666523636687380000005357981684169448862_">
							<use xlink:href="#SVGID_00000047060520344476695940000014653661964749385657_"  style="overflow:visible;"/>
						</clipPath>
						<g style="clip-path:url(#SVGID_00000142882666523636687380000005357981684169448862_);">
							<g>
								<g>
									<g>
										<g>
											<defs>
												<path id="SVGID_00000039123668208001496430000000128408111797582732_" d="M741.9,35.1c92,85.8,14,319.1-174.4,521.1
													S151.9,852,59.9,766.2s-14-319.1,174.4-521.1S649.9-50.8,741.9,35.1z M282.7,290.5C121.4,463.2,42.2,651,105.4,710.1
													s245.2-33.2,406.3-205.8S752.2,143.7,689,84.7C625.8,25.6,443.8,117.9,282.7,290.5z"/>
											</defs>
											<clipPath id="SVGID_00000103981199744191739130000017964935859013945011_">
												<use xlink:href="#SVGID_00000039123668208001496430000000128408111797582732_"  style="overflow:visible;"/>
											</clipPath>
											<g style="clip-path:url(#SVGID_00000103981199744191739130000017964935859013945011_);">
												<path class="st20" d="M841.2,145.5c-0.7,66.4-17.6,140.7-48.7,214.7c-32.1,76.8-79.8,153.6-137.8,222.3
													c-96.9,115-215,200.2-332.7,240.1c-57.1,19.4-111,26.8-160.1,22.6c-50.9-4.5-94.3-21.8-129.3-51.4
													c-55.4-46.8-84.3-120-83.4-211.7c0.7-66.4,17.6-140.7,48.7-214.7C30,290.5,77.7,213.8,135.7,145.1
													C232.6,30.3,350.8-55,468.4-94.9c57.2-19.5,111.1-26.9,160.2-22.6c50.9,4.5,94.3,21.8,129.3,51.4
													C813.2-19.5,842.1,53.7,841.2,145.5z"/>
												<path class="st20" d="M-50.1,582.1c0.7-66.2,17.6-140.5,48.7-214.5C14.5,329.8,34,292,56.7,255.2
													c23.3-37.8,50.2-74.7,79.7-109.8c49-58,103.4-108.6,161.5-150C354.1-44.9,411.7-75,468.8-94.4s110.7-26.9,159.7-22.4
													c50.7,4.5,94.1,21.8,129,51.1c27.8,23.4,49.2,54,63.2,90.6c13.6,35.4,20.3,76.1,19.9,120.7
													c-0.7,66.2-17.6,140.5-48.5,214.5c-15.9,37.8-35.4,75.6-58.1,112.4c-23.3,37.8-50.2,74.7-79.7,109.8
													c-49,58-103.4,108.6-161.5,150C436.6,772.5,379,802.6,321.9,822c-57.3,19.3-111.1,26.7-160.2,22.5
													c-50.7-4.5-94.1-21.8-129-51.1c-27.8-23.4-49.2-54-63.2-90.6C-43.9,667.3-50.5,626.6-50.1,582.1L-50.1,582.1
													 M-51.5,582.1c-1,88.3,26.1,163.9,83.4,212.3C175.6,915.5,454.5,821,655.1,583.2c120.5-142.7,185.2-304.8,186.8-437.7
													c1-88.3-26.1-163.9-83.4-212.3C614.8-187.9,335.9-93.4,135.3,144.4C14.6,287.2-50,449.2-51.5,582.1L-51.5,582.1z"/>
											</g>
										</g>
									</g>
								</g>
							</g>
						</g>
					</g>
				</g>
			</g>
		</g>
		<g>
			<g>
				<g>
					<g>
						<defs>
							<path id="SVGID_00000171702943107977509090000017990323358072692869_" d="M741.9,35.1c92,85.8,14,319.1-174.4,521.1
								S151.9,852,59.9,766.2s-14-319.1,174.4-521.1S649.9-50.8,741.9,35.1z M282.7,290.5C121.4,463.2,42.2,651,105.4,710.1
								s245.2-33.2,406.3-205.8S752.2,143.7,689,84.7C625.8,25.6,443.8,117.9,282.7,290.5z"/>
						</defs>
						<clipPath id="SVGID_00000177450065968163191650000006483556751652447416_">
							<use xlink:href="#SVGID_00000171702943107977509090000017990323358072692869_"  style="overflow:visible;"/>
						</clipPath>
						<g style="clip-path:url(#SVGID_00000177450065968163191650000006483556751652447416_);">
							
								<ellipse transform="matrix(0.6448 -0.7644 0.7644 0.6448 -318.2013 275.2527)" class="st22" cx="137" cy="480" rx="42.1" ry="29.3"/>
						</g>
					</g>
				</g>
			</g>
		</g>
		<g>
			<g>
				<g>
					<g>
						<defs>
							<path id="SVGID_00000010992410638247174680000016411777754529352863_" d="M741.9,35.1c92,85.8,14,319.1-174.4,521.1
								S151.9,852,59.9,766.2s-14-319.1,174.4-521.1S649.9-50.8,741.9,35.1z M282.7,290.5C121.4,463.2,42.2,651,105.4,710.1
								s245.2-33.2,406.3-205.8S752.2,143.7,689,84.7C625.8,25.6,443.8,117.9,282.7,290.5z"/>
						</defs>
						<clipPath id="SVGID_00000048461559401411431630000005931985299883527350_">
							<use xlink:href="#SVGID_00000010992410638247174680000016411777754529352863_"  style="overflow:visible;"/>
						</clipPath>
						<g style="clip-path:url(#SVGID_00000048461559401411431630000005931985299883527350_);">
							
								<ellipse transform="matrix(0.9406 -0.3396 0.3396 0.9406 -45.1323 118.1155)" class="st22" cx="314.9" cy="188" rx="26.1" ry="19.9"/>
						</g>
					</g>
				</g>
			</g>
		</g>
		<g>
			<g>
				<g>
					<g>
						<defs>
							<path id="SVGID_00000156545757620072611750000005855254118118699915_" d="M741.9,35.1c92,85.8,14,319.1-174.4,521.1
								S151.9,852,59.9,766.2s-14-319.1,174.4-521.1S649.9-50.8,741.9,35.1z M282.7,290.5C121.4,463.2,42.2,651,105.4,710.1
								s245.2-33.2,406.3-205.8S752.2,143.7,689,84.7C625.8,25.6,443.8,117.9,282.7,290.5z"/>
						</defs>
						<clipPath id="SVGID_00000041987648754086868100000011856938335987551648_">
							<use xlink:href="#SVGID_00000156545757620072611750000005855254118118699915_"  style="overflow:visible;"/>
						</clipPath>
						<g style="clip-path:url(#SVGID_00000041987648754086868100000011856938335987551648_);">
							
								<ellipse transform="matrix(0.9406 -0.3396 0.3396 0.9406 -4.7258 175.3731)" class="st22" cx="498.7" cy="101.2" rx="28.1" ry="19.9"/>
						</g>
					</g>
				</g>
			</g>
		</g>
		<g>
			<g>
				<g>
					<g>
						<defs>
							<path id="SVGID_00000127020993085623889950000000805669506872671400_" d="M741.9,35.1c92,85.8,14,319.1-174.4,521.1
								S151.9,852,59.9,766.2s-14-319.1,174.4-521.1S649.9-50.8,741.9,35.1z M282.7,290.5C121.4,463.2,42.2,651,105.4,710.1
								s245.2-33.2,406.3-205.8S752.2,143.7,689,84.7C625.8,25.6,443.8,117.9,282.7,290.5z"/>
						</defs>
						<clipPath id="SVGID_00000157268745994174670330000001528000495885709724_">
							<use xlink:href="#SVGID_00000127020993085623889950000000805669506872671400_"  style="overflow:visible;"/>
						</clipPath>
						<g style="clip-path:url(#SVGID_00000157268745994174670330000001528000495885709724_);">
							
								<ellipse transform="matrix(1.940068e-02 -0.9998 0.9998 1.940068e-02 -212.3277 504.6893)" class="st22" cx="151.1" cy="360.6" rx="31.5" ry="27.7"/>
						</g>
					</g>
				</g>
			</g>
		</g>
		<g>
			<g>
				<g>
					<g>
						<defs>
							<path id="SVGID_00000046341965330907268350000010087385428967346868_" d="M741.9,35.1c92,85.8,14,319.1-174.4,521.1
								S151.9,852,59.9,766.2s-14-319.1,174.4-521.1S649.9-50.8,741.9,35.1z M282.7,290.5C121.4,463.2,42.2,651,105.4,710.1
								s245.2-33.2,406.3-205.8S752.2,143.7,689,84.7C625.8,25.6,443.8,117.9,282.7,290.5z"/>
						</defs>
						<clipPath id="SVGID_00000044155611457585511810000012580598720803604634_">
							<use xlink:href="#SVGID_00000046341965330907268350000010087385428967346868_"  style="overflow:visible;"/>
						</clipPath>
						<g style="clip-path:url(#SVGID_00000044155611457585511810000012580598720803604634_);">
							
								<ellipse transform="matrix(0.9406 -0.3396 0.3396 0.9406 -81.2476 112.146)" class="st22" cx="279.8" cy="288.2" rx="35.7" ry="26.7"/>
						</g>
					</g>
				</g>
			</g>
		</g>
		<g>
			<g>
				<g>
					<g>
						<defs>
							<path id="SVGID_00000088132931642176975820000016353841883464194730_" d="M741.9,35.1c92,85.8,14,319.1-174.4,521.1
								S151.9,852,59.9,766.2s-14-319.1,174.4-521.1S649.9-50.8,741.9,35.1z M282.7,290.5C121.4,463.2,42.2,651,105.4,710.1
								s245.2-33.2,406.3-205.8S752.2,143.7,689,84.7C625.8,25.6,443.8,117.9,282.7,290.5z"/>
						</defs>
						<clipPath id="SVGID_00000179618853543176052780000016856765563091718047_">
							<use xlink:href="#SVGID_00000088132931642176975820000016353841883464194730_"  style="overflow:visible;"/>
						</clipPath>
						<g style="clip-path:url(#SVGID_00000179618853543176052780000016856765563091718047_);">
							
								<ellipse transform="matrix(0.9406 -0.3396 0.3396 0.9406 27.9368 203.0153)" class="st22" cx="594" cy="21.7" rx="29.5" ry="19.9"/>
						</g>
					</g>
				</g>
			</g>
		</g>
		<g>
			<g>
				<g>
					<g>
						<defs>
							<path id="SVGID_00000079459655445029897100000016468038238530292403_" d="M741.9,35.1c92,85.8,14,319.1-174.4,521.1
								S151.9,852,59.9,766.2s-14-319.1,174.4-521.1S649.9-50.8,741.9,35.1z M282.7,290.5C121.4,463.2,42.2,651,105.4,710.1
								s245.2-33.2,406.3-205.8S752.2,143.7,689,84.7C625.8,25.6,443.8,117.9,282.7,290.5z"/>
						</defs>
						<clipPath id="SVGID_00000036236976490369497830000016386977066804748223_">
							<use xlink:href="#SVGID_00000079459655445029897100000016468038238530292403_"  style="overflow:visible;"/>
						</clipPath>
						<g style="clip-path:url(#SVGID_00000036236976490369497830000016386977066804748223_);">
							
								<ellipse transform="matrix(0.9406 -0.3396 0.3396 0.9406 6.1191 245.7797)" class="st22" cx="705.3" cy="105.4" rx="26.3" ry="44.4"/>
						</g>
					</g>
				</g>
			</g>
		</g>
		<g>
			<g>
				<g>
					<g>
						<defs>
							<path id="SVGID_00000136384421937796991560000006395216734499678373_" d="M741.9,35.1c92,85.8,14,319.1-174.4,521.1
								S151.9,852,59.9,766.2s-14-319.1,174.4-521.1S649.9-50.8,741.9,35.1z M282.7,290.5C121.4,463.2,42.2,651,105.4,710.1
								s245.2-33.2,406.3-205.8S752.2,143.7,689,84.7C625.8,25.6,443.8,117.9,282.7,290.5z"/>
						</defs>
						<clipPath id="SVGID_00000132799033866778522600000012161439695164351419_">
							<use xlink:href="#SVGID_00000136384421937796991560000006395216734499678373_"  style="overflow:visible;"/>
						</clipPath>
						<g style="clip-path:url(#SVGID_00000132799033866778522600000012161439695164351419_);">
							
								<ellipse transform="matrix(0.9406 -0.3396 0.3396 0.9406 -37.4302 270.304)" class="st22" cx="753.6" cy="242.1" rx="35" ry="38"/>
						</g>
					</g>
				</g>
			</g>
		</g>
		<g>
			<g>
				<g>
					<g>
						<defs>
							<path id="SVGID_00000072259092547747560210000008660090715388745144_" d="M741.9,35.1c92,85.8,14,319.1-174.4,521.1
								S151.9,852,59.9,766.2s-14-319.1,174.4-521.1S649.9-50.8,741.9,35.1z M282.7,290.5C121.4,463.2,42.2,651,105.4,710.1
								s245.2-33.2,406.3-205.8S752.2,143.7,689,84.7C625.8,25.6,443.8,117.9,282.7,290.5z"/>
						</defs>
						<clipPath id="SVGID_00000076599357163260523850000004038338011377353400_">
							<use xlink:href="#SVGID_00000072259092547747560210000008660090715388745144_"  style="overflow:visible;"/>
						</clipPath>
						<g style="clip-path:url(#SVGID_00000076599357163260523850000004038338011377353400_);">
							
								<ellipse transform="matrix(0.9406 -0.3396 0.3396 0.9406 -83.2071 238.1077)" class="st22" cx="638.7" cy="356.8" rx="35" ry="38"/>
						</g>
					</g>
				</g>
			</g>
		</g>
		<g>
			<g>
				<g>
					<g>
						<defs>
							<path id="SVGID_00000132070641573866175230000004386873123713060787_" d="M741.9,35.1c92,85.8,14,319.1-174.4,521.1
								S151.9,852,59.9,766.2s-14-319.1,174.4-521.1S649.9-50.8,741.9,35.1z M282.7,290.5C121.4,463.2,42.2,651,105.4,710.1
								s245.2-33.2,406.3-205.8S752.2,143.7,689,84.7C625.8,25.6,443.8,117.9,282.7,290.5z"/>
						</defs>
						<clipPath id="SVGID_00000107580854555388753020000017660168417133960611_">
							<use xlink:href="#SVGID_00000132070641573866175230000004386873123713060787_"  style="overflow:visible;"/>
						</clipPath>
						<g style="clip-path:url(#SVGID_00000107580854555388753020000017660168417133960611_);">
							
								<ellipse transform="matrix(0.6896 -0.7242 0.7242 0.6896 -170.5101 605.1521)" class="st22" cx="620.7" cy="501.5" rx="56.6" ry="35.7"/>
						</g>
					</g>
				</g>
			</g>
		</g>
		<g>
			<g>
				<g>
					<g>
						<defs>
							<path id="SVGID_00000166661345118508248440000009644758848847186818_" d="M741.9,35.1c92,85.8,14,319.1-174.4,521.1
								S151.9,852,59.9,766.2s-14-319.1,174.4-521.1S649.9-50.8,741.9,35.1z M282.7,290.5C121.4,463.2,42.2,651,105.4,710.1
								s245.2-33.2,406.3-205.8S752.2,143.7,689,84.7C625.8,25.6,443.8,117.9,282.7,290.5z"/>
						</defs>
						<clipPath id="SVGID_00000049911368533744739390000017408609450029265043_">
							<use xlink:href="#SVGID_00000166661345118508248440000009644758848847186818_"  style="overflow:visible;"/>
						</clipPath>
						<g style="clip-path:url(#SVGID_00000049911368533744739390000017408609450029265043_);">
							
								<ellipse transform="matrix(0.9406 -0.3396 0.3396 0.9406 -176.2005 180.3565)" class="st22" cx="427.2" cy="593.6" rx="54.6" ry="38"/>
						</g>
					</g>
				</g>
			</g>
		</g>
		<g>
			<g>
				<g>
					<g>
						<defs>
							<path id="SVGID_00000112590326257534470740000016943984240951938712_" d="M741.9,35.1c92,85.8,14,319.1-174.4,521.1
								S151.9,852,59.9,766.2s-14-319.1,174.4-521.1S649.9-50.8,741.9,35.1z M282.7,290.5C121.4,463.2,42.2,651,105.4,710.1
								s245.2-33.2,406.3-205.8S752.2,143.7,689,84.7C625.8,25.6,443.8,117.9,282.7,290.5z"/>
						</defs>
						<clipPath id="SVGID_00000000935108781776118860000008210621049012852611_">
							<use xlink:href="#SVGID_00000112590326257534470740000016943984240951938712_"  style="overflow:visible;"/>
						</clipPath>
						<g style="clip-path:url(#SVGID_00000000935108781776118860000008210621049012852611_);">
							
								<ellipse transform="matrix(0.9406 -0.3396 0.3396 0.9406 -240.6324 146.7638)" class="st22" cx="299" cy="760.9" rx="35" ry="38"/>
						</g>
					</g>
				</g>
			</g>
		</g>
		<g>
			<g>
				<g>
					<g>
						<defs>
							<path id="SVGID_00000057126097600671943470000006483385597729640631_" d="M741.9,35.1c92,85.8,14,319.1-174.4,521.1
								S151.9,852,59.9,766.2s-14-319.1,174.4-521.1S649.9-50.8,741.9,35.1z M282.7,290.5C121.4,463.2,42.2,651,105.4,710.1
								s245.2-33.2,406.3-205.8S752.2,143.7,689,84.7C625.8,25.6,443.8,117.9,282.7,290.5z"/>
						</defs>
						<clipPath id="SVGID_00000163779960765648898020000011017262597127516816_">
							<use xlink:href="#SVGID_00000057126097600671943470000006483385597729640631_"  style="overflow:visible;"/>
						</clipPath>
						<g style="clip-path:url(#SVGID_00000163779960765648898020000011017262597127516816_);">
							
								<ellipse transform="matrix(0.9406 -0.3396 0.3396 0.9406 -243.1532 86.1572)" class="st22" cx="124.6" cy="737.8" rx="35" ry="38"/>
						</g>
					</g>
				</g>
			</g>
		</g>
		<g>
			<g>
				<g>
					<g>
						<defs>
							<path id="SVGID_00000129203835516868959610000010572894730947873206_" d="M741.9,35.1c92,85.8,14,319.1-174.4,521.1
								S151.9,852,59.9,766.2s-14-319.1,174.4-521.1S649.9-50.8,741.9,35.1z M282.7,290.5C121.4,463.2,42.2,651,105.4,710.1
								s245.2-33.2,406.3-205.8S752.2,143.7,689,84.7C625.8,25.6,443.8,117.9,282.7,290.5z"/>
						</defs>
						<clipPath id="SVGID_00000056405147159001660780000017656318949239582132_">
							<use xlink:href="#SVGID_00000129203835516868959610000010572894730947873206_"  style="overflow:visible;"/>
						</clipPath>
						<g style="clip-path:url(#SVGID_00000056405147159001660780000017656318949239582132_);">
							
								<ellipse transform="matrix(0.9406 -0.3396 0.3396 0.9406 -213.0237 46.5262)" class="st22" cx="26.4" cy="631.9" rx="35" ry="38"/>
						</g>
					</g>
				</g>
			</g>
		</g>
		<g>
			<path id="SVGID_00000113347834597533046630000015558874869071291301_" class="st36" d="M741.9,35.1c92,85.8,14,319.1-174.4,521.1
				S151.9,852,59.9,766.2s-14-319.1,174.4-521.1S649.9-50.8,741.9,35.1z M282.7,290.5C121.4,463.2,42.2,651,105.4,710.1
				s245.2-33.2,406.3-205.8S752.2,143.7,689,84.7C625.8,25.6,443.8,117.9,282.7,290.5z"/>
		</g>
	</g>
</g>
<g>
	<g>
		<g>
			<g>
				<g>
					<path class="st37" d="M13.3,514.5"/>
					<path class="st37" d="M-54.3,527.7"/>
					<path class="st37" d="M-51,524.4"/>
					<path class="st37" d="M-49.4,494.8"/>
					<path class="st38" d="M401.7,146.2c32.4,139,72.2,145.6,139,250c17.2,27,30.3,56.2,30.3,89.4c0,46.3-16.1,85.1-49.6,118.6
						c-33.5,32.4-73.3,49.6-119.7,49.6s-86.2-16.1-118.6-49.6c-33.5-32.4-49.6-72.2-49.6-118.6c0-33.5,12.8-62.4,30.3-89.4
						C330.5,291.8,370.6,284.1,401.7,146.2L401.7,146.2L401.7,146.2z"/>
					<path class="st39" d="M296.2,441.4c9.8-1.1,17.2,6.5,18.3,15c2.2,22.6,7.6,44.2,16.1,61.3c9.8,17.2,22.6,32.4,43.1,44.2
						c8.7,4.4,10.9,15,6.5,23.7s-15,10.9-23.7,6.5c-25.9-15-43.1-34.4-56.2-58.1c-11.7-22.6-18.3-48.5-20.4-74.4
						C280.1,450.2,286.4,441.4,296.2,441.4z"/>
				</g>
			</g>
		</g>
	</g>
</g>
</svg>
