<?xml version="1.0" encoding="utf-8"?>
<!-- Generator: Adobe Illustrator 26.0.0, SVG Export Plug-In . SVG Version: 6.00 Build 0)  -->
<svg version="1.1" id="Layer_1" xmlns="http://www.w3.org/2000/svg" xmlns:xlink="http://www.w3.org/1999/xlink" x="0px" y="0px"
	 viewBox="0 0 512 512" style="enable-background:new 0 0 512 512;" xml:space="preserve">
<style type="text/css">
	.st0{fill:#704324;}
	.st1{fill:#A26234;}
	.st2{fill:none;stroke:#000000;stroke-width:17;stroke-miterlimit:10;}
	.st3{fill:#8E562B;}
	.st4{fill:none;stroke:#000000;stroke-width:3;stroke-miterlimit:10;}
	.st5{fill-rule:evenodd;clip-rule:evenodd;fill:#42A5F5;stroke:#000000;stroke-width:3;stroke-miterlimit:10;}
	.st6{fill-rule:evenodd;clip-rule:evenodd;fill:#FFFFFF;}
	.st7{fill:#4FC153;}
</style>
<g>
	<path class="st0" d="M512,0v225.8c-51.2,0-51.2-47.5-102.4-47.5s-51.2,47.5-102.5,47.5c-51.1,0-51.1-47.5-102.3-47.5
		s-51.2,47.5-102.4,47.5S51.2,178.2,0,178.2V0H512z"/>
</g>
<path class="st1" d="M8.3,512c0.6-136.8-0.6-218.4,0-355.3c49.5,0,49.5,70.5,99.1,70.5s49.5-70.5,99.1-70.5s49.5,70.5,99,70.5
	c49.7,0,49.7-70.5,99.2-70.5s49.5,70.5,99.1,70.5l1.7,284.7"/>
<rect class="st2" width="512.2" height="512.2"/>
<path class="st2" d="M-8,142"/>
<path class="st3" d="M-14,140"/>
<path class="st4" d="M8.3,512L6.5,158.7c49.9,0,49.9,67.4,99.8,67.4s49.9-67.4,99.8-67.4s49.9,67.4,99.7,67.4
	c50,0,50-67.4,99.9-67.4s49.9,67.4,99.8,67.4V512"/>
<g>
	<path class="st5" d="M261.7,335.5c3,12.9,6.7,13.5,12.9,23.2c1.6,2.5,2.8,5.2,2.8,8.3c0,4.3-1.5,7.9-4.6,11
		c-3.1,3-6.8,4.6-11.1,4.6c-4.3,0-8-1.5-11-4.6c-3.1-3-4.6-6.7-4.6-11c0-3.1,1.2-5.8,2.8-8.3C255.1,349,258.8,348.3,261.7,335.5
		L261.7,335.5L261.7,335.5z"/>
</g>
<path class="st3" d="M248.4,255.5"/>
<path class="st5" d="M235.5,264.8"/>
<path class="st6" d="M251.9,362.9c0.9-0.1,1.6,0.6,1.7,1.4c0.2,2.1,0.7,4.1,1.5,5.7c0.9,1.6,2.1,3,4,4.1c0.8,0.4,1,1.4,0.6,2.2
	c-0.4,0.8-1.4,1-2.2,0.6c-2.4-1.4-4-3.2-5.2-5.4c-1.1-2.1-1.7-4.5-1.9-6.9C250.4,363.7,251,362.9,251.9,362.9z"/>
<path class="st5" d="M252.2,266.1"/>
<g>
	<g transform="translate(0.000000,511.000000) scale(0.100000,-0.100000)">
		<path d="M1521.6,2855c-134.1-24.8-214.6-105.9-238.4-241.1c-16-91,6.1-230.6,59.6-373.5c40.3-109.3,148.4-320,210.2-410l15.5-23.2
			l-31.5-9.4c-54.6-16-151.7-56.8-196.4-83.3c-50.8-29.8-98.8-72.3-120.8-105.9c-14.9-23.7-15.5-28.1-15.5-88.8
			c0-60.7,0.5-65.1,15.5-88.8c43.6-67.9,148.4-133,288-178.8c25.9-8.3,49.1-17.1,51.3-19.3c2.8-2.2-16.5-39.7-42.5-82.8
			c-114.2-189.8-192.5-371.3-224-519.2c-16-75-17.7-184.8-3.9-235.6c28.1-103.2,86.1-166.1,184.8-198.6
			c37.5-12.7,51.3-14.4,119.7-13.8c64.6,0,88.3,2.2,143.5,14.9c227.3,53,498.2,194.2,801.7,419.3l78.4,58.5l78.9-58.5
			C2946.2,430.6,3197.8,289.3,3392,227c107.6-34.2,162.2-44.1,248.3-44.1c70.1-0.5,81.1,1.1,120.8,14.9
			c98.2,33.6,155.6,95.4,183.2,197c13.8,51.9,12.7,156.7-2.8,231.2c-34.8,164.4-128,375.2-252.1,569.4l-23.7,36.4l59,19.9
			c133,45.3,242.8,113.1,285.3,175.5l19.3,29.2v64v64l-21,29.2c-11,16.5-36.4,43-56.3,59c-43,35.3-146.8,87.7-227.3,115.3l-59,19.9
			l24.8,38.1c122.5,190.9,216.8,404.4,251.1,567.8c15.5,74.5,16.5,179.3,2.8,231.2c-29.2,107.6-101,178.8-207.5,205.2
			c-45.8,11.6-162.2,8.8-226.2-5c-226.2-48.5-519.2-200.3-815-422.1l-78.9-59l-78.4,58.5c-301.3,224-591.5,375.2-810.6,421.6
			C1668.3,2856.7,1561.8,2862.2,1521.6,2855z M1695.4,2730.4c153.4-27.6,377.9-133,607-286.4c102.6-68.4,215.2-150.6,215.2-156.7
			c0-2.2-20.4-21.5-45.3-42.5c-78.4-65.1-157.8-137.9-261-240l-99.3-97.7l-35.9-3.9c-75-7.7-230.1-31.5-307.9-46.9
			c-44.1-9.4-81.1-16.5-81.7-16.5c-2.8,0-83.3,133.5-118.6,195.9c-77.8,139-141.8,300.1-161.7,405c-11.6,59-11.6,149.5-0.5,187.1
			C1434.9,2726,1529.3,2759.6,1695.4,2730.4z M3724.2,2730.4c40.8-11,72.8-38.1,92.7-76.7c16-32.5,16.5-34.8,16-115.9
			c0-73.9-2.2-89.4-17.1-147.3c-35.9-135.7-113.7-301.3-226.8-484.4c-19.9-32-37.5-59.6-39.2-61.8c-2.2-2.8-40.3,2.8-84.4,12.1
			c-76.1,15.5-227.9,38.6-307.9,47.4l-35.9,3.3l-113.1,111.5c-62.4,60.7-153.4,145.7-203.1,188.2c-49.1,41.9-89.4,78.4-89.4,80.6
			c0,6.6,136.3,105.4,229.5,166.6c113.1,73.9,176.6,110.9,290.2,166.6C3445,2723.7,3612.2,2761.3,3724.2,2730.4z M2661.5,2175.3
			c60.7-50.8,177.1-155,231.2-207.5l46.9-45.3l-71.7,3.9c-94.4,5.5-423.8,5-507.6-0.5l-66.2-4.4l19.3,20.4
			c51.9,54.1,293.5,267.6,303.5,267.6C2618.5,2209.5,2638.9,2194,2661.5,2175.3z M2892.7,1806.7c50.2-2.8,109.8-7.2,133.5-8.8
			l41.9-3.3l66.2-72.8c86.1-94.4,172.2-195.3,172.2-201.9c0-6.6-86.1-107.6-172.2-201.9l-66.2-72.8l-47.4-3.3
			c-259.3-19.9-577.7-19.3-813.3,0l-42.5,3.9l-65.7,72.3c-75.6,82.8-152.8,171.6-165,189.8c-7.7,11-7.7,13.2,0,24.8
			c12.1,17.7,89.4,106.5,165,189.2l65.7,72.8l50.8,3.9c119.7,9.9,194.8,12.1,384.6,12.7C2711.2,1811.7,2842.5,1809.5,2892.7,1806.7z
			 M1976.2,1763.1c-4.4-5.5-34.8-41.4-67.9-79.4l-60.7-69.5l-43.6,58.5c-38.6,52.4-42.5,59.6-33.1,63.4c8.8,3.9,187.6,36.4,205.2,37
			C1982.3,1773.6,1982.3,1771.9,1976.2,1763.1z M3370,1753.7c45.8-8.3,87.2-16.5,92.7-18.2c8.8-3.3,5-11-31.5-60.1
			c-23.2-30.9-43.6-56.3-46.4-56.3c-3.9,0-108.2,118.1-127.5,144.6C3248,1776.4,3237.6,1776.9,3370,1753.7z M1645.2,1691.9
			c2.8-5,32.5-45.8,65.7-90.5l60.7-81.1l-58.5-78.9c-32.5-43.6-62.9-85.5-67.9-92.7l-8.8-13.8l-43.6,12.7
			c-167.7,49.1-294.1,129.7-281.4,180.5c11.6,46.9,105.4,104.8,246.1,152.3C1629.2,1704.6,1638,1705.7,1645.2,1691.9z M3679,1679.8
			c81.7-27.6,181-76.1,208.6-102.6c26.5-25.4,38.6-49.1,34.2-66.8c-7.2-28.7-50.8-66.2-115.3-98.2c-55.2-27-184.8-74.5-204.7-74.5
			c-4.4,0-10.5,4.4-13.2,9.9c-2.8,5-32.5,46.4-66.2,91l-61.3,81.7l43,56.3c23.7,30.9,53.5,71.7,66.8,91
			c13.2,18.8,28.1,34.2,33.1,34.2C3608.9,1701.9,3642.6,1691.9,3679,1679.8z M1939.8,1318.9c23.7-26.5,41.9-49.7,40.8-50.8
			c-2.2-2.8-152.8,22.1-193.1,31.5c-14.4,3.3-25.9,8.3-24.8,10.5c1.1,2.2,20.4,28.7,43,59.6l41.4,55.7l24.8-28.7
			C1885.7,1381.3,1916.1,1346,1939.8,1318.9z M3467.1,1314.5c3.9-7.7,0.5-9.9-23.7-14.9c-53.5-11.6-188.7-33.7-190.9-30.9
			c-1.6,1.1,16,23.2,38.6,48c22.6,25.4,53,60.1,67.3,77.8l27,31.5l38.1-50.8C3444.5,1347.1,3464.3,1319.5,3467.1,1314.5z
			 M1770.4,1183.2c78.4-16,229-39.2,305.7-46.9l35.9-3.9L2214,1032c105.9-104.3,179.9-172.7,258.2-237.2
			c24.8-21,45.3-40.3,45.3-42.5c0-11-224.6-166.6-344.9-239.5c-77.3-46.9-254.4-134.1-323.3-159.5
			c-115.9-42.5-219.6-60.7-299.1-51.9c-73.9,7.7-125.8,47.4-144.6,110.3c-11,37.5-11,128,0.5,187c18.8,101.5,78.9,253.8,154.5,391.8
			c34.2,62.9,121.9,209.1,125.8,209.1C1687.6,1199.8,1725.2,1192,1770.4,1183.2z M3586.3,1138c82.2-133,158.3-282.5,197-386.2
			c39.7-108.2,50.2-157.8,50.2-250c0-81.1-0.5-83.3-16.5-115.9c-19.9-39.2-51.3-65.1-94.9-77.8c-45.8-13.2-157.3-8.3-227.9,10.5
			c-158.9,41.4-360.9,141.8-571.1,282.5c-104.8,70.1-206.9,145.1-206.9,151.2c0,2.2,21.5,22.6,48.5,45.3
			c85.5,72.8,156.2,137.9,257.7,237.2l99.3,97.1l77.3,9.4c88.8,10.5,221.2,32,289.7,46.9c25.9,6.1,49.7,10.5,53,11
			C3544.9,1199.8,3565.3,1171.6,3586.3,1138z M2523,1108.2c65.1-1.6,184.3-0.5,264.3,2.8c80.5,3.3,146.8,5,147.9,3.9
			c5.5-5-306.8-284.7-317.8-284.7c-9.4,0-192.6,160.6-276.4,241.7l-46.9,45.8l55.2-2.8C2379.6,1113.1,2457.9,1110.4,2523,1108.2z"/>
	</g>
</g>
<g>
	<path class="st7" d="M435.3,42.3h-11.7v2.3c0,3.7-3.1,6.8-7,6.8s-7-3-7-6.8v-1.9c-31.6,3.4-56.3,23-56.3,54.4v-0.3
		c0,21.2-17.9,36.4-40,36.4s-40-15.2-40-36.4v0.3c0-33.7-28.4-59-63.4-59s-63.4,25.3-63.4,59v-0.3c0,21.2-18.5,34.8-40.5,34.8
		c-10.7,0-20.7-3.5-28.3-10.8c-2.2-2.1-5.1-3.3-8.3-3.3c-3.1,0-6.1,1.2-8.3,3.3c-2.2,2.1-3.4,5-3.4,8c0,3,1.2,5.8,3.4,8
		c12,11.5,27.9,17.4,44.8,17.4c34.9,0,63.9-23.7,63.9-57.4v0.3c0-21.2,17.9-36.4,40-36.4s40,15.2,40,36.4v-0.3
		c0,33.7,28.4,59,63.4,59s63.4-25.3,63.4-59v0.3c0-21.2,17.9-32.2,40-32.2h18.7c6.5,0,11.7-5.1,11.7-11.3S441.7,42.3,435.3,42.3z"/>
	<path d="M472.7,46.8h-12.7c-3.1-10.4-13-18.1-24.8-18.1h-18.7c-42.7,0-77.4,27.2-77.4,68.3v-0.3c0,13.8-11.6,22.9-25.9,22.9
		s-25.9-9.1-25.9-22.9v0.3c0-41.1-34.7-72.5-77.4-72.5s-77.4,31.4-77.4,72.5v-0.3c0,13.8-12.2,21.3-26.5,21.3
		c-6.9,0-13.4-2.1-18.3-6.8c-4.9-4.7-11.3-7.3-18.2-7.3c-6.9,0-13.3,2.6-18.2,7.3c-4.9,4.7-7.5,10.9-7.5,17.6
		c0,6.6,2.7,12.9,7.5,17.6c14.6,14.1,34.1,21.3,54.7,21.3c42.7,0,78-29.8,78-70.9v0.3c0-13.8,11.6-22.9,25.9-22.9
		c14.3,0,25.9,9.1,25.9,22.9v-0.3c0,41.1,34.7,72.5,77.4,72.5s77.4-31.4,77.4-72.5v0.3c0-13.8,11.6-18.7,25.9-18.7h18.7
		c11.8,0,21.7-7.6,24.8-18.1h12.7c3.9,0,7-3,7-6.8S476.6,46.8,472.7,46.8z M435.3,64.9h-18.7c-22,0-40,11-40,32.2v-0.3
		c0,33.7-28.4,59-63.4,59s-63.4-25.3-63.4-59v0.3c0-21.2-17.9-36.4-40-36.4s-40,15.2-40,36.4v-0.3c0,33.7-29,57.4-63.9,57.4
		c-16.9,0-32.8-5.8-44.8-17.4c-2.2-2.1-3.4-5-3.4-8c0-3,1.2-5.8,3.4-8c2.2-2.1,5.2-3.3,8.3-3.3c3.1,0,6.1,1.2,8.3,3.3
		c7.5,7.3,17.6,10.8,28.3,10.8c22,0,40.5-13.6,40.5-34.8v0.3c0-33.7,28.4-59,63.4-59s63.4,25.3,63.4,59v-0.3
		c0,21.2,17.9,36.4,40,36.4s40-15.2,40-36.4v0.3c0-31.4,24.7-51,56.3-54.4v1.9c0,3.7,3.1,6.8,7,6.8s7-3,7-6.8v-2.3h11.7
		c6.5,0,11.7,5.1,11.7,11.3S441.7,64.9,435.3,64.9z"/>
</g>
</svg>
