<?xml version="1.0" encoding="utf-8"?>
<!-- Generator: Adobe Illustrator 26.0.0, SVG Export Plug-In . SVG Version: 6.00 Build 0)  -->
<svg version="1.1" id="Layer_1" xmlns="http://www.w3.org/2000/svg" xmlns:xlink="http://www.w3.org/1999/xlink" x="0px" y="0px"
	 viewBox="0 0 800 800" style="enable-background:new 0 0 800 800;" xml:space="preserve">
<style type="text/css">
	.st0{fill:#C69C6D;}
	.st1{clip-path:url(#SVGID_00000041270517568204208440000005993734367911393944_);}
	.st2{clip-path:url(#SVGID_00000167383129653904673320000008889837868082883255_);}
	.st3{fill:#3776AB;}
	.st4{clip-path:url(#SVGID_00000183958791801181214380000006469172896308768410_);}
	.st5{clip-path:url(#SVGID_00000082327468737026328770000004705589828700288432_);}
	.st6{fill:#FFD343;}
	.st7{fill-rule:evenodd;clip-rule:evenodd;fill:#42A5F5;stroke:#000000;stroke-width:25;stroke-miterlimit:10;}
	.st8{fill-rule:evenodd;clip-rule:evenodd;fill:#FFFFFF;stroke:#FFFFFF;stroke-width:25;stroke-miterlimit:10;}
</style>
<g>
	<g>
		<g>
			<path class="st0" d="M130.9,416.3"/>
			<path class="st0" d="M74.7,427.2"/>
			<path class="st0" d="M77.4,424.5"/>
			<path class="st0" d="M78.8,399.8"/>
			<g>
				<g>
					<defs>
						<path id="SVGID_1_" d="M769.2,741.9c-84.9,93-318.9,17.4-522.8-168.8S-54.1,160.7,30.8,67.7s318.9-17.4,522.8,168.8
							S854.1,649,769.2,741.9z M508.8,285.5C334.4,126.1,145.7,48.8,87.3,112.7s35.8,244.8,210.2,404.1S660.7,753.5,719,689.6
							C777.4,625.7,683.2,444.7,508.8,285.5z"/>
					</defs>
					<clipPath id="SVGID_00000024695187579761038360000009370934901071331763_">
						<use xlink:href="#SVGID_1_"  style="overflow:visible;"/>
					</clipPath>
					<g style="clip-path:url(#SVGID_00000024695187579761038360000009370934901071331763_);">
						<g>
							<defs>
								<path id="SVGID_00000132078650874646397520000005665849547730758016_" d="M769.2,741.9c-84.9,93-318.9,17.4-522.8-168.8
									S-54.1,160.7,30.8,67.7s318.9-17.4,522.8,168.8S854.1,649,769.2,741.9z M508.8,285.5C334.4,126.1,145.7,48.8,87.3,112.7
									s35.8,244.8,210.2,404.1S660.7,753.5,719,689.6C777.4,625.7,683.2,444.7,508.8,285.5z"/>
							</defs>
							<clipPath id="SVGID_00000130641041895015015780000007362642743707098001_">
								<use xlink:href="#SVGID_00000132078650874646397520000005665849547730758016_"  style="overflow:visible;"/>
							</clipPath>
							<g style="clip-path:url(#SVGID_00000130641041895015015780000007362642743707098001_);">
								<path class="st3" d="M659.9,842.3c-66.4,0-140.8-16-215.3-46.3c-77.1-31.3-154.4-78.2-223.8-135.5
									c-116.1-95.7-202.5-212.8-243.7-330c-20-56.9-28.1-110.8-24.3-159.9c4-50.9,20.8-94.6,50-129.9
									c46.2-55.9,119-85.6,210.8-85.6c66.4,0,140.8,16,215.3,46.3C506.1,32.8,583.4,79.6,652.8,137
									c115.9,95.7,202.4,212.9,243.5,330c20,56.9,28.1,110.8,24.3,159.9c-4,50.9-20.8,94.6-50,129.9
									C824.5,812.7,751.6,842.3,659.9,842.3z"/>
								<path d="M213.7-44.2c66.2,0,140.7,16,215,46.3c38,15.5,76,34.6,113,56.9c38.1,22.9,75.3,49.4,110.7,78.4
									c58.5,48.3,109.7,102.2,151.8,159.9c40.7,55.8,71.6,113,91.5,169.9s28.1,110.5,24.1,159.6c-4,50.7-20.8,94.3-49.8,129.6
									c-23.2,28.1-53.5,49.8-90,64.2c-35.2,14-75.8,21.1-120.4,21.1c-66.2,0-140.7-16-215-46.2c-38-15.5-76-34.6-113-56.9
									c-38.1-22.9-75.3-49.4-110.7-78.4C162.4,611.9,111.2,558,69.1,500.3c-40.7-55.8-71.6-113-91.5-169.9
									c-19.9-57-28-110.8-24.1-159.9c4-50.7,20.8-94.3,49.8-129.6c23.2-28.1,53.5-49.8,90-64.2C128.6-37.2,169.2-44.2,213.7-44.2
									L213.7-44.2 M213.7-45.5c-88.3,0-163.6,27.8-211.3,85.7C-117.1,185.1-19.7,463,220.3,661c144,118.9,306.7,182,439.6,182
									c88.3,0,163.6-27.8,211.3-85.7c119.6-144.9,22.1-422.9-217.9-620.9C509.2,17.4,346.6-45.5,213.7-45.5L213.7-45.5z"/>
							</g>
						</g>
					</g>
				</g>
			</g>
		</g>
	</g>
	<g>
		<g>
			<defs>
				<path id="SVGID_00000090278880350154082390000015025831977358973850_" d="M741.9,35.1c92.1,85.9,14,319.1-174.4,521
					s-415.6,296-507.7,210.1s-14-319.1,174.4-521S649.9-50.8,741.9,35.1z M282.7,290.6C121.5,463.3,42.2,651.1,105.4,710.2
					c63.3,59.1,245.1-33.2,406.3-205.9S752.3,143.7,689,84.7C625.7,25.6,443.8,117.9,282.7,290.6z"/>
			</defs>
			<clipPath id="SVGID_00000168107574179284013210000009111020752871982217_">
				<use xlink:href="#SVGID_00000090278880350154082390000015025831977358973850_"  style="overflow:visible;"/>
			</clipPath>
			<g style="clip-path:url(#SVGID_00000168107574179284013210000009111020752871982217_);">
				<g>
					<defs>
						<path id="SVGID_00000161610837164120322380000017951207715110567317_" d="M741.9,35.1c92.1,85.9,14,319.1-174.4,521
							s-415.6,296-507.7,210.1s-14-319.1,174.4-521S649.9-50.8,741.9,35.1z M282.7,290.6C121.5,463.3,42.2,651.1,105.4,710.2
							c63.3,59.1,245.1-33.2,406.3-205.9S752.3,143.7,689,84.7C625.7,25.6,443.8,117.9,282.7,290.6z"/>
					</defs>
					<clipPath id="SVGID_00000000907870014859647530000003134418299623076757_">
						<use xlink:href="#SVGID_00000161610837164120322380000017951207715110567317_"  style="overflow:visible;"/>
					</clipPath>
					<g style="clip-path:url(#SVGID_00000000907870014859647530000003134418299623076757_);">
						<path class="st6" d="M841.1,145.4c-0.7,66.4-17.5,140.6-48.6,214.8c-32.1,76.7-79.8,153.6-137.9,222.3
							c-96.9,115.1-215,200.2-332.6,240.1c-57.1,19.4-111.1,26.9-160.1,22.6c-50.8-4.5-94.4-21.9-129.3-51.4
							c-55.5-46.8-84.3-120-83.4-211.7c0.7-66.4,17.5-140.6,48.6-214.8C30,290.6,77.7,213.8,135.7,145
							c97-114.8,215.1-200.1,332.7-240c57.1-19.4,111.1-26.9,160.1-22.6c50.8,4.5,94.4,21.9,129.3,51.4
							C813.3-19.4,842.1,53.7,841.1,145.4z"/>
						<path class="st6" d="M-50.1,582.1c0.7-66.2,17.5-140.5,48.6-214.5c15.9-37.8,35.4-75.6,58.1-112.4
							c23.3-37.9,50.2-74.7,79.6-109.8c48.9-58,103.3-108.6,161.5-150.1C354-44.8,411.5-75,468.6-94.3s110.8-26.9,159.9-22.4
							c50.7,4.5,94.1,21.8,129,51.2c27.9,23.5,49.2,54,63.2,90.6c13.6,35.4,20.3,76,19.8,120.6c-0.7,66.2-17.5,140.5-48.5,214.5
							c-15.9,37.8-35.4,75.6-58.1,112.4c-23.3,37.9-50.2,74.7-79.6,109.8c-48.8,58-103.3,108.6-161.4,150
							C436.7,772.5,379.2,802.8,322,822c-57.3,19.3-111.1,26.8-160.1,22.4c-50.7-4.5-94.1-21.8-129-51.2
							c-27.9-23.5-49.2-54-63.2-90.6C-44,667.3-50.5,626.7-50.1,582.1L-50.1,582.1 M-51.4,582.1c-1,88.3,26,163.9,83.4,212.2
							c143.6,121.1,422.6,26.6,623.2-211.2c120.4-142.7,185.2-304.8,186.6-437.6c0.9-88.3-26.1-163.9-83.4-212.2
							C614.7-187.9,335.8-93.4,135.2,144.5C14.7,287.3-50,449.2-51.4,582.1L-51.4,582.1z"/>
					</g>
				</g>
			</g>
		</g>
	</g>
</g>
<g>
	<path class="st7" d="M405.2,144.7c30.9,132.5,68.8,138.7,132.5,238.2c16.4,25.7,28.8,53.5,28.8,85.2c0,44.2-15.3,81-47.3,113
		c-31.9,30.9-69.9,47.3-114,47.3s-82.1-15.3-113-47.3c-31.9-30.9-47.3-68.8-47.3-113c0-31.9,12.2-59.5,28.8-85.2
		C337.4,283.4,375.6,276.1,405.2,144.7L405.2,144.7L405.2,144.7z"/>
	<path class="st8" d="M304.7,426c9.3-1,16.4,6.2,17.4,14.3c2.1,21.6,7.3,42.1,15.3,58.4c9.3,16.4,21.6,30.9,41,42.1
		c8.3,4.2,10.4,14.3,6.2,22.6c-4.2,8.3-14.3,10.4-22.6,6.2c-24.7-14.3-41-32.7-53.5-55.3c-11.2-21.6-17.4-46.2-19.5-70.9
		C289.4,434.3,295.3,426,304.7,426z"/>
</g>
</svg>
