<?xml version="1.0" encoding="utf-8"?>
<!-- Generator: Adobe Illustrator 26.0.0, SVG Export Plug-In . SVG Version: 6.00 Build 0)  -->
<svg version="1.1" id="Layer_1" xmlns="http://www.w3.org/2000/svg" xmlns:xlink="http://www.w3.org/1999/xlink" x="0px" y="0px"
	 viewBox="0 0 800 800" style="enable-background:new 0 0 800 800;" xml:space="preserve">
<style type="text/css">
	.st0{fill:url(#SVGID_00000171683945847816361340000011354551313801802407_);}
	.st1{clip-path:url(#SVGID_00000182509968626645435050000011472085232264341655_);}
	.st2{fill:#54321D;}
	.st3{fill:#744224;}
	.st4{fill:#3C281A;}
	.st5{fill-rule:evenodd;clip-rule:evenodd;fill:#42A5F5;stroke:#000000;stroke-width:3;stroke-miterlimit:10;}
	.st6{fill:#C69C6D;stroke:#000000;stroke-miterlimit:10;}
	.st7{fill-rule:evenodd;clip-rule:evenodd;fill:#FFFFFF;}
	.st8{fill:none;stroke:url(#SVGID_00000036246698162368759190000018255062873278138243_);stroke-width:23;stroke-miterlimit:10;}
	.st9{clip-path:url(#SVGID_00000003792752506006854460000017584947788339218567_);}
	.st10{clip-path:url(#SVGID_00000127035901183261178460000004301805971553722276_);}
	.st11{fill:#3776AB;}
	.st12{clip-path:url(#SVGID_00000093897653301907106160000004357276865302089151_);}
	.st13{clip-path:url(#SVGID_00000069394908452994968000000004372817127353942144_);}
	.st14{clip-path:url(#SVGID_00000008857198916336208170000003522026016659738755_);}
	.st15{clip-path:url(#SVGID_00000174596353609325416840000011739660724568745111_);}
	.st16{clip-path:url(#SVGID_00000057870971204143139390000009185578245698403487_);}
	.st17{clip-path:url(#SVGID_00000032622216599481323480000004633659067187896989_);}
	.st18{clip-path:url(#SVGID_00000014635100642959450920000017920985891816779924_);}
	.st19{clip-path:url(#SVGID_00000084520860228792562430000004330509268472116874_);}
	.st20{clip-path:url(#SVGID_00000150799476349085219260000008967239898490983314_);}
	.st21{clip-path:url(#SVGID_00000109721083897685707470000016025154069633596818_);}
	.st22{clip-path:url(#SVGID_00000004527903378328499070000003000612625659488955_);}
	.st23{clip-path:url(#SVGID_00000150792950887290003160000012307776671561615746_);}
	.st24{clip-path:url(#SVGID_00000034810141208265095740000000752244441364225706_);}
	.st25{clip-path:url(#SVGID_00000052098786539113134120000016613601774691699109_);}
	.st26{fill:none;stroke:#000000;stroke-width:8;stroke-miterlimit:10;}
	.st27{clip-path:url(#SVGID_00000026869573795884723680000016160087364137728130_);}
	.st28{clip-path:url(#SVGID_00000119834383352362869880000016875078528113571005_);}
	.st29{fill:#FFD343;}
	.st30{clip-path:url(#SVGID_00000085239357195818347150000016255374636520373390_);}
	.st31{clip-path:url(#SVGID_00000160903511997296901540000009592421572176744856_);}
	.st32{clip-path:url(#SVGID_00000003788482736295305850000013199225650831044752_);}
	.st33{clip-path:url(#SVGID_00000043424998685720139490000010048973251531753367_);}
	.st34{clip-path:url(#SVGID_00000181046901524713810640000010319015822501803421_);}
	.st35{clip-path:url(#SVGID_00000063621901160378317730000008383744505611205250_);}
	.st36{clip-path:url(#SVGID_00000008124522743190743740000001082890143976280200_);}
	.st37{clip-path:url(#SVGID_00000049199368600424506690000009234715781927038893_);}
	.st38{clip-path:url(#SVGID_00000005242433547774010810000014047570953933110185_);}
	.st39{clip-path:url(#SVGID_00000124854638051204435550000005222837003415662738_);}
	.st40{clip-path:url(#SVGID_00000064343674386743887390000003904140930861443994_);}
	.st41{clip-path:url(#SVGID_00000142135259658086679310000001756560899975897755_);}
	.st42{clip-path:url(#SVGID_00000097466298855312271140000014107945649780827544_);}
	.st43{clip-path:url(#SVGID_00000057138719373400552120000004256323592912460958_);}
	.st44{clip-path:url(#SVGID_00000096778279276002706250000002811489935541892265_);}
	.st45{clip-path:url(#SVGID_00000153701055996788795130000001270764576555327616_);}
	.st46{clip-path:url(#SVGID_00000056388516876243596980000010793579932606355340_);}
	.st47{clip-path:url(#SVGID_00000061451942459332907210000008202898420622315681_);}
	.st48{clip-path:url(#SVGID_00000018931977579621795350000008619086792570352814_);}
	.st49{clip-path:url(#SVGID_00000051362267260945727810000005449725313893782198_);}
	.st50{clip-path:url(#SVGID_00000168806328350482478770000016293733707145995933_);}
	.st51{clip-path:url(#SVGID_00000124875420554215974710000001290853055076378787_);}
	.st52{clip-path:url(#SVGID_00000119115524691674120980000016260834525099049375_);}
	.st53{clip-path:url(#SVGID_00000039124118943900765920000000720031383524509880_);}
	.st54{clip-path:url(#SVGID_00000053511764870531617480000004260562376230538167_);}
	.st55{clip-path:url(#SVGID_00000175312355307284509530000017642260816291373751_);}
	.st56{clip-path:url(#SVGID_00000008867208200187316650000006515916383563528881_);}
	.st57{clip-path:url(#SVGID_00000048499255243332698240000015044500348254305681_);}
	.st58{clip-path:url(#SVGID_00000180344805083796250510000017197206413328800391_);}
	.st59{clip-path:url(#SVGID_00000088132389220872351100000016882284967983793325_);}
	.st60{clip-path:url(#SVGID_00000057830414770672733680000017315466840128625798_);}
	.st61{clip-path:url(#SVGID_00000143586817879902281950000007412431894595740554_);}
	.st62{clip-path:url(#SVGID_00000096042536094683627600000000126468635098143652_);}
	.st63{clip-path:url(#SVGID_00000041990353093870031460000003917207444962650036_);}
	.st64{clip-path:url(#SVGID_00000112633425645046756720000013273997786783192228_);}
	.st65{clip-path:url(#SVGID_00000166638129571526654160000003365281670012599967_);}
	.st66{clip-path:url(#SVGID_00000157988002835817673460000015089962090688434331_);}
	.st67{clip-path:url(#SVGID_00000092444864308981122020000010025401381751328943_);}
	.st68{clip-path:url(#SVGID_00000180350637892273327650000000801856482045215645_);}
	.st69{clip-path:url(#SVGID_00000016045672283387375890000015578432097506199460_);}
	.st70{clip-path:url(#SVGID_00000147177882718500489060000010096000923479082907_);}
	.st71{clip-path:url(#SVGID_00000110463575661430023700000000437541492970758814_);}
	.st72{clip-path:url(#SVGID_00000078046660099529698020000007502399291989597087_);}
	.st73{clip-path:url(#SVGID_00000183218334639185897360000000767997719396260782_);}
	.st74{clip-path:url(#SVGID_00000078046109051820099110000015785573114441021852_);}
	.st75{clip-path:url(#SVGID_00000062174901288305609800000003234505874373843122_);}
	.st76{clip-path:url(#SVGID_00000119824168310100508480000011807452423032605619_);}
	.st77{clip-path:url(#SVGID_00000010288479139982143990000006572826320038215589_);}
</style>
<g>
	<g>
		
			<radialGradient id="SVGID_00000033341888162928708030000005778938685092148407_" cx="400.5" cy="399.8" r="388.4002" gradientUnits="userSpaceOnUse">
			<stop  offset="0" style="stop-color:#C6C6C6"/>
			<stop  offset="1" style="stop-color:#000000"/>
		</radialGradient>
		
			<ellipse id="SVGID_1_" style="fill:url(#SVGID_00000033341888162928708030000005778938685092148407_);" cx="400.5" cy="399.8" rx="388" ry="388.8"/>
	</g>
	<g>
		<g>
			<defs>
				<ellipse id="SVGID_00000039822259589734651440000007410389624761261232_" cx="400.5" cy="399.8" rx="388" ry="388.8"/>
			</defs>
			<clipPath id="SVGID_00000015317677988072798220000006793331076705856925_">
				<use xlink:href="#SVGID_00000039822259589734651440000007410389624761261232_"  style="overflow:visible;"/>
			</clipPath>
			<g style="clip-path:url(#SVGID_00000015317677988072798220000006793331076705856925_);">
				<g id="Layer_1_00000077292637141746161960000006462756637149015681_">
					<path class="st2" d="M799,0v800H-1L-2,0"/>
					<path class="st3" d="M799,176.3V800H-1l-1-641.1c55.4-43.2,141.2-80,209.6-47.5c48.2,22.8,186.1,38.6,299.7,14
						C596.1,106,691.2,87.4,799,176.3"/>
					<path class="st2" d="M799,391.1V800H-1l-1-444c39.3,50.3,119.8,96.3,267.7,32.2c83.3-36.1,184-34.6,331.8,30.4
						C660.4,446.3,757.8,432.6,799,391.1"/>
					<path class="st4" d="M799,621.3v170.9L-1,800l-1-168.2c73.9,242.1,131,39.9,265.2,107c42.9,21.4,102.7,41.4,244.2-10.5
						C590.4,697.8,740.6,866.7,799,621.3"/>
					<path class="st2" d="M60.7,210.4c3.2,0,5.9,5,5.9,11.1s-2.6,11.1-5.9,11.1c-3.2,0-5.9-5-5.9-11.1
						C54.8,215.4,57.5,210.4,60.7,210.4z M98.3,270.2c2.6,0,4.6,3.9,4.6,8.8s-2.1,8.8-4.6,8.8c-2.6,0-4.6-3.9-4.6-8.8
						C93.7,274.1,95.8,270.2,98.3,270.2z M143.1,325.3c0.7,0,1.2,1,1.2,2.3s-0.6,2.3-1.2,2.3s-1.2-1-1.2-2.3
						C141.9,326.4,142.4,325.3,143.1,325.3z M162.2,223.3c1,0,1.9,1.6,1.9,3.5s-0.8,3.5-1.9,3.5c-1,0-1.9-1.6-1.9-3.5
						C160.4,224.9,161.2,223.3,162.2,223.3z M204.8,171.7c2.7,0,4.9,4.2,4.9,9.4s-2.2,9.4-4.9,9.4s-4.9-4.2-4.9-9.4
						C199.9,175.9,202.1,171.7,204.8,171.7z M240,202.2c3.1,0,5.6,4.7,5.6,10.6c0,5.8-2.5,10.6-5.6,10.6s-5.6-4.7-5.6-10.6
						S236.9,202.2,240,202.2z M278.2,255c4.4,0,8,6.8,8,15.2c0,8.4-3.6,15.2-8,15.2s-8-6.8-8-15.2S273.8,255,278.2,255z
						 M228.6,324.1c-1.5,0-2.8,2.4-2.8,5.3s1.2,5.3,2.8,5.3c1.5,0,2.8-2.4,2.8-5.3C231.3,326.5,230.1,324.1,228.6,324.1z
						 M187.2,321.8c1.9,0,3.4,2.9,3.4,6.4c0,3.6-1.5,6.4-3.4,6.4s-3.4-2.9-3.4-6.4C183.8,324.7,185.3,321.8,187.2,321.8z M190,257.3
						c5.8,0,10.5,8.9,10.5,19.9s-4.7,19.9-10.5,19.9s-10.5-8.9-10.5-19.9C179.5,266.2,184.2,257.3,190,257.3z M145.9,144.8
						c2.6,0,4.6,3.9,4.6,8.8c0,4.9-2.1,8.8-4.6,8.8c-2.6,0-4.6-3.9-4.6-8.8C141.2,148.7,143.3,144.8,145.9,144.8z M100.2,215.1
						c0.9,0,1.5,1.3,1.5,2.9c0,1.6-0.7,2.9-1.5,2.9c-0.9,0-1.5-1.3-1.5-2.9C98.7,216.4,99.3,215.1,100.2,215.1z M75.2,330
						c2,0,3.7,3.1,3.7,7s-1.7,7-3.7,7s-3.7-3.1-3.7-7S73.2,330,75.2,330z M135.4,346.4c2.9,0,5.2,4.5,5.2,10s-2.3,10-5.2,10
						s-5.2-4.5-5.2-10C130.1,350.9,132.5,346.4,135.4,346.4z M312.8,324.1c3.8,0,6.8,5.8,6.8,12.9s-3,12.9-6.8,12.9
						c-3.7,0-6.8-5.8-6.8-12.9S309,324.1,312.8,324.1z M357.2,243.2c4.8,0,8.6,7.4,8.6,16.4c0,9.1-3.9,16.4-8.6,16.4
						c-4.8,0-8.6-7.3-8.6-16.4C348.6,250.6,352.4,243.2,357.2,243.2z M422.3,255c2.2,0,4,3.4,4,7.6s-1.8,7.6-4,7.6s-4-3.4-4-7.6
						S420.1,255,422.3,255z M443,323c3.1,0,5.6,4.7,5.6,10.6c0,5.8-2.5,10.6-5.6,10.6s-5.6-4.7-5.6-10.6S439.9,323,443,323z
						 M504.7,303c1.4,0,2.5,2.1,2.5,4.7s-1.1,4.7-2.5,4.7s-2.5-2.1-2.5-4.7S503.3,303,504.7,303z M551,267.9c0.7,0,1.2,1,1.2,2.3
						s-0.6,2.3-1.2,2.3s-1.2-1-1.2-2.3C549.7,268.9,550.3,267.9,551,267.9z M585.5,252.6c5.8,0,10.5,8.9,10.5,19.9
						s-4.7,19.9-10.5,19.9s-10.5-8.9-10.5-19.9S579.7,252.6,585.5,252.6z M592.3,327.7c3.7,0,6.8,5.8,6.8,12.9s-3,12.9-6.8,12.9
						c-3.7,0-6.8-5.8-6.8-12.9C585.5,333.4,588.6,327.7,592.3,327.7z M551.9,339.4c1.2,0,2.2,1.8,2.2,4.1c0,2.3-1,4.1-2.2,4.1
						s-2.2-1.8-2.2-4.1C549.7,341.2,550.7,339.4,551.9,339.4z M528.4,209.2c0.9,0,1.5,1.3,1.5,2.9c0,1.6-0.7,2.9-1.5,2.9
						c-0.9,0-1.5-1.3-1.5-2.9S527.6,209.2,528.4,209.2z M496.7,156.5c2,0,3.7,3.2,3.7,7c0,3.9-1.7,7-3.7,7s-3.7-3.2-3.7-7
						C493,159.6,494.6,156.5,496.7,156.5z M480.9,232.7c2.9,0,5.2,4.5,5.2,10s-2.3,10-5.2,10c-2.9,0-5.2-4.5-5.2-10
						S478,232.7,480.9,232.7z M427.6,164.7c2,0,3.7,3.1,3.7,7s-1.7,7-3.7,7s-3.7-3.1-3.7-7S425.5,164.7,427.6,164.7z M373.3,181.1
						c2.4,0,4.3,3.7,4.3,8.2s-1.9,8.2-4.3,8.2s-4.3-3.7-4.3-8.2C368.9,184.8,370.9,181.1,373.3,181.1z M325.1,185.8
						c3.1,0,5.6,4.7,5.6,10.6c0,5.8-2.5,10.6-5.6,10.6s-5.6-4.7-5.6-10.6C319.6,190.5,322.1,185.8,325.1,185.8z M323.9,274.9
						c3.7,0,6.8,5.8,6.8,12.9s-3,12.9-6.8,12.9c-3.7,0-6.8-5.8-6.8-12.9S320.1,274.9,323.9,274.9z M388.1,333.5
						c3.7,0,6.8,5.8,6.8,12.9s-3,12.9-6.8,12.9s-6.8-5.8-6.8-12.9C381.3,339.3,384.3,333.5,388.1,333.5z M595.5,375.7
						c1.1,0,2,1.7,2,3.8c0,2.1-0.9,3.8-2,3.8s-2-1.7-2-3.8C593.5,377.4,594.4,375.7,595.5,375.7z M632.3,355.8
						c0.9,0,1.7,1.4,1.7,3.2c0,1.8-0.8,3.2-1.7,3.2s-1.7-1.4-1.7-3.2C630.6,357.2,631.3,355.8,632.3,355.8z M654.2,291.3
						c2.1,0,3.9,3.3,3.9,7.3s-1.7,7.3-3.9,7.3c-2.1,0-3.9-3.3-3.9-7.3C650.3,294.6,652,291.3,654.2,291.3z M677.5,336.4
						c1.4,0,2.5,2.1,2.5,4.7s-1.1,4.7-2.5,4.7s-2.5-2.1-2.5-4.7S676.1,336.4,677.5,336.4z M688.9,377.5c2.4,0,4.3,3.7,4.3,8.2
						s-1.9,8.2-4.3,8.2c-2.4,0-4.3-3.7-4.3-8.2C684.6,381.2,686.5,377.5,688.9,377.5z M635.5,289c1.7,0,3.1,2.6,3.1,5.9
						c0,3.2-1.4,5.9-3.1,5.9c-1.7,0-3.1-2.6-3.1-5.9S633.8,289,635.5,289z M663.6,228.6c1.4,0,2.5,2.1,2.5,4.7
						c0,2.6-1.1,4.7-2.5,4.7s-2.5-2.1-2.5-4.7C661.1,230.7,662.2,228.6,663.6,228.6z M607.9,204c2.3,0,4.2,3.5,4.2,7.9
						s-1.9,7.9-4.2,7.9s-4.2-3.5-4.2-7.9S605.6,204,607.9,204z M715.7,281.9c1.9,0,3.4,2.9,3.4,6.4c0,3.6-1.5,6.4-3.4,6.4
						s-3.4-2.9-3.4-6.4S713.8,281.9,715.7,281.9z M740.1,342.9c1.4,0,2.5,2.1,2.5,4.7s-1.1,4.7-2.5,4.7s-2.5-2.1-2.5-4.7
						S738.7,342.9,740.1,342.9z M783.3,265.5c1.7,0,3.1,2.6,3.1,5.9c0,3.2-1.4,5.9-3.1,5.9c-1.7,0-3.1-2.6-3.1-5.9
						S781.6,265.5,783.3,265.5z M736.7,164.7c3.2,0,5.9,5,5.9,11.1c0,6.2-2.6,11.1-5.9,11.1c-3.2,0-5.9-5-5.9-11.1
						S733.5,164.7,736.7,164.7z M750.9,250.3c2.2,0,4,3.4,4,7.6c0,4.2-1.8,7.6-4,7.6s-4-3.4-4-7.6
						C746.9,253.7,748.7,250.3,750.9,250.3z M766.6,317.1c3.1,0,5.6,4.7,5.6,10.6c0,5.8-2.5,10.6-5.6,10.6s-5.6-4.7-5.6-10.6
						C761.1,321.8,763.6,317.1,766.6,317.1z M749.7,373.4c-1.9,0-3.4,2.9-3.4,6.5s1.5,6.4,3.4,6.4s3.4-2.9,3.4-6.4
						C753.1,376.3,751.5,373.4,749.7,373.4z M710.5,195.2c2.7,0,4.9,4.2,4.9,9.4s-2.2,9.4-4.9,9.4s-4.9-4.2-4.9-9.4
						C705.5,199.4,707.7,195.2,710.5,195.2z M678.4,165.9c2,0,3.7,3.2,3.7,7c0,3.9-1.7,7-3.7,7s-3.7-3.1-3.7-7
						S676.3,165.9,678.4,165.9z M623.8,148.3c2.9,0,5.2,4.5,5.2,10s-2.4,10-5.2,10c-2.9,0-5.2-4.5-5.2-10S620.9,148.3,623.8,148.3z
						 M570.4,177.6c2.4,0,4.3,3.7,4.3,8.2s-1.9,8.2-4.3,8.2c-2.4,0-4.3-3.7-4.3-8.2C566.1,181.3,568,177.6,570.4,177.6z M23.4,191.6
						c1.4,0,2.5,2.1,2.5,4.7c0,2.6-1.1,4.7-2.5,4.7s-2.5-2.1-2.5-4.7C20.9,193.7,22,191.6,23.4,191.6"/>
					<path class="st4" d="M38.2,507c4.8,0,8.6,7.3,8.6,16.4c0,9.1-3.9,16.4-8.6,16.4s-8.6-7.3-8.6-16.4
						C29.5,514.4,33.4,507,38.2,507z M70,580.9c2.9,0,5.2,4.5,5.2,10s-2.3,10-5.2,10c-2.9,0-5.2-4.5-5.2-10
						C64.7,585.3,67.1,580.9,70,580.9z M89.7,645.4c3.2,0,5.9,5,5.9,11.1c0,6.2-2.6,11.1-5.9,11.1c-3.2,0-5.9-5-5.9-11.1
						C83.9,650.4,86.5,645.4,89.7,645.4z M34.2,673.5c1.5,0,2.8,2.4,2.8,5.3c0,2.9-1.2,5.3-2.8,5.3s-2.8-2.4-2.8-5.3
						C31.4,675.9,32.6,673.5,34.2,673.5z M41.3,599.6c2,0,3.7,3.2,3.7,7c0,3.9-1.7,7-3.7,7s-3.7-3.2-3.7-7S39.2,599.6,41.3,599.6z
						 M65,672.3c4.9,0,8.9,7.6,8.9,17s-4,17-8.9,17s-8.9-7.6-8.9-17C56.1,679.9,60.1,672.3,65,672.3z M165,658.3
						c3.2,0,5.9,5,5.9,11.1c0,6.2-2.6,11.1-5.9,11.1c-3.2,0-5.9-5-5.9-11.1C159.1,663.2,161.8,658.3,165,658.3z M173,532.8
						c6.6,0,12,10.2,12,22.9c0,12.6-5.4,22.9-12,22.9s-12-10.2-12-22.9S166.4,532.8,173,532.8z M101.7,488.3
						c5.8,0,10.5,8.9,10.5,19.9c0,11-4.7,19.9-10.5,19.9s-10.5-8.9-10.5-19.9C91.3,497.2,96,488.3,101.7,488.3z M124.3,569.2
						c2.2,0,4,3.4,4,7.6c0,4.2-1.8,7.6-4,7.6s-4-3.4-4-7.6C120.3,572.6,122.1,569.2,124.3,569.2z M244.3,621.9
						c2.7,0,4.9,4.2,4.9,9.4s-2.2,9.4-4.9,9.4s-4.9-4.2-4.9-9.4C239.4,626.1,241.6,621.9,244.3,621.9z M323.3,534
						c4.4,0,8,6.8,8,15.2s-3.6,15.2-8,15.2s-8-6.8-8-15.2C315.2,540.8,318.8,534,323.3,534z M275.1,458.9c4.4,0,8,6.8,8,15.2
						c0,8.4-3.6,15.2-8,15.2s-8-6.8-8-15.2C267.1,465.8,270.7,458.9,275.1,458.9z M234.7,516.4c2.9,0,5.2,4.5,5.2,10s-2.3,10-5.2,10
						s-5.2-4.5-5.2-10S231.8,516.4,234.7,516.4z M294,592.6c4.9,0,8.9,7.6,8.9,17s-4,17-8.9,17s-8.9-7.6-8.9-17
						C285,600.2,289,592.6,294,592.6z M317.7,681.7c5.5,0,9.9,8.4,9.9,18.8c0,10.4-4.4,18.8-9.9,18.8s-9.9-8.4-9.9-18.8
						C307.8,690.1,312.3,681.7,317.7,681.7z M407.2,646.5c9.9,0,17.9,15.2,17.9,34s-8,34-17.9,34s-17.9-15.2-17.9-34
						C389.3,661.8,397.3,646.5,407.2,646.5z M441.7,546.9c4.8,0,8.6,7.3,8.6,16.4c0,9.1-3.9,16.4-8.6,16.4c-4.8,0-8.6-7.3-8.6-16.4
						S437,546.9,441.7,546.9z M441.7,451.9c7.8,0,14.2,12.1,14.2,27s-6.4,27-14.2,27c-7.8,0-14.2-12.1-14.2-27
						C427.6,464,433.9,451.9,441.7,451.9z M381.3,461.3c4.1,0,7.4,6.3,7.4,14.1c0,7.8-3.3,14.1-7.4,14.1s-7.4-6.3-7.4-14.1
						C373.9,467.6,377.2,461.3,381.3,461.3z M386.8,546.9c3.7,0,6.8,5.8,6.8,12.9c0,7.1-3,12.9-6.8,12.9s-6.8-5.8-6.8-12.9
						S383.1,546.9,386.8,546.9z M474.1,594.9c6.3,0,11.4,9.7,11.4,21.7s-5.1,21.7-11.4,21.7s-11.4-9.7-11.4-21.7
						C462.7,604.7,467.8,594.9,474.1,594.9z M533.1,637.2c11.2,0,20.4,17.3,20.4,38.7s-9.1,38.7-20.4,38.7
						c-11.2,0-20.4-17.3-20.4-38.7C512.7,654.5,521.8,637.2,533.1,637.2z M550.7,536.3c8,0,14.5,12.3,14.5,27.6
						c0,15.2-6.5,27.6-14.5,27.6s-14.5-12.3-14.5-27.6C536.2,548.7,542.7,536.3,550.7,536.3z M486.8,456.6c3.7,0,6.8,5.8,6.8,12.9
						s-3,12.9-6.8,12.9c-3.7,0-6.8-5.8-6.8-12.9S483,456.6,486.8,456.6z M558.7,470.7c4.9,0,8.9,7.6,8.9,17s-4,17-8.9,17
						s-8.9-7.6-8.9-17C549.7,478.3,553.7,470.7,558.7,470.7z M615.8,532.8c2.4,0,4.3,3.7,4.3,8.2s-1.9,8.2-4.3,8.2
						c-2.4,0-4.3-3.7-4.3-8.2C611.4,536.5,613.4,532.8,615.8,532.8z M649.1,598.5c6.1,0,11.1,9.5,11.1,21.1c0,11.7-5,21.1-11.1,21.1
						s-11.1-9.5-11.1-21.1C638,607.9,642.9,598.5,649.1,598.5z M605,682.9c3.9,0,7.1,6,7.1,13.5c0,7.4-3.2,13.5-7.1,13.5
						c-3.9,0-7.1-6-7.1-13.5S601,682.9,605,682.9z M688.6,677c1.7,0,3.1,2.6,3.1,5.9s-1.4,5.9-3.1,5.9c-1.7,0-3.1-2.6-3.1-5.9
						S686.9,677,688.6,677z M654.6,702.8c2,0,3.7,3.1,3.7,7s-1.7,7-3.7,7s-3.7-3.1-3.7-7C650.9,706,652.6,702.8,654.6,702.8z
						 M601.9,602c2.6,0,4.6,3.9,4.6,8.8c0,4.9-2.1,8.8-4.6,8.8c-2.6,0-4.6-3.9-4.6-8.8C597.3,605.9,599.3,602,601.9,602z
						 M662.7,531.6c2.7,0,4.9,4.2,4.9,9.4s-2.2,9.4-4.9,9.4s-4.9-4.2-4.9-9.4C657.7,535.8,659.9,531.6,662.7,531.6z M707.4,530.5
						c3.2,0,5.9,5,5.9,11.1s-2.6,11.1-5.9,11.1c-3.2,0-5.9-5-5.9-11.1S704.2,530.5,707.4,530.5z M727.5,606.7c2.7,0,4.9,4.2,4.9,9.4
						s-2.2,9.4-4.9,9.4s-4.9-4.2-4.9-9.4C722.5,610.9,724.7,606.7,727.5,606.7z M724.7,680.5c3.6,0,6.5,5.5,6.5,12.3
						s-2.9,12.3-6.5,12.3s-6.5-5.5-6.5-12.3S721.1,680.5,724.7,680.5z M761.7,585.6c2.9,0,5.2,4.5,5.2,10s-2.3,10-5.2,10
						s-5.2-4.5-5.2-10C756.5,590,758.8,585.6,761.7,585.6z M762.6,489.4c2,0,3.7,3.1,3.7,7s-1.7,7-3.7,7s-3.7-3.2-3.7-7
						S760.6,489.4,762.6,489.4z M777.4,439c4.8,0,8.6,7.4,8.6,16.4c0,9.1-3.9,16.4-8.6,16.4c-4.8,0-8.6-7.4-8.6-16.4
						C768.8,446.4,772.7,439,777.4,439z M765.7,534c-1.4,0-2.5,2.1-2.5,4.7c0,2.6,1.1,4.7,2.5,4.7s2.5-2.1,2.5-4.7
						S767.1,534,765.7,534z M706.2,473c2.9,0,5.2,4.5,5.2,10s-2.3,10-5.2,10s-5.2-4.5-5.2-10C700.9,477.5,703.3,473,706.2,473z
						 M732.4,539.8c2.7,0,4.9,4.2,4.9,9.4s-2.2,9.4-4.9,9.4s-4.9-4.2-4.9-9.4S729.7,539.8,732.4,539.8z M23.1,441.4
						c4.3,0,7.7,6.6,7.7,14.7s-3.5,14.7-7.7,14.7s-7.7-6.6-7.7-14.7C15.4,447.9,18.8,441.4,23.1,441.4"/>
				</g>
				<path class="st5" d="M398.4,309.7c11.9,51,26.5,53.4,51,91.7c6.3,9.9,11.1,20.6,11.1,32.8c0,17-5.9,31.2-18.2,43.5
					c-12.3,11.9-26.9,18.2-43.9,18.2s-31.6-5.9-43.5-18.2c-12.3-11.9-18.2-26.5-18.2-43.5c0-12.3,4.7-22.9,11.1-32.8
					C372.3,363.1,387,360.3,398.4,309.7L398.4,309.7L398.4,309.7z"/>
				<path class="st6" d="M203.1,411.4"/>
				<path class="st6" d="M162.1,419.4"/>
				<path class="st6" d="M164.1,417.4"/>
				<path class="st6" d="M165.1,399.4"/>
				<path class="st7" d="M359.7,418c3.6-0.4,6.3,2.4,6.7,5.5c0.8,8.3,2.8,16.2,5.9,22.5c3.6,6.3,8.3,11.9,15.8,16.2
					c3.2,1.6,4,5.5,2.4,8.7s-5.5,4-8.7,2.4c-9.5-5.5-15.8-12.6-20.6-21.3c-4.3-8.3-6.7-17.8-7.5-27.3
					C353.8,421.2,356.1,418,359.7,418z"/>
			</g>
		</g>
	</g>
	<g>
		
			<linearGradient id="SVGID_00000041978449701976481870000004633682786296432025_" gradientUnits="userSpaceOnUse" x1="1" y1="399.8" x2="800" y2="399.8">
			<stop  offset="0" style="stop-color:#B3B3B3"/>
			<stop  offset="1" style="stop-color:#000000"/>
		</linearGradient>
		
			<ellipse id="SVGID_00000143618782934479339320000001048376687515247535_" style="fill:none;stroke:url(#SVGID_00000041978449701976481870000004633682786296432025_);stroke-width:23;stroke-miterlimit:10;" cx="400.5" cy="399.8" rx="388" ry="388.8"/>
	</g>
	<g id="blue_snake">
		<g>
			<defs>
				<path id="SVGID_00000120545186500661235640000008107806447191112895_" d="M668.6,648.9c-61.9,67.8-232.6,12.7-381.3-123.1
					S68.2,225,130.1,157.2s232.6-12.7,381.3,123.1S730.5,581.1,668.6,648.9z M478.7,316C351.5,199.8,213.9,143.4,171.3,190
					s26.1,178.5,153.3,294.7s264.9,172.6,307.4,126C674.6,564.1,605.9,432.1,478.7,316z"/>
			</defs>
			<clipPath id="SVGID_00000166644698885007276530000008874017954344640427_">
				<use xlink:href="#SVGID_00000120545186500661235640000008107806447191112895_"  style="overflow:visible;"/>
			</clipPath>
			<g style="clip-path:url(#SVGID_00000166644698885007276530000008874017954344640427_);">
				<g>
					<defs>
						<path id="SVGID_00000089549200039359668200000007825420350498865542_" d="M668.6,648.9c-61.9,67.8-232.6,12.7-381.3-123.1
							S68.2,225,130.1,157.2s232.6-12.7,381.3,123.1S730.5,581.1,668.6,648.9z M478.7,316C351.5,199.8,213.9,143.4,171.3,190
							s26.1,178.5,153.3,294.7s264.9,172.6,307.4,126C674.6,564.1,605.9,432.1,478.7,316z"/>
					</defs>
					<clipPath id="SVGID_00000124861638707443410000000000020445244897440134_">
						<use xlink:href="#SVGID_00000089549200039359668200000007825420350498865542_"  style="overflow:visible;"/>
					</clipPath>
					<g style="clip-path:url(#SVGID_00000124861638707443410000000000020445244897440134_);">
						<path class="st11" d="M588.9,722.1c-48.4,0-102.7-11.7-157-33.8c-56.2-22.8-112.6-57-163.2-98.8C184,519.7,121,434.3,91,348.8
							C76.4,307.3,70.5,268,73.3,232.2c2.9-37.1,15.2-69,36.5-94.7c33.7-40.8,86.8-62.4,153.7-62.4c48.4,0,102.7,11.7,157,33.8
							c56.2,22.8,112.6,57,163.2,98.8c84.5,69.8,147.6,155.3,177.6,240.7c14.6,41.5,20.5,80.8,17.7,116.6
							c-2.9,37.1-15.2,69-36.5,94.7C708.9,700.5,655.8,722.1,588.9,722.1z"/>
						<path d="M263.5,75.6c48.3,0,102.6,11.7,156.8,33.8c27.7,11.3,55.4,25.2,82.4,41.5c27.8,16.7,54.9,36,80.7,57.2
							c42.7,35.2,80,74.5,110.7,116.6c29.7,40.7,52.2,82.4,66.7,123.9s20.5,80.6,17.6,116.4c-2.9,37-15.2,68.8-36.3,94.5
							c-16.9,20.5-39,36.3-65.6,46.8c-25.7,10.2-55.3,15.4-87.8,15.4c-48.3,0-102.6-11.7-156.8-33.7c-27.7-11.3-55.4-25.2-82.4-41.5
							c-27.8-16.7-54.9-36-80.7-57.2c-42.7-35.2-80-74.5-110.7-116.6c-29.7-40.7-52.2-82.4-66.7-123.9C76.9,307.2,71,268,73.8,232.2
							c2.9-37,15.2-68.8,36.3-94.5c16.9-20.5,39-36.3,65.6-46.8C201.4,80.7,231,75.6,263.5,75.6L263.5,75.6 M263.5,74.6
							c-64.4,0-119.3,20.3-154.1,62.5C22.2,242.8,93.3,445.5,268.3,589.9c105,86.7,223.7,132.7,320.6,132.7
							c64.4,0,119.3-20.3,154.1-62.5c87.2-105.7,16.1-308.4-158.9-452.8C479,120.5,360.4,74.6,263.5,74.6L263.5,74.6z"/>
					</g>
				</g>
			</g>
		</g>
		<g>
			<defs>
				<path id="SVGID_00000088102228666140774020000009141548685714023853_" d="M668.6,648.9c-61.9,67.8-232.6,12.7-381.3-123.1
					S68.2,225,130.1,157.2s232.6-12.7,381.3,123.1S730.5,581.1,668.6,648.9z M478.7,316C351.5,199.8,213.9,143.4,171.3,190
					s26.1,178.5,153.3,294.7s264.9,172.6,307.4,126C674.6,564.1,605.9,432.1,478.7,316z"/>
			</defs>
			<clipPath id="SVGID_00000048477763056119216490000016846136489030233243_">
				<use xlink:href="#SVGID_00000088102228666140774020000009141548685714023853_"  style="overflow:visible;"/>
			</clipPath>
			<g style="clip-path:url(#SVGID_00000048477763056119216490000016846136489030233243_);">
				<ellipse transform="matrix(0.6365 -0.7712 0.7712 0.6365 -39.4695 338.6336)" cx="339.5" cy="211.2" rx="21.4" ry="30.7"/>
			</g>
		</g>
		<g>
			<defs>
				<path id="SVGID_00000165947995030357539890000013377781976267158693_" d="M668.6,648.9c-61.9,67.8-232.6,12.7-381.3-123.1
					S68.2,225,130.1,157.2s232.6-12.7,381.3,123.1S730.5,581.1,668.6,648.9z M478.7,316C351.5,199.8,213.9,143.4,171.3,190
					s26.1,178.5,153.3,294.7s264.9,172.6,307.4,126C674.6,564.1,605.9,432.1,478.7,316z"/>
			</defs>
			<clipPath id="SVGID_00000169535123180036603660000005261938446496939446_">
				<use xlink:href="#SVGID_00000165947995030357539890000013377781976267158693_"  style="overflow:visible;"/>
			</clipPath>
			<g style="clip-path:url(#SVGID_00000169535123180036603660000005261938446496939446_);">
				<ellipse transform="matrix(0.9369 -0.3496 0.3496 0.9369 -83.4637 214.9784)" cx="553.8" cy="338.7" rx="14.5" ry="19"/>
			</g>
		</g>
		<g>
			<defs>
				<path id="SVGID_00000173873853992743516980000007750901510414314670_" d="M668.6,648.9c-61.9,67.8-232.6,12.7-381.3-123.1
					S68.2,225,130.1,157.2s232.6-12.7,381.3,123.1S730.5,581.1,668.6,648.9z M478.7,316C351.5,199.8,213.9,143.4,171.3,190
					s26.1,178.5,153.3,294.7s264.9,172.6,307.4,126C674.6,564.1,605.9,432.1,478.7,316z"/>
			</defs>
			<clipPath id="SVGID_00000028290388977298932750000003823823398076096386_">
				<use xlink:href="#SVGID_00000173873853992743516980000007750901510414314670_"  style="overflow:visible;"/>
			</clipPath>
			<g style="clip-path:url(#SVGID_00000028290388977298932750000003823823398076096386_);">
				<ellipse transform="matrix(0.9369 -0.3496 0.3496 0.9369 -125.9824 246.0086)" cx="618.5" cy="472" rx="14.5" ry="20.5"/>
			</g>
		</g>
		<g>
			<defs>
				<path id="SVGID_00000050636468483218807130000004777304025537283252_" d="M668.6,648.9c-61.9,67.8-232.6,12.7-381.3-123.1
					S68.2,225,130.1,157.2s232.6-12.7,381.3,123.1S730.5,581.1,668.6,648.9z M478.7,316C351.5,199.8,213.9,143.4,171.3,190
					s26.1,178.5,153.3,294.7s264.9,172.6,307.4,126C674.6,564.1,605.9,432.1,478.7,316z"/>
			</defs>
			<clipPath id="SVGID_00000155831158830619378200000017600814350615460231_">
				<use xlink:href="#SVGID_00000050636468483218807130000004777304025537283252_"  style="overflow:visible;"/>
			</clipPath>
			<g style="clip-path:url(#SVGID_00000155831158830619378200000017600814350615460231_);">
				<ellipse transform="matrix(8.704017e-03 -1 1 8.704017e-03 202.4557 645.3764)" cx="426.7" cy="220.6" rx="20.2" ry="23"/>
			</g>
		</g>
		<g>
			<defs>
				<path id="SVGID_00000058564037850037313830000009178183813885535907_" d="M668.6,648.9c-61.9,67.8-232.6,12.7-381.3-123.1
					S68.2,225,130.1,157.2s232.6-12.7,381.3,123.1S730.5,581.1,668.6,648.9z M478.7,316C351.5,199.8,213.9,143.4,171.3,190
					s26.1,178.5,153.3,294.7s264.9,172.6,307.4,126C674.6,564.1,605.9,432.1,478.7,316z"/>
			</defs>
			<clipPath id="SVGID_00000012455247517094877140000011670573752892813192_">
				<use xlink:href="#SVGID_00000058564037850037313830000009178183813885535907_"  style="overflow:visible;"/>
			</clipPath>
			<g style="clip-path:url(#SVGID_00000012455247517094877140000011670573752892813192_);">
				<ellipse transform="matrix(0.9369 -0.3496 0.3496 0.9369 -79.3925 187.7455)" cx="480.4" cy="313.8" rx="19.5" ry="26"/>
			</g>
		</g>
		<g>
			<defs>
				<path id="SVGID_00000107555248337957931450000013651371108731957161_" d="M668.6,648.9c-61.9,67.8-232.6,12.7-381.3-123.1
					S68.2,225,130.1,157.2s232.6-12.7,381.3,123.1S730.5,581.1,668.6,648.9z M478.7,316C351.5,199.8,213.9,143.4,171.3,190
					s26.1,178.5,153.3,294.7s264.9,172.6,307.4,126C674.6,564.1,605.9,432.1,478.7,316z"/>
			</defs>
			<clipPath id="SVGID_00000183213085395571921500000000455907728152344496_">
				<use xlink:href="#SVGID_00000107555248337957931450000013651371108731957161_"  style="overflow:visible;"/>
			</clipPath>
			<g style="clip-path:url(#SVGID_00000183213085395571921500000000455907728152344496_);">
				<ellipse transform="matrix(0.9369 -0.3496 0.3496 0.9369 -146.3323 270.8686)" cx="677.2" cy="540.8" rx="14.5" ry="21.5"/>
			</g>
		</g>
		<g>
			<defs>
				<path id="SVGID_00000017474936574306212370000008381415237295510403_" d="M668.6,648.9c-61.9,67.8-232.6,12.7-381.3-123.1
					S68.2,225,130.1,157.2s232.6-12.7,381.3,123.1S730.5,581.1,668.6,648.9z M478.7,316C351.5,199.8,213.9,143.4,171.3,190
					s26.1,178.5,153.3,294.7s264.9,172.6,307.4,126C674.6,564.1,605.9,432.1,478.7,316z"/>
			</defs>
			<clipPath id="SVGID_00000122708069751185903100000002340197865318854289_">
				<use xlink:href="#SVGID_00000017474936574306212370000008381415237295510403_"  style="overflow:visible;"/>
			</clipPath>
			<g style="clip-path:url(#SVGID_00000122708069751185903100000002340197865318854289_);">
				<ellipse transform="matrix(0.9369 -0.3496 0.3496 0.9369 -178.762 254.991)" cx="617" cy="622.7" rx="32.4" ry="19.2"/>
			</g>
		</g>
		<g>
			<defs>
				<path id="SVGID_00000082351119880097737400000015241950630056211902_" d="M668.6,648.9c-61.9,67.8-232.6,12.7-381.3-123.1
					S68.2,225,130.1,157.2s232.6-12.7,381.3,123.1S730.5,581.1,668.6,648.9z M478.7,316C351.5,199.8,213.9,143.4,171.3,190
					s26.1,178.5,153.3,294.7s264.9,172.6,307.4,126C674.6,564.1,605.9,432.1,478.7,316z"/>
			</defs>
			<clipPath id="SVGID_00000011718753271202929980000010000865925504935603_">
				<use xlink:href="#SVGID_00000082351119880097737400000015241950630056211902_"  style="overflow:visible;"/>
			</clipPath>
			<g style="clip-path:url(#SVGID_00000011718753271202929980000010000865925504935603_);">
				<ellipse transform="matrix(0.9369 -0.3496 0.3496 0.9369 -197.7156 222.567)" cx="517.7" cy="659" rx="27.7" ry="25.5"/>
			</g>
		</g>
		<g>
			<defs>
				<path id="SVGID_00000103242060752945025780000018299882670742008457_" d="M668.6,648.9c-61.9,67.8-232.6,12.7-381.3-123.1
					S68.2,225,130.1,157.2s232.6-12.7,381.3,123.1S730.5,581.1,668.6,648.9z M478.7,316C351.5,199.8,213.9,143.4,171.3,190
					s26.1,178.5,153.3,294.7s264.9,172.6,307.4,126C674.6,564.1,605.9,432.1,478.7,316z"/>
			</defs>
			<clipPath id="SVGID_00000078764325279039863460000016204608314525753998_">
				<use xlink:href="#SVGID_00000103242060752945025780000018299882670742008457_"  style="overflow:visible;"/>
			</clipPath>
			<g style="clip-path:url(#SVGID_00000078764325279039863460000016204608314525753998_);">
				<ellipse transform="matrix(0.9369 -0.3496 0.3496 0.9369 -174.0673 187.797)" cx="433.2" cy="576.1" rx="27.7" ry="25.5"/>
			</g>
		</g>
		<g>
			<defs>
				<path id="SVGID_00000103248569590974286830000007471635407105444751_" d="M668.6,648.9c-61.9,67.8-232.6,12.7-381.3-123.1
					S68.2,225,130.1,157.2s232.6-12.7,381.3,123.1S730.5,581.1,668.6,648.9z M478.7,316C351.5,199.8,213.9,143.4,171.3,190
					s26.1,178.5,153.3,294.7s264.9,172.6,307.4,126C674.6,564.1,605.9,432.1,478.7,316z"/>
			</defs>
			<clipPath id="SVGID_00000119813379741439699070000000811459484737107874_">
				<use xlink:href="#SVGID_00000103248569590974286830000007471635407105444751_"  style="overflow:visible;"/>
			</clipPath>
			<g style="clip-path:url(#SVGID_00000119813379741439699070000000811459484737107874_);">
				<ellipse transform="matrix(0.6818 -0.7316 0.7316 0.6818 -308.4021 419.2184)" cx="327.7" cy="564.1" rx="26" ry="41.3"/>
			</g>
		</g>
		<g>
			<defs>
				<path id="SVGID_00000080190655501478855290000010811705393406887314_" d="M668.6,648.9c-61.9,67.8-232.6,12.7-381.3-123.1
					S68.2,225,130.1,157.2s232.6-12.7,381.3,123.1S730.5,581.1,668.6,648.9z M478.7,316C351.5,199.8,213.9,143.4,171.3,190
					s26.1,178.5,153.3,294.7s264.9,172.6,307.4,126C674.6,564.1,605.9,432.1,478.7,316z"/>
			</defs>
			<clipPath id="SVGID_00000062913466359875410510000002189693883347500725_">
				<use xlink:href="#SVGID_00000080190655501478855290000010811705393406887314_"  style="overflow:visible;"/>
			</clipPath>
			<g style="clip-path:url(#SVGID_00000062913466359875410510000002189693883347500725_);">
				<ellipse transform="matrix(0.9369 -0.3496 0.3496 0.9369 -131.7862 117.2447)" cx="258.9" cy="423.7" rx="27.7" ry="39.8"/>
			</g>
		</g>
		<g>
			<defs>
				<path id="SVGID_00000111891914092536742930000000143775049649667462_" d="M668.6,648.9c-61.9,67.8-232.6,12.7-381.3-123.1
					S68.2,225,130.1,157.2s232.6-12.7,381.3,123.1S730.5,581.1,668.6,648.9z M478.7,316C351.5,199.8,213.9,143.4,171.3,190
					s26.1,178.5,153.3,294.7s264.9,172.6,307.4,126C674.6,564.1,605.9,432.1,478.7,316z"/>
			</defs>
			<clipPath id="SVGID_00000096044154776736969650000004444295669978606773_">
				<use xlink:href="#SVGID_00000111891914092536742930000000143775049649667462_"  style="overflow:visible;"/>
			</clipPath>
			<g style="clip-path:url(#SVGID_00000096044154776736969650000004444295669978606773_);">
				<ellipse transform="matrix(0.9369 -0.3496 0.3496 0.9369 -107.3511 68.433)" cx="135.9" cy="331.6" rx="27.7" ry="25.5"/>
			</g>
		</g>
		<g>
			<defs>
				<path id="SVGID_00000009556984046068415850000005174990470460200088_" d="M668.6,648.9c-61.9,67.8-232.6,12.7-381.3-123.1
					S68.2,225,130.1,157.2s232.6-12.7,381.3,123.1S730.5,581.1,668.6,648.9z M478.7,316C351.5,199.8,213.9,143.4,171.3,190
					s26.1,178.5,153.3,294.7s264.9,172.6,307.4,126C674.6,564.1,605.9,432.1,478.7,316z"/>
			</defs>
			<clipPath id="SVGID_00000153673755433780051960000012760840526509973146_">
				<use xlink:href="#SVGID_00000009556984046068415850000005174990470460200088_"  style="overflow:visible;"/>
			</clipPath>
			<g style="clip-path:url(#SVGID_00000153673755433780051960000012760840526509973146_);">
				<ellipse transform="matrix(0.9369 -0.3496 0.3496 0.9369 -61.8426 65.7783)" cx="151.3" cy="204.2" rx="27.7" ry="25.5"/>
			</g>
		</g>
		<g>
			<defs>
				<path id="SVGID_00000039117528511666424090000015894044888885208196_" d="M668.6,648.9c-61.9,67.8-232.6,12.7-381.3-123.1
					S68.2,225,130.1,157.2s232.6-12.7,381.3,123.1S730.5,581.1,668.6,648.9z M478.7,316C351.5,199.8,213.9,143.4,171.3,190
					s26.1,178.5,153.3,294.7s264.9,172.6,307.4,126C674.6,564.1,605.9,432.1,478.7,316z"/>
			</defs>
			<clipPath id="SVGID_00000168818526317871924070000016605473153176595382_">
				<use xlink:href="#SVGID_00000039117528511666424090000015894044888885208196_"  style="overflow:visible;"/>
			</clipPath>
			<g style="clip-path:url(#SVGID_00000168818526317871924070000016605473153176595382_);">
				<ellipse transform="matrix(0.9369 -0.3496 0.3496 0.9369 -31.6946 87.9897)" cx="227.9" cy="131.8" rx="27.7" ry="25.5"/>
			</g>
		</g>
		<g>
			<path id="SVGID_00000158022263438209006850000002804034732398725019_" class="st26" d="M668.6,648.9
				c-61.9,67.8-232.6,12.7-381.3-123.1S68.2,225,130.1,157.2s232.6-12.7,381.3,123.1S730.5,581.1,668.6,648.9z M478.7,316
				C351.5,199.8,213.9,143.4,171.3,190s26.1,178.5,153.3,294.7s264.9,172.6,307.4,126C674.6,564.1,605.9,432.1,478.7,316z"/>
		</g>
	</g>
	<g id="yellow_snake">
		<g>
			<defs>
				<path id="SVGID_00000039839324613153025230000007026235405448704388_" d="M648.7,133.4c67.1,62.6,10.2,232.7-127.2,380
					S218.4,729.2,151.3,666.6s-10.2-232.7,127.2-380S581.6,70.8,648.7,133.4z M313.8,319.7c-117.6,125.9-175.4,262.9-129.3,306
					s178.8-24.2,296.3-150.1s175.4-263,129.3-306C564,126.5,431.3,193.8,313.8,319.7z"/>
			</defs>
			<clipPath id="SVGID_00000170261077945515707220000014513833466101092770_">
				<use xlink:href="#SVGID_00000039839324613153025230000007026235405448704388_"  style="overflow:visible;"/>
			</clipPath>
			<g style="clip-path:url(#SVGID_00000170261077945515707220000014513833466101092770_);">
				<g>
					<defs>
						<path id="SVGID_00000096055616328513238880000015115512503365195137_" d="M648.7,133.4c67.1,62.6,10.2,232.7-127.2,380
							S218.4,729.2,151.3,666.6s-10.2-232.7,127.2-380S581.6,70.8,648.7,133.4z M313.8,319.7c-117.6,125.9-175.4,262.9-129.3,306
							s178.8-24.2,296.3-150.1s175.4-263,129.3-306C564,126.5,431.3,193.8,313.8,319.7z"/>
					</defs>
					<clipPath id="SVGID_00000084509893511029927370000002835985156978395834_">
						<use xlink:href="#SVGID_00000096055616328513238880000015115512503365195137_"  style="overflow:visible;"/>
					</clipPath>
					<g style="clip-path:url(#SVGID_00000084509893511029927370000002835985156978395834_);">
						<path class="st29" d="M721.1,213.9c-0.5,48.4-12.8,102.6-35.5,156.6c-23.4,56-58.2,112-100.5,162.1
							c-70.7,83.9-156.8,146-242.6,175.1c-41.7,14.2-81,19.6-116.8,16.5c-37.1-3.3-68.8-15.9-94.3-37.5
							C91,652.6,69.9,599.2,70.6,532.3c0.5-48.4,12.8-102.6,35.5-156.6c23.4-56,58.2-112,100.5-162.1
							c70.7-83.7,156.9-145.9,242.6-175c41.7-14.2,81-19.6,116.8-16.5c37.1,3.3,68.8,15.9,94.3,37.5
							C700.7,93.6,721.8,147,721.1,213.9z"/>
						<path class="st29" d="M71.1,532.3c0.5-48.3,12.8-102.5,35.5-156.4c11.6-27.6,25.8-55.1,42.4-82c17-27.6,36.6-54.5,58.1-80.1
							c35.7-42.3,75.4-79.2,117.8-109.4c41-29.3,83-51.3,124.6-65.4S530.2,19.4,566,22.7c37,3.3,68.6,15.9,94.1,37.3
							c20.3,17.1,35.9,39.4,46.1,66.1c9.9,25.8,14.8,55.5,14.5,88c-0.5,48.3-12.8,102.5-35.4,156.4c-11.6,27.6-25.8,55.1-42.4,82
							c-17,27.6-36.6,54.5-58.1,80.1C549.1,574.9,509.4,611.8,467,642c-41,29.3-83,51.3-124.6,65.4c-41.8,14.1-81,19.5-116.8,16.4
							c-37-3.3-68.6-15.9-94.1-37.3c-20.3-17.1-35.9-39.4-46.1-66.1C75.6,594.5,70.8,564.8,71.1,532.3L71.1,532.3 M70.1,532.3
							c-0.7,64.4,19,119.5,60.8,154.8c104.8,88.3,308.2,19.4,454.5-154C673.3,429,720.5,310.8,721.6,213.9
							c0.7-64.4-19-119.5-60.8-154.8C556-29.2,352.6,39.7,206.3,213.1C118.3,317.3,71.2,435.4,70.1,532.3L70.1,532.3z"/>
					</g>
				</g>
			</g>
		</g>
		<g>
			<defs>
				<path id="SVGID_00000132774487000631521250000016356943004046751895_" d="M648.7,133.4c67.1,62.6,10.2,232.7-127.2,380
					S218.4,729.2,151.3,666.6s-10.2-232.7,127.2-380S581.6,70.8,648.7,133.4z M313.8,319.7c-117.6,125.9-175.4,262.9-129.3,306
					s178.8-24.2,296.3-150.1s175.4-263,129.3-306C564,126.5,431.3,193.8,313.8,319.7z"/>
			</defs>
			<clipPath id="SVGID_00000127021007961542882530000013286780348768765838_">
				<use xlink:href="#SVGID_00000132774487000631521250000016356943004046751895_"  style="overflow:visible;"/>
			</clipPath>
			<g style="clip-path:url(#SVGID_00000127021007961542882530000013286780348768765838_);">
				<ellipse transform="matrix(0.6448 -0.7644 0.7644 0.6448 -276.1917 321.2249)" cx="207.5" cy="457.8" rx="30.7" ry="21.4"/>
			</g>
		</g>
		<g>
			<defs>
				<path id="SVGID_00000030448173753262465310000000187148725322791820_" d="M648.7,133.4c67.1,62.6,10.2,232.7-127.2,380
					S218.4,729.2,151.3,666.6s-10.2-232.7,127.2-380S581.6,70.8,648.7,133.4z M313.8,319.7c-117.6,125.9-175.4,262.9-129.3,306
					s178.8-24.2,296.3-150.1s175.4-263,129.3-306C564,126.5,431.3,193.8,313.8,319.7z"/>
			</defs>
			<clipPath id="SVGID_00000025430369777485291430000008151171975689146261_">
				<use xlink:href="#SVGID_00000030448173753262465310000000187148725322791820_"  style="overflow:visible;"/>
			</clipPath>
			<g style="clip-path:url(#SVGID_00000025430369777485291430000008151171975689146261_);">
				<ellipse transform="matrix(0.9406 -0.3396 0.3396 0.9406 -63.1184 129.1051)" cx="337.3" cy="244.9" rx="19" ry="14.5"/>
			</g>
		</g>
		<g>
			<defs>
				<path id="SVGID_00000073680220721413102960000001417628124590498974_" d="M648.7,133.4c67.1,62.6,10.2,232.7-127.2,380
					S218.4,729.2,151.3,666.6s-10.2-232.7,127.2-380S581.6,70.8,648.7,133.4z M313.8,319.7c-117.6,125.9-175.4,262.9-129.3,306
					s178.8-24.2,296.3-150.1s175.4-263,129.3-306C564,126.5,431.3,193.8,313.8,319.7z"/>
			</defs>
			<clipPath id="SVGID_00000093159269155058353970000014946708135179998603_">
				<use xlink:href="#SVGID_00000073680220721413102960000001417628124590498974_"  style="overflow:visible;"/>
			</clipPath>
			<g style="clip-path:url(#SVGID_00000093159269155058353970000014946708135179998603_);">
				<ellipse transform="matrix(0.9406 -0.3396 0.3396 0.9406 -33.6566 170.8436)" cx="471.3" cy="181.6" rx="20.5" ry="14.5"/>
			</g>
		</g>
		<g>
			<defs>
				<path id="SVGID_00000155866035841012220430000002601444538739142587_" d="M648.7,133.4c67.1,62.6,10.2,232.7-127.2,380
					S218.4,729.2,151.3,666.6s-10.2-232.7,127.2-380S581.6,70.8,648.7,133.4z M313.8,319.7c-117.6,125.9-175.4,262.9-129.3,306
					s178.8-24.2,296.3-150.1s175.4-263,129.3-306C564,126.5,431.3,193.8,313.8,319.7z"/>
			</defs>
			<clipPath id="SVGID_00000084499597283092214480000008393010038678483900_">
				<use xlink:href="#SVGID_00000155866035841012220430000002601444538739142587_"  style="overflow:visible;"/>
			</clipPath>
			<g style="clip-path:url(#SVGID_00000084499597283092214480000008393010038678483900_);">
				
					<ellipse transform="matrix(1.939999e-02 -0.9998 0.9998 1.939999e-02 -157.0436 581.3334)" cx="217.8" cy="370.7" rx="23" ry="20.2"/>
			</g>
		</g>
		<g>
			<defs>
				<path id="SVGID_00000114780291901749214240000003165514292318818995_" d="M648.7,133.4c67.1,62.6,10.2,232.7-127.2,380
					S218.4,729.2,151.3,666.6s-10.2-232.7,127.2-380S581.6,70.8,648.7,133.4z M313.8,319.7c-117.6,125.9-175.4,262.9-129.3,306
					s178.8-24.2,296.3-150.1s175.4-263,129.3-306C564,126.5,431.3,193.8,313.8,319.7z"/>
			</defs>
			<clipPath id="SVGID_00000135667508453893909900000004436862306895542421_">
				<use xlink:href="#SVGID_00000114780291901749214240000003165514292318818995_"  style="overflow:visible;"/>
			</clipPath>
			<g style="clip-path:url(#SVGID_00000135667508453893909900000004436862306895542421_);">
				<ellipse transform="matrix(0.9406 -0.3396 0.3396 0.9406 -89.4571 124.752)" cx="311.7" cy="318" rx="26" ry="19.5"/>
			</g>
		</g>
		<g>
			<defs>
				<path id="SVGID_00000096050196995734011780000014773384020960725418_" d="M648.7,133.4c67.1,62.6,10.2,232.7-127.2,380
					S218.4,729.2,151.3,666.6s-10.2-232.7,127.2-380S581.6,70.8,648.7,133.4z M313.8,319.7c-117.6,125.9-175.4,262.9-129.3,306
					s178.8-24.2,296.3-150.1s175.4-263,129.3-306C564,126.5,431.3,193.8,313.8,319.7z"/>
			</defs>
			<clipPath id="SVGID_00000026154619730012927950000004251638900835874705_">
				<use xlink:href="#SVGID_00000096050196995734011780000014773384020960725418_"  style="overflow:visible;"/>
			</clipPath>
			<g style="clip-path:url(#SVGID_00000026154619730012927950000004251638900835874705_);">
				<ellipse transform="matrix(0.9406 -0.3396 0.3396 0.9406 -9.8248 190.9915)" cx="540.8" cy="123.6" rx="21.5" ry="14.5"/>
			</g>
		</g>
		<g>
			<defs>
				<path id="SVGID_00000075125138303634173260000005395449235136478881_" d="M648.7,133.4c67.1,62.6,10.2,232.7-127.2,380
					S218.4,729.2,151.3,666.6s-10.2-232.7,127.2-380S581.6,70.8,648.7,133.4z M313.8,319.7c-117.6,125.9-175.4,262.9-129.3,306
					s178.8-24.2,296.3-150.1s175.4-263,129.3-306C564,126.5,431.3,193.8,313.8,319.7z"/>
			</defs>
			<clipPath id="SVGID_00000013164820657339325440000003773368494907464634_">
				<use xlink:href="#SVGID_00000075125138303634173260000005395449235136478881_"  style="overflow:visible;"/>
			</clipPath>
			<g style="clip-path:url(#SVGID_00000013164820657339325440000003773368494907464634_);">
				<ellipse transform="matrix(0.9406 -0.3396 0.3396 0.9406 -25.7516 222.2024)" cx="622" cy="184.7" rx="19.2" ry="32.4"/>
			</g>
		</g>
		<g>
			<defs>
				<path id="SVGID_00000132067418728904327190000010458634565324879527_" d="M648.7,133.4c67.1,62.6,10.2,232.7-127.2,380
					S218.4,729.2,151.3,666.6s-10.2-232.7,127.2-380S581.6,70.8,648.7,133.4z M313.8,319.7c-117.6,125.9-175.4,262.9-129.3,306
					s178.8-24.2,296.3-150.1s175.4-263,129.3-306C564,126.5,431.3,193.8,313.8,319.7z"/>
			</defs>
			<clipPath id="SVGID_00000161598724150053116380000014337373759343881112_">
				<use xlink:href="#SVGID_00000132067418728904327190000010458634565324879527_"  style="overflow:visible;"/>
			</clipPath>
			<g style="clip-path:url(#SVGID_00000161598724150053116380000014337373759343881112_);">
				<ellipse transform="matrix(0.9406 -0.3396 0.3396 0.9406 -57.5193 240.0831)" cx="657.2" cy="284.4" rx="25.5" ry="27.7"/>
			</g>
		</g>
		<g>
			<defs>
				<path id="SVGID_00000023996131578730679100000014901096542382426257_" d="M648.7,133.4c67.1,62.6,10.2,232.7-127.2,380
					S218.4,729.2,151.3,666.6s-10.2-232.7,127.2-380S581.6,70.8,648.7,133.4z M313.8,319.7c-117.6,125.9-175.4,262.9-129.3,306
					s178.8-24.2,296.3-150.1s175.4-263,129.3-306C564,126.5,431.3,193.8,313.8,319.7z"/>
			</defs>
			<clipPath id="SVGID_00000174581514087076942190000002758653383075124384_">
				<use xlink:href="#SVGID_00000023996131578730679100000014901096542382426257_"  style="overflow:visible;"/>
			</clipPath>
			<g style="clip-path:url(#SVGID_00000174581514087076942190000002758653383075124384_);">
				<ellipse transform="matrix(0.9406 -0.3396 0.3396 0.9406 -90.8888 216.5951)" cx="573.4" cy="368" rx="25.5" ry="27.7"/>
			</g>
		</g>
		<g>
			<defs>
				<path id="SVGID_00000137126836386688472010000009232267503238320054_" d="M648.7,133.4c67.1,62.6,10.2,232.7-127.2,380
					S218.4,729.2,151.3,666.6s-10.2-232.7,127.2-380S581.6,70.8,648.7,133.4z M313.8,319.7c-117.6,125.9-175.4,262.9-129.3,306
					s178.8-24.2,296.3-150.1s175.4-263,129.3-306C564,126.5,431.3,193.8,313.8,319.7z"/>
			</defs>
			<clipPath id="SVGID_00000174580589907989373210000015162363162580427934_">
				<use xlink:href="#SVGID_00000137126836386688472010000009232267503238320054_"  style="overflow:visible;"/>
			</clipPath>
			<g style="clip-path:url(#SVGID_00000174580589907989373210000015162363162580427934_);">
				<ellipse transform="matrix(0.6896 -0.7242 0.7242 0.6896 -169.0404 552.7188)" cx="560.2" cy="473.6" rx="41.3" ry="26"/>
			</g>
		</g>
		<g>
			<defs>
				<path id="SVGID_00000152265459469507261560000012014473694955003016_" d="M648.7,133.4c67.1,62.6,10.2,232.7-127.2,380
					S218.4,729.2,151.3,666.6s-10.2-232.7,127.2-380S581.6,70.8,648.7,133.4z M313.8,319.7c-117.6,125.9-175.4,262.9-129.3,306
					s178.8-24.2,296.3-150.1s175.4-263,129.3-306C564,126.5,431.3,193.8,313.8,319.7z"/>
			</defs>
			<clipPath id="SVGID_00000059283236459088514870000014415300108449602203_">
				<use xlink:href="#SVGID_00000152265459469507261560000012014473694955003016_"  style="overflow:visible;"/>
			</clipPath>
			<g style="clip-path:url(#SVGID_00000059283236459088514870000014415300108449602203_);">
				<ellipse transform="matrix(0.9406 -0.3396 0.3396 0.9406 -158.6951 174.497)" cx="419.2" cy="540.7" rx="39.8" ry="27.7"/>
			</g>
		</g>
		<g>
			<defs>
				<path id="SVGID_00000054247647819235985450000008359317751375885751_" d="M648.7,133.4c67.1,62.6,10.2,232.7-127.2,380
					S218.4,729.2,151.3,666.6s-10.2-232.7,127.2-380S581.6,70.8,648.7,133.4z M313.8,319.7c-117.6,125.9-175.4,262.9-129.3,306
					s178.8-24.2,296.3-150.1s175.4-263,129.3-306C564,126.5,431.3,193.8,313.8,319.7z"/>
			</defs>
			<clipPath id="SVGID_00000002376821895439655500000001240173842622393501_">
				<use xlink:href="#SVGID_00000054247647819235985450000008359317751375885751_"  style="overflow:visible;"/>
			</clipPath>
			<g style="clip-path:url(#SVGID_00000002376821895439655500000001240173842622393501_);">
				<ellipse transform="matrix(0.9406 -0.3396 0.3396 0.9406 -205.6928 150.0014)" cx="325.7" cy="662.7" rx="25.5" ry="27.7"/>
			</g>
		</g>
		<g>
			<defs>
				<path id="SVGID_00000164511360359797850410000000236669861633373091_" d="M648.7,133.4c67.1,62.6,10.2,232.7-127.2,380
					S218.4,729.2,151.3,666.6s-10.2-232.7,127.2-380S581.6,70.8,648.7,133.4z M313.8,319.7c-117.6,125.9-175.4,262.9-129.3,306
					s178.8-24.2,296.3-150.1s175.4-263,129.3-306C564,126.5,431.3,193.8,313.8,319.7z"/>
			</defs>
			<clipPath id="SVGID_00000026128049896824015960000008167693297797183678_">
				<use xlink:href="#SVGID_00000164511360359797850410000000236669861633373091_"  style="overflow:visible;"/>
			</clipPath>
			<g style="clip-path:url(#SVGID_00000026128049896824015960000008167693297797183678_);">
				<ellipse transform="matrix(0.9406 -0.3396 0.3396 0.9406 -207.5466 105.8033)" cx="198.5" cy="645.9" rx="25.5" ry="27.7"/>
			</g>
		</g>
		<g>
			<defs>
				<path id="SVGID_00000155123716070422747360000010007551345697329563_" d="M648.7,133.4c67.1,62.6,10.2,232.7-127.2,380
					S218.4,729.2,151.3,666.6s-10.2-232.7,127.2-380S581.6,70.8,648.7,133.4z M313.8,319.7c-117.6,125.9-175.4,262.9-129.3,306
					s178.8-24.2,296.3-150.1s175.4-263,129.3-306C564,126.5,431.3,193.8,313.8,319.7z"/>
			</defs>
			<clipPath id="SVGID_00000006686961148752158870000005087817770959764652_">
				<use xlink:href="#SVGID_00000155123716070422747360000010007551345697329563_"  style="overflow:visible;"/>
			</clipPath>
			<g style="clip-path:url(#SVGID_00000006686961148752158870000005087817770959764652_);">
				<ellipse transform="matrix(0.9406 -0.3396 0.3396 0.9406 -185.5511 76.8989)" cx="126.9" cy="568.6" rx="25.5" ry="27.7"/>
			</g>
		</g>
		<g>
			<path id="SVGID_00000113347834597533046630000015558874869071291301_" class="st26" d="M648.7,133.4
				c67.1,62.6,10.2,232.7-127.2,380S218.4,729.2,151.3,666.6s-10.2-232.7,127.2-380S581.6,70.8,648.7,133.4z M313.8,319.7
				c-117.6,125.9-175.4,262.9-129.3,306s178.8-24.2,296.3-150.1s175.4-263,129.3-306C564,126.5,431.3,193.8,313.8,319.7z"/>
		</g>
	</g>
</g>
<g>
	<defs>
		<ellipse id="SVGID_00000026854085223335424940000016459842469358279858_" cx="556" cy="626" rx="313" ry="115"/>
	</defs>
	<clipPath id="SVGID_00000173867567147208608540000014378078594241472952_">
		<use xlink:href="#SVGID_00000026854085223335424940000016459842469358279858_"  style="overflow:visible;"/>
	</clipPath>
	<g id="blue_snake_front" style="clip-path:url(#SVGID_00000173867567147208608540000014378078594241472952_);">
		<g>
			<defs>
				<path id="SVGID_00000003785705560123991780000011093684253561580692_" d="M670.9,650.8c-61.9,67.8-232.6,12.7-381.3-123.1
					S70.5,226.9,132.4,159.1S365,146.4,513.7,282.2S732.8,583,670.9,650.8z M481,317.9c-127.2-116.2-264.8-172.6-307.4-126
					s26.1,178.5,153.3,294.7s264.9,172.6,307.4,126C676.9,566,608.2,434,481,317.9z"/>
			</defs>
			<clipPath id="SVGID_00000076574155034290244710000011740044101423906963_">
				<use xlink:href="#SVGID_00000003785705560123991780000011093684253561580692_"  style="overflow:visible;"/>
			</clipPath>
			<g style="clip-path:url(#SVGID_00000076574155034290244710000011740044101423906963_);">
				<g>
					<defs>
						<path id="SVGID_00000168798642235328400070000010086858919726473115_" d="M670.9,650.8c-61.9,67.8-232.6,12.7-381.3-123.1
							S70.5,226.9,132.4,159.1S365,146.4,513.7,282.2S732.8,583,670.9,650.8z M481,317.9c-127.2-116.2-264.8-172.6-307.4-126
							s26.1,178.5,153.3,294.7s264.9,172.6,307.4,126C676.9,566,608.2,434,481,317.9z"/>
					</defs>
					<clipPath id="SVGID_00000023984470525408731930000005930316687137762951_">
						<use xlink:href="#SVGID_00000168798642235328400070000010086858919726473115_"  style="overflow:visible;"/>
					</clipPath>
					<g style="clip-path:url(#SVGID_00000023984470525408731930000005930316687137762951_);">
						<path class="st11" d="M591.2,724c-48.4,0-102.7-11.7-157-33.8c-56.2-22.8-112.6-57-163.2-98.8
							c-84.7-69.8-147.7-155.2-177.7-240.7c-14.6-41.5-20.5-80.8-17.7-116.6c2.9-37.1,15.2-69,36.5-94.7
							C145.8,98.6,198.9,77,265.8,77c48.4,0,102.7,11.7,157,33.8c56.2,22.8,112.6,57,163.2,98.8c84.5,69.8,147.6,155.3,177.6,240.7
							c14.6,41.5,20.5,80.8,17.7,116.6c-2.9,37.1-15.2,69-36.5,94.7C711.2,702.4,658.1,724,591.2,724z"/>
						<path d="M265.8,77.5c48.3,0,102.6,11.7,156.8,33.8c27.7,11.3,55.4,25.2,82.4,41.5c27.8,16.7,54.9,36,80.7,57.2
							c42.7,35.2,80,74.5,110.7,116.6c29.7,40.7,52.2,82.4,66.7,123.9s20.5,80.6,17.6,116.4c-2.9,37-15.2,68.8-36.3,94.5
							c-16.9,20.5-39,36.3-65.6,46.8c-25.7,10.2-55.3,15.4-87.8,15.4c-48.3,0-102.6-11.7-156.8-33.7c-27.7-11.3-55.4-25.2-82.4-41.5
							c-27.8-16.7-54.9-36-80.7-57.2c-42.7-35.2-80-74.5-110.7-116.6c-29.7-40.7-52.2-82.4-66.7-123.9
							c-14.5-41.6-20.4-80.8-17.6-116.6c2.9-37,15.2-68.8,36.3-94.5c16.9-20.5,39-36.3,65.6-46.8C203.7,82.6,233.3,77.5,265.8,77.5
							L265.8,77.5 M265.8,76.5c-64.4,0-119.3,20.3-154.1,62.5C24.5,244.7,95.6,447.4,270.6,591.8c105,86.7,223.7,132.7,320.6,132.7
							c64.4,0,119.3-20.3,154.1-62.5c87.2-105.7,16.1-308.4-158.9-452.8C481.3,122.4,362.7,76.5,265.8,76.5L265.8,76.5z"/>
					</g>
				</g>
			</g>
		</g>
		<g>
			<defs>
				<path id="SVGID_00000119100913589552347950000006224168099529147580_" d="M670.9,650.8c-61.9,67.8-232.6,12.7-381.3-123.1
					S70.5,226.9,132.4,159.1S365,146.4,513.7,282.2S732.8,583,670.9,650.8z M481,317.9c-127.2-116.2-264.8-172.6-307.4-126
					s26.1,178.5,153.3,294.7s264.9,172.6,307.4,126C676.9,566,608.2,434,481,317.9z"/>
			</defs>
			<clipPath id="SVGID_00000107574609115483480210000006480010865852567472_">
				<use xlink:href="#SVGID_00000119100913589552347950000006224168099529147580_"  style="overflow:visible;"/>
			</clipPath>
			<g style="clip-path:url(#SVGID_00000107574609115483480210000006480010865852567472_);">
				<ellipse transform="matrix(0.6365 -0.7712 0.7712 0.6365 -40.0989 341.098)" cx="341.8" cy="213.1" rx="21.4" ry="30.7"/>
			</g>
		</g>
		<g>
			<defs>
				<path id="SVGID_00000125569580411953379530000015556067544877786035_" d="M670.9,650.8c-61.9,67.8-232.6,12.7-381.3-123.1
					S70.5,226.9,132.4,159.1S365,146.4,513.7,282.2S732.8,583,670.9,650.8z M481,317.9c-127.2-116.2-264.8-172.6-307.4-126
					s26.1,178.5,153.3,294.7s264.9,172.6,307.4,126C676.9,566,608.2,434,481,317.9z"/>
			</defs>
			<clipPath id="SVGID_00000016048207222570183120000007922807615151021213_">
				<use xlink:href="#SVGID_00000125569580411953379530000015556067544877786035_"  style="overflow:visible;"/>
			</clipPath>
			<g style="clip-path:url(#SVGID_00000016048207222570183120000007922807615151021213_);">
				<ellipse transform="matrix(0.9369 -0.3496 0.3496 0.9369 -83.9828 215.9024)" cx="556.1" cy="340.6" rx="14.5" ry="19"/>
			</g>
		</g>
		<g>
			<defs>
				<path id="SVGID_00000021085017337820269120000006834563143174716845_" d="M670.9,650.8c-61.9,67.8-232.6,12.7-381.3-123.1
					S70.5,226.9,132.4,159.1S365,146.4,513.7,282.2S732.8,583,670.9,650.8z M481,317.9c-127.2-116.2-264.8-172.6-307.4-126
					s26.1,178.5,153.3,294.7s264.9,172.6,307.4,126C676.9,566,608.2,434,481,317.9z"/>
			</defs>
			<clipPath id="SVGID_00000161625304710665321660000006174936096299449253_">
				<use xlink:href="#SVGID_00000021085017337820269120000006834563143174716845_"  style="overflow:visible;"/>
			</clipPath>
			<g style="clip-path:url(#SVGID_00000161625304710665321660000006174936096299449253_);">
				<ellipse transform="matrix(0.9369 -0.3496 0.3496 0.9369 -126.5015 246.9326)" cx="620.8" cy="473.9" rx="14.5" ry="20.5"/>
			</g>
		</g>
		<g>
			<defs>
				<path id="SVGID_00000033329861811748636820000010057651915297445557_" d="M670.9,650.8c-61.9,67.8-232.6,12.7-381.3-123.1
					S70.5,226.9,132.4,159.1S365,146.4,513.7,282.2S732.8,583,670.9,650.8z M481,317.9c-127.2-116.2-264.8-172.6-307.4-126
					s26.1,178.5,153.3,294.7s264.9,172.6,307.4,126C676.9,566,608.2,434,481,317.9z"/>
			</defs>
			<clipPath id="SVGID_00000183229488571777324730000001778303299732714891_">
				<use xlink:href="#SVGID_00000033329861811748636820000010057651915297445557_"  style="overflow:visible;"/>
			</clipPath>
			<g style="clip-path:url(#SVGID_00000183229488571777324730000001778303299732714891_);">
				<ellipse transform="matrix(8.704017e-03 -1 1 8.704017e-03 202.8358 649.5598)" cx="429" cy="222.5" rx="20.2" ry="23"/>
			</g>
		</g>
		<g>
			<defs>
				<path id="SVGID_00000141437861777727647980000014924649850833238402_" d="M670.9,650.8c-61.9,67.8-232.6,12.7-381.3-123.1
					S70.5,226.9,132.4,159.1S365,146.4,513.7,282.2S732.8,583,670.9,650.8z M481,317.9c-127.2-116.2-264.8-172.6-307.4-126
					s26.1,178.5,153.3,294.7s264.9,172.6,307.4,126C676.9,566,608.2,434,481,317.9z"/>
			</defs>
			<clipPath id="SVGID_00000129902156076040943430000017791350105814223763_">
				<use xlink:href="#SVGID_00000141437861777727647980000014924649850833238402_"  style="overflow:visible;"/>
			</clipPath>
			<g style="clip-path:url(#SVGID_00000129902156076040943430000017791350105814223763_);">
				<ellipse transform="matrix(0.9369 -0.3496 0.3496 0.9369 -79.9116 188.6695)" cx="482.7" cy="315.7" rx="19.5" ry="26"/>
			</g>
		</g>
		<g>
			<defs>
				<path id="SVGID_00000081614136999579410330000011430821433620954813_" d="M670.9,650.8c-61.9,67.8-232.6,12.7-381.3-123.1
					S70.5,226.9,132.4,159.1S365,146.4,513.7,282.2S732.8,583,670.9,650.8z M481,317.9c-127.2-116.2-264.8-172.6-307.4-126
					s26.1,178.5,153.3,294.7s264.9,172.6,307.4,126C676.9,566,608.2,434,481,317.9z"/>
			</defs>
			<clipPath id="SVGID_00000016769559041354293530000017541369618017724066_">
				<use xlink:href="#SVGID_00000081614136999579410330000011430821433620954813_"  style="overflow:visible;"/>
			</clipPath>
			<g style="clip-path:url(#SVGID_00000016769559041354293530000017541369618017724066_);">
				<ellipse transform="matrix(0.9369 -0.3496 0.3496 0.9369 -146.8514 271.7926)" cx="679.5" cy="542.7" rx="14.5" ry="21.5"/>
			</g>
		</g>
		<g>
			<defs>
				<path id="SVGID_00000166653194134516800480000003035268891783853446_" d="M670.9,650.8c-61.9,67.8-232.6,12.7-381.3-123.1
					S70.5,226.9,132.4,159.1S365,146.4,513.7,282.2S732.8,583,670.9,650.8z M481,317.9c-127.2-116.2-264.8-172.6-307.4-126
					s26.1,178.5,153.3,294.7s264.9,172.6,307.4,126C676.9,566,608.2,434,481,317.9z"/>
			</defs>
			<clipPath id="SVGID_00000074437770528794011860000000293857197597224112_">
				<use xlink:href="#SVGID_00000166653194134516800480000003035268891783853446_"  style="overflow:visible;"/>
			</clipPath>
			<g style="clip-path:url(#SVGID_00000074437770528794011860000000293857197597224112_);">
				<ellipse transform="matrix(0.9369 -0.3496 0.3496 0.9369 -179.2811 255.9149)" cx="619.3" cy="624.6" rx="32.4" ry="19.2"/>
			</g>
		</g>
		<g>
			<defs>
				<path id="SVGID_00000101825677953895665200000002593955936244381340_" d="M670.9,650.8c-61.9,67.8-232.6,12.7-381.3-123.1
					S70.5,226.9,132.4,159.1S365,146.4,513.7,282.2S732.8,583,670.9,650.8z M481,317.9c-127.2-116.2-264.8-172.6-307.4-126
					s26.1,178.5,153.3,294.7s264.9,172.6,307.4,126C676.9,566,608.2,434,481,317.9z"/>
			</defs>
			<clipPath id="SVGID_00000167367278994482045580000002052273377955097245_">
				<use xlink:href="#SVGID_00000101825677953895665200000002593955936244381340_"  style="overflow:visible;"/>
			</clipPath>
			<g style="clip-path:url(#SVGID_00000167367278994482045580000002052273377955097245_);">
				<ellipse transform="matrix(0.9369 -0.3496 0.3496 0.9369 -198.2347 223.4909)" cx="520" cy="660.9" rx="27.7" ry="25.5"/>
			</g>
		</g>
		<g>
			<defs>
				<path id="SVGID_00000055692449569979470550000009126445729613316489_" d="M670.9,650.8c-61.9,67.8-232.6,12.7-381.3-123.1
					S70.5,226.9,132.4,159.1S365,146.4,513.7,282.2S732.8,583,670.9,650.8z M481,317.9c-127.2-116.2-264.8-172.6-307.4-126
					s26.1,178.5,153.3,294.7s264.9,172.6,307.4,126C676.9,566,608.2,434,481,317.9z"/>
			</defs>
			<clipPath id="SVGID_00000172415509300312671670000009276117142607326625_">
				<use xlink:href="#SVGID_00000055692449569979470550000009126445729613316489_"  style="overflow:visible;"/>
			</clipPath>
			<g style="clip-path:url(#SVGID_00000172415509300312671670000009276117142607326625_);">
				<ellipse transform="matrix(0.9369 -0.3496 0.3496 0.9369 -174.5864 188.7209)" cx="435.5" cy="578" rx="27.7" ry="25.5"/>
			</g>
		</g>
		<g>
			<defs>
				<path id="SVGID_00000083792532877601014550000000277940913257748107_" d="M670.9,650.8c-61.9,67.8-232.6,12.7-381.3-123.1
					S70.5,226.9,132.4,159.1S365,146.4,513.7,282.2S732.8,583,670.9,650.8z M481,317.9c-127.2-116.2-264.8-172.6-307.4-126
					s26.1,178.5,153.3,294.7s264.9,172.6,307.4,126C676.9,566,608.2,434,481,317.9z"/>
			</defs>
			<clipPath id="SVGID_00000032645877596463930420000004079689918777123209_">
				<use xlink:href="#SVGID_00000083792532877601014550000000277940913257748107_"  style="overflow:visible;"/>
			</clipPath>
			<g style="clip-path:url(#SVGID_00000032645877596463930420000004079689918777123209_);">
				<ellipse transform="matrix(0.6818 -0.7316 0.7316 0.6818 -309.0601 421.5057)" cx="330" cy="566" rx="26" ry="41.3"/>
			</g>
		</g>
		<g>
			<defs>
				<path id="SVGID_00000096045050998534480260000007018871507011096748_" d="M670.9,650.8c-61.9,67.8-232.6,12.7-381.3-123.1
					S70.5,226.9,132.4,159.1S365,146.4,513.7,282.2S732.8,583,670.9,650.8z M481,317.9c-127.2-116.2-264.8-172.6-307.4-126
					s26.1,178.5,153.3,294.7s264.9,172.6,307.4,126C676.9,566,608.2,434,481,317.9z"/>
			</defs>
			<clipPath id="SVGID_00000037652657765891045570000016637300630118343075_">
				<use xlink:href="#SVGID_00000096045050998534480260000007018871507011096748_"  style="overflow:visible;"/>
			</clipPath>
			<g style="clip-path:url(#SVGID_00000037652657765891045570000016637300630118343075_);">
				<ellipse transform="matrix(0.9369 -0.3496 0.3496 0.9369 -132.3053 118.1687)" cx="261.2" cy="425.6" rx="27.7" ry="39.8"/>
			</g>
		</g>
		<g>
			<defs>
				<path id="SVGID_00000036964510351030971130000006063179450323059375_" d="M670.9,650.8c-61.9,67.8-232.6,12.7-381.3-123.1
					S70.5,226.9,132.4,159.1S365,146.4,513.7,282.2S732.8,583,670.9,650.8z M481,317.9c-127.2-116.2-264.8-172.6-307.4-126
					s26.1,178.5,153.3,294.7s264.9,172.6,307.4,126C676.9,566,608.2,434,481,317.9z"/>
			</defs>
			<clipPath id="SVGID_00000181783182481026381710000014771404131864239785_">
				<use xlink:href="#SVGID_00000036964510351030971130000006063179450323059375_"  style="overflow:visible;"/>
			</clipPath>
			<g style="clip-path:url(#SVGID_00000181783182481026381710000014771404131864239785_);">
				<ellipse transform="matrix(0.9369 -0.3496 0.3496 0.9369 -107.8702 69.357)" cx="138.2" cy="333.5" rx="27.7" ry="25.5"/>
			</g>
		</g>
		<g>
			<defs>
				<path id="SVGID_00000091012462749945204770000006698414059209997736_" d="M670.9,650.8c-61.9,67.8-232.6,12.7-381.3-123.1
					S70.5,226.9,132.4,159.1S365,146.4,513.7,282.2S732.8,583,670.9,650.8z M481,317.9c-127.2-116.2-264.8-172.6-307.4-126
					s26.1,178.5,153.3,294.7s264.9,172.6,307.4,126C676.9,566,608.2,434,481,317.9z"/>
			</defs>
			<clipPath id="SVGID_00000175303872057355468570000001673190497330416817_">
				<use xlink:href="#SVGID_00000091012462749945204770000006698414059209997736_"  style="overflow:visible;"/>
			</clipPath>
			<g style="clip-path:url(#SVGID_00000175303872057355468570000001673190497330416817_);">
				<ellipse transform="matrix(0.9369 -0.3496 0.3496 0.9369 -62.3617 66.7023)" cx="153.6" cy="206.1" rx="27.7" ry="25.5"/>
			</g>
		</g>
		<g>
			<defs>
				<path id="SVGID_00000060011922364543885950000004655739424751415478_" d="M670.9,650.8c-61.9,67.8-232.6,12.7-381.3-123.1
					S70.5,226.9,132.4,159.1S365,146.4,513.7,282.2S732.8,583,670.9,650.8z M481,317.9c-127.2-116.2-264.8-172.6-307.4-126
					s26.1,178.5,153.3,294.7s264.9,172.6,307.4,126C676.9,566,608.2,434,481,317.9z"/>
			</defs>
			<clipPath id="SVGID_00000142860686724903568600000016834911388156656273_">
				<use xlink:href="#SVGID_00000060011922364543885950000004655739424751415478_"  style="overflow:visible;"/>
			</clipPath>
			<g style="clip-path:url(#SVGID_00000142860686724903568600000016834911388156656273_);">
				<ellipse transform="matrix(0.9369 -0.3496 0.3496 0.9369 -32.2137 88.9136)" cx="230.2" cy="133.7" rx="27.7" ry="25.5"/>
			</g>
		</g>
		<g>
			<path id="SVGID_00000101812676505235619800000012651192975914865338_" class="st26" d="M670.9,650.8
				c-61.9,67.8-232.6,12.7-381.3-123.1S70.5,226.9,132.4,159.1S365,146.4,513.7,282.2S732.8,583,670.9,650.8z M481,317.9
				c-127.2-116.2-264.8-172.6-307.4-126s26.1,178.5,153.3,294.7s264.9,172.6,307.4,126C676.9,566,608.2,434,481,317.9z"/>
		</g>
	</g>
</g>
<g>
	<defs>
		<ellipse id="SVGID_00000042717170863754071030000014412871766475205789_" cx="295" cy="168.5" rx="208" ry="180.5"/>
	</defs>
	<clipPath id="SVGID_00000147923556234076071230000000141608255961139074_">
		<use xlink:href="#SVGID_00000042717170863754071030000014412871766475205789_"  style="overflow:visible;"/>
	</clipPath>
	
		<g id="blue_snake_00000122718883766080795380000008962609305384770988_" style="clip-path:url(#SVGID_00000147923556234076071230000000141608255961139074_);">
		<g>
			<defs>
				<path id="SVGID_00000029763893255614597480000002089978290868879746_" d="M667.7,649.8c-61.9,67.8-232.6,12.7-381.3-123.1
					S67.3,225.9,129.2,158.1s232.6-12.7,381.3,123.1S729.6,582,667.7,649.8z M477.8,316.9C350.6,200.7,213,144.3,170.4,190.9
					s26.1,178.5,153.3,294.7s264.9,172.6,307.4,126C673.7,565,605,433,477.8,316.9z"/>
			</defs>
			<clipPath id="SVGID_00000088837847303088194080000005910694779261705875_">
				<use xlink:href="#SVGID_00000029763893255614597480000002089978290868879746_"  style="overflow:visible;"/>
			</clipPath>
			<g style="clip-path:url(#SVGID_00000088837847303088194080000005910694779261705875_);">
				<g>
					<defs>
						<path id="SVGID_00000007412734936401566220000003891035513780341166_" d="M667.7,649.8c-61.9,67.8-232.6,12.7-381.3-123.1
							S67.3,225.9,129.2,158.1s232.6-12.7,381.3,123.1S729.6,582,667.7,649.8z M477.8,316.9C350.6,200.7,213,144.3,170.4,190.9
							s26.1,178.5,153.3,294.7s264.9,172.6,307.4,126C673.7,565,605,433,477.8,316.9z"/>
					</defs>
					<clipPath id="SVGID_00000182487979194798858430000016135591478733452191_">
						<use xlink:href="#SVGID_00000007412734936401566220000003891035513780341166_"  style="overflow:visible;"/>
					</clipPath>
					<g style="clip-path:url(#SVGID_00000182487979194798858430000016135591478733452191_);">
						<path class="st11" d="M588,723c-48.4,0-102.7-11.7-157-33.8c-56.2-22.8-112.6-57-163.2-98.8
							c-84.7-69.8-147.7-155.2-177.7-240.7c-14.6-41.5-20.5-80.8-17.7-116.6c2.9-37.1,15.2-69,36.5-94.7
							C142.6,97.6,195.7,76,262.6,76c48.4,0,102.7,11.7,157,33.8c56.2,22.8,112.6,57,163.2,98.8c84.5,69.8,147.6,155.3,177.6,240.7
							c14.6,41.5,20.5,80.8,17.7,116.6c-2.9,37.1-15.2,69-36.5,94.7C708,701.4,654.9,723,588,723z"/>
						<path d="M262.6,76.5c48.3,0,102.6,11.7,156.8,33.8c27.7,11.3,55.4,25.2,82.4,41.5c27.8,16.7,54.9,36,80.7,57.2
							c42.7,35.2,80,74.5,110.7,116.6c29.7,40.7,52.2,82.4,66.7,123.9s20.5,80.6,17.6,116.4c-2.9,37-15.2,68.8-36.3,94.5
							c-16.9,20.5-39,36.3-65.6,46.8c-25.7,10.2-55.3,15.4-87.8,15.4c-48.3,0-102.6-11.7-156.8-33.7c-27.7-11.3-55.4-25.2-82.4-41.5
							c-27.8-16.7-54.9-36-80.7-57.2c-42.7-35.2-80-74.5-110.7-116.6c-29.7-40.7-52.2-82.4-66.7-123.9
							C76,308.1,70.1,268.9,72.9,233.1c2.9-37,15.2-68.8,36.3-94.5c16.9-20.5,39-36.3,65.6-46.8C200.5,81.6,230.1,76.5,262.6,76.5
							L262.6,76.5 M262.6,75.5c-64.4,0-119.3,20.3-154.1,62.5C21.3,243.7,92.4,446.4,267.4,590.8c105,86.7,223.7,132.7,320.6,132.7
							c64.4,0,119.3-20.3,154.1-62.5c87.2-105.7,16.1-308.4-158.9-452.8C478.1,121.4,359.5,75.5,262.6,75.5L262.6,75.5z"/>
					</g>
				</g>
			</g>
		</g>
		<g>
			<defs>
				<path id="SVGID_00000161614158695347494590000003110220154905819318_" d="M667.7,649.8c-61.9,67.8-232.6,12.7-381.3-123.1
					S67.3,225.9,129.2,158.1s232.6-12.7,381.3,123.1S729.6,582,667.7,649.8z M477.8,316.9C350.6,200.7,213,144.3,170.4,190.9
					s26.1,178.5,153.3,294.7s264.9,172.6,307.4,126C673.7,565,605,433,477.8,316.9z"/>
			</defs>
			<clipPath id="SVGID_00000182528791856918819940000014088708689014673816_">
				<use xlink:href="#SVGID_00000161614158695347494590000003110220154905819318_"  style="overflow:visible;"/>
			</clipPath>
			<g style="clip-path:url(#SVGID_00000182528791856918819940000014088708689014673816_);">
				<ellipse transform="matrix(0.6365 -0.7712 0.7712 0.6365 -40.5145 338.3003)" cx="338.7" cy="212.1" rx="21.4" ry="30.7"/>
			</g>
		</g>
		<g>
			<defs>
				<path id="SVGID_00000133527582487551884830000016027115829009335171_" d="M667.7,649.8c-61.9,67.8-232.6,12.7-381.3-123.1
					S67.3,225.9,129.2,158.1s232.6-12.7,381.3,123.1S729.6,582,667.7,649.8z M477.8,316.9C350.6,200.7,213,144.3,170.4,190.9
					s26.1,178.5,153.3,294.7s264.9,172.6,307.4,126C673.7,565,605,433,477.8,316.9z"/>
			</defs>
			<clipPath id="SVGID_00000112628277905615562930000016338389723789802156_">
				<use xlink:href="#SVGID_00000133527582487551884830000016027115829009335171_"  style="overflow:visible;"/>
			</clipPath>
			<g style="clip-path:url(#SVGID_00000112628277905615562930000016338389723789802156_);">
				<ellipse transform="matrix(0.9369 -0.3496 0.3496 0.9369 -83.8484 214.7315)" cx="552.9" cy="339.6" rx="14.5" ry="19"/>
			</g>
		</g>
		<g>
			<defs>
				<path id="SVGID_00000108277466601208579840000014149112122790214016_" d="M667.7,649.8c-61.9,67.8-232.6,12.7-381.3-123.1
					S67.3,225.9,129.2,158.1s232.6-12.7,381.3,123.1S729.6,582,667.7,649.8z M477.8,316.9C350.6,200.7,213,144.3,170.4,190.9
					s26.1,178.5,153.3,294.7s264.9,172.6,307.4,126C673.7,565,605,433,477.8,316.9z"/>
			</defs>
			<clipPath id="SVGID_00000142150989006325419490000002879810544736715962_">
				<use xlink:href="#SVGID_00000108277466601208579840000014149112122790214016_"  style="overflow:visible;"/>
			</clipPath>
			<g style="clip-path:url(#SVGID_00000142150989006325419490000002879810544736715962_);">
				<ellipse transform="matrix(0.9369 -0.3496 0.3496 0.9369 -126.367 245.7618)" cx="617.6" cy="472.9" rx="14.5" ry="20.5"/>
			</g>
		</g>
		<g>
			<defs>
				<path id="SVGID_00000044875098562244653880000001276573724109064328_" d="M667.7,649.8c-61.9,67.8-232.6,12.7-381.3-123.1
					S67.3,225.9,129.2,158.1s232.6-12.7,381.3,123.1S729.6,582,667.7,649.8z M477.8,316.9C350.6,200.7,213,144.3,170.4,190.9
					s26.1,178.5,153.3,294.7s264.9,172.6,307.4,126C673.7,565,605,433,477.8,316.9z"/>
			</defs>
			<clipPath id="SVGID_00000158019467635352082790000002099249603077981868_">
				<use xlink:href="#SVGID_00000044875098562244653880000001276573724109064328_"  style="overflow:visible;"/>
			</clipPath>
			<g style="clip-path:url(#SVGID_00000158019467635352082790000002099249603077981868_);">
				<ellipse transform="matrix(8.704017e-03 -1 1 8.704017e-03 200.6452 645.4341)" cx="425.9" cy="221.5" rx="20.2" ry="23"/>
			</g>
		</g>
		<g>
			<defs>
				<path id="SVGID_00000164474188921807232070000011988184566362767003_" d="M667.7,649.8c-61.9,67.8-232.6,12.7-381.3-123.1
					S67.3,225.9,129.2,158.1s232.6-12.7,381.3,123.1S729.6,582,667.7,649.8z M477.8,316.9C350.6,200.7,213,144.3,170.4,190.9
					s26.1,178.5,153.3,294.7s264.9,172.6,307.4,126C673.7,565,605,433,477.8,316.9z"/>
			</defs>
			<clipPath id="SVGID_00000106143395220579417950000018028043014048912258_">
				<use xlink:href="#SVGID_00000164474188921807232070000011988184566362767003_"  style="overflow:visible;"/>
			</clipPath>
			<g style="clip-path:url(#SVGID_00000106143395220579417950000018028043014048912258_);">
				<ellipse transform="matrix(0.9369 -0.3496 0.3496 0.9369 -79.7771 187.4987)" cx="479.5" cy="314.7" rx="19.5" ry="26"/>
			</g>
		</g>
		<g>
			<defs>
				<path id="SVGID_00000022540348315535297180000012714999814810881416_" d="M667.7,649.8c-61.9,67.8-232.6,12.7-381.3-123.1
					S67.3,225.9,129.2,158.1s232.6-12.7,381.3,123.1S729.6,582,667.7,649.8z M477.8,316.9C350.6,200.7,213,144.3,170.4,190.9
					s26.1,178.5,153.3,294.7s264.9,172.6,307.4,126C673.7,565,605,433,477.8,316.9z"/>
			</defs>
			<clipPath id="SVGID_00000160873418867549357930000009584121258059675576_">
				<use xlink:href="#SVGID_00000022540348315535297180000012714999814810881416_"  style="overflow:visible;"/>
			</clipPath>
			<g style="clip-path:url(#SVGID_00000160873418867549357930000009584121258059675576_);">
				<ellipse transform="matrix(0.9369 -0.3496 0.3496 0.9369 -146.717 270.6218)" cx="676.3" cy="541.7" rx="14.5" ry="21.5"/>
			</g>
		</g>
		<g>
			<defs>
				<path id="SVGID_00000093899444539599867640000014466675137648239037_" d="M667.7,649.8c-61.9,67.8-232.6,12.7-381.3-123.1
					S67.3,225.9,129.2,158.1s232.6-12.7,381.3,123.1S729.6,582,667.7,649.8z M477.8,316.9C350.6,200.7,213,144.3,170.4,190.9
					s26.1,178.5,153.3,294.7s264.9,172.6,307.4,126C673.7,565,605,433,477.8,316.9z"/>
			</defs>
			<clipPath id="SVGID_00000119090951857133821750000000565740798156335266_">
				<use xlink:href="#SVGID_00000093899444539599867640000014466675137648239037_"  style="overflow:visible;"/>
			</clipPath>
			<g style="clip-path:url(#SVGID_00000119090951857133821750000000565740798156335266_);">
				<ellipse transform="matrix(0.9369 -0.3496 0.3496 0.9369 -179.1466 254.7441)" cx="616.1" cy="623.6" rx="32.4" ry="19.2"/>
			</g>
		</g>
		<g>
			<defs>
				<path id="SVGID_00000140720380131692119890000009510477669153529788_" d="M667.7,649.8c-61.9,67.8-232.6,12.7-381.3-123.1
					S67.3,225.9,129.2,158.1s232.6-12.7,381.3,123.1S729.6,582,667.7,649.8z M477.8,316.9C350.6,200.7,213,144.3,170.4,190.9
					s26.1,178.5,153.3,294.7s264.9,172.6,307.4,126C673.7,565,605,433,477.8,316.9z"/>
			</defs>
			<clipPath id="SVGID_00000011741154794397543020000015038388536652290216_">
				<use xlink:href="#SVGID_00000140720380131692119890000009510477669153529788_"  style="overflow:visible;"/>
			</clipPath>
			<g style="clip-path:url(#SVGID_00000011741154794397543020000015038388536652290216_);">
				<ellipse transform="matrix(0.9369 -0.3496 0.3496 0.9369 -198.1002 222.3201)" cx="516.8" cy="659.9" rx="27.7" ry="25.5"/>
			</g>
		</g>
		<g>
			<defs>
				<path id="SVGID_00000097477168861656694050000005696857362572399779_" d="M667.7,649.8c-61.9,67.8-232.6,12.7-381.3-123.1
					S67.3,225.9,129.2,158.1s232.6-12.7,381.3,123.1S729.6,582,667.7,649.8z M477.8,316.9C350.6,200.7,213,144.3,170.4,190.9
					s26.1,178.5,153.3,294.7s264.9,172.6,307.4,126C673.7,565,605,433,477.8,316.9z"/>
			</defs>
			<clipPath id="SVGID_00000075132748810168032860000011619163295606207414_">
				<use xlink:href="#SVGID_00000097477168861656694050000005696857362572399779_"  style="overflow:visible;"/>
			</clipPath>
			<g style="clip-path:url(#SVGID_00000075132748810168032860000011619163295606207414_);">
				<ellipse transform="matrix(0.9369 -0.3496 0.3496 0.9369 -174.4519 187.5501)" cx="432.3" cy="577" rx="27.7" ry="25.5"/>
			</g>
		</g>
		<g>
			<defs>
				<path id="SVGID_00000060752708200916114960000007452685190022065847_" d="M667.7,649.8c-61.9,67.8-232.6,12.7-381.3-123.1
					S67.3,225.9,129.2,158.1s232.6-12.7,381.3,123.1S729.6,582,667.7,649.8z M477.8,316.9C350.6,200.7,213,144.3,170.4,190.9
					s26.1,178.5,153.3,294.7s264.9,172.6,307.4,126C673.7,565,605,433,477.8,316.9z"/>
			</defs>
			<clipPath id="SVGID_00000080888048313951516440000014898574734410638774_">
				<use xlink:href="#SVGID_00000060752708200916114960000007452685190022065847_"  style="overflow:visible;"/>
			</clipPath>
			<g style="clip-path:url(#SVGID_00000080888048313951516440000014898574734410638774_);">
				<ellipse transform="matrix(0.6818 -0.7316 0.7316 0.6818 -309.3701 418.8773)" cx="326.8" cy="565" rx="26" ry="41.3"/>
			</g>
		</g>
		<g>
			<defs>
				<path id="SVGID_00000042018008131843952200000017225049959153941933_" d="M667.7,649.8c-61.9,67.8-232.6,12.7-381.3-123.1
					S67.3,225.9,129.2,158.1s232.6-12.7,381.3,123.1S729.6,582,667.7,649.8z M477.8,316.9C350.6,200.7,213,144.3,170.4,190.9
					s26.1,178.5,153.3,294.7s264.9,172.6,307.4,126C673.7,565,605,433,477.8,316.9z"/>
			</defs>
			<clipPath id="SVGID_00000051379632058465834040000002871348819410752389_">
				<use xlink:href="#SVGID_00000042018008131843952200000017225049959153941933_"  style="overflow:visible;"/>
			</clipPath>
			<g style="clip-path:url(#SVGID_00000051379632058465834040000002871348819410752389_);">
				<ellipse transform="matrix(0.9369 -0.3496 0.3496 0.9369 -132.1708 116.9979)" cx="258" cy="424.6" rx="27.7" ry="39.8"/>
			</g>
		</g>
		<g>
			<defs>
				<path id="SVGID_00000006684038208508499010000010690912323381051570_" d="M667.7,649.8c-61.9,67.8-232.6,12.7-381.3-123.1
					S67.3,225.9,129.2,158.1s232.6-12.7,381.3,123.1S729.6,582,667.7,649.8z M477.8,316.9C350.6,200.7,213,144.3,170.4,190.9
					s26.1,178.5,153.3,294.7s264.9,172.6,307.4,126C673.7,565,605,433,477.8,316.9z"/>
			</defs>
			<clipPath id="SVGID_00000150086086467195972000000013479358825530368914_">
				<use xlink:href="#SVGID_00000006684038208508499010000010690912323381051570_"  style="overflow:visible;"/>
			</clipPath>
			<g style="clip-path:url(#SVGID_00000150086086467195972000000013479358825530368914_);">
				<ellipse transform="matrix(0.9369 -0.3496 0.3496 0.9369 -107.7358 68.1861)" cx="135" cy="332.5" rx="27.7" ry="25.5"/>
			</g>
		</g>
		<g>
			<defs>
				<path id="SVGID_00000044162370289471998230000008309883457624971675_" d="M667.7,649.8c-61.9,67.8-232.6,12.7-381.3-123.1
					S67.3,225.9,129.2,158.1s232.6-12.7,381.3,123.1S729.6,582,667.7,649.8z M477.8,316.9C350.6,200.7,213,144.3,170.4,190.9
					s26.1,178.5,153.3,294.7s264.9,172.6,307.4,126C673.7,565,605,433,477.8,316.9z"/>
			</defs>
			<clipPath id="SVGID_00000173138849266413402550000002868481951347751556_">
				<use xlink:href="#SVGID_00000044162370289471998230000008309883457624971675_"  style="overflow:visible;"/>
			</clipPath>
			<g style="clip-path:url(#SVGID_00000173138849266413402550000002868481951347751556_);">
				<ellipse transform="matrix(0.9369 -0.3496 0.3496 0.9369 -62.2273 65.5315)" cx="150.4" cy="205.1" rx="27.7" ry="25.5"/>
			</g>
		</g>
		<g>
			<defs>
				<path id="SVGID_00000178204674110681597610000002606407197836036793_" d="M667.7,649.8c-61.9,67.8-232.6,12.7-381.3-123.1
					S67.3,225.9,129.2,158.1s232.6-12.7,381.3,123.1S729.6,582,667.7,649.8z M477.8,316.9C350.6,200.7,213,144.3,170.4,190.9
					s26.1,178.5,153.3,294.7s264.9,172.6,307.4,126C673.7,565,605,433,477.8,316.9z"/>
			</defs>
			<clipPath id="SVGID_00000100369835652726994950000005417677507527337137_">
				<use xlink:href="#SVGID_00000178204674110681597610000002606407197836036793_"  style="overflow:visible;"/>
			</clipPath>
			<g style="clip-path:url(#SVGID_00000100369835652726994950000005417677507527337137_);">
				<ellipse transform="matrix(0.9369 -0.3496 0.3496 0.9369 -32.0792 87.7428)" cx="227" cy="132.7" rx="27.7" ry="25.5"/>
			</g>
		</g>
		<g>
			<path id="SVGID_00000047771311924789868550000009746029588139863228_" class="st26" d="M667.7,649.8
				c-61.9,67.8-232.6,12.7-381.3-123.1S67.3,225.9,129.2,158.1s232.6-12.7,381.3,123.1S729.6,582,667.7,649.8z M477.8,316.9
				C350.6,200.7,213,144.3,170.4,190.9s26.1,178.5,153.3,294.7s264.9,172.6,307.4,126C673.7,565,605,433,477.8,316.9z"/>
		</g>
	</g>
</g>
</svg>
